{
.appVersion = "3176";
.formatVersion = 3;
axes = (
{
name = Weight;
tag = wght;
},
{
name = Width;
tag = wdth;
}
);
classes = (
{
code = "dottedCircle
koKai-lao
khoKhai-lao
khoKhuay-lao
gha-lao
ngoNgu-lao
ngoNgu-lao.short
coCok-lao
coCok-lao.ss01
cha-lao
soSang-lao
jha-lao
nyoNyung-lao
nya-lao
tta-lao
ttha-lao
dda-lao
ddha-lao
nna-lao
doDek-lao
toTa-lao
thoThong-lao
thoThung-lao
dha-lao
noNok-lao
boBae-lao
poPa-lao
phoPhueng-lao
foFon-lao
phoPhu-lao
foFai-lao
bha-lao
moMa-lao
yoYa-lao
roRot-lao
loLing-lao
woWi-lao
soSeua-lao
sha-lao
ssa-lao
hoHaan-lao
lla-lao
lla-lao.ss02
oO-lao
hoHeuan-lao
khmuGo-lao
khmuNyo-lao
hoNo-lao
hoMo-lao
";
name = laoBaseConsonants;
},
{
code = "niggahita-lao
niggahita-lao.right
";
name = niggahita;
},
{
code = "maiKanVowel-lao
maiKanVowel-lao.narrow
maiKanVowel-lao.centred
maiKanVowel-lao.right
iVowel-lao
iVowel-lao.right
iVowel-lao.narrow
iiVowel-lao
iiVowel-lao.right
iiVowel-lao.narrow
euVowel-lao
euVowel-lao.right
euVowel-lao.narrow
euuVowel-lao
euuVowel-lao.right
euuVowel-lao.narrow
maiKonVowel-lao
maiKonVowel-lao.narrow
maiKonVowel-lao.centred
maiKonVowel-lao.right
maiEk-lao
## maiEk-lao.narrow # Remove
maiEk-lao.small
maiTho-lao
maiTho-lao.narrow
maiTho-lao.small
maiTi-lao
maiTi-lao.narrow
maiTi-lao.small
maiCatawa-lao
maiCatawa-lao.narrow
maiCatawa-lao.small
karan-lao
karan-lao.small
niggahita-lao
niggahita-lao.small
niggahita-lao.right
yamakkan-lao
yamakkan-lao.centre
";
name = laoAboveMarks;
},
{
code = "maiEk-lao
maiTho-lao
maiTho-lao.narrow
maiTi-lao
maiTi-lao.narrow
maiCatawa-lao
maiCatawa-lao.narrow
karan-lao
niggahita-lao
niggahita-lao.right";
name = laoToneMarks;
},
{
code = "maiEk-lao.small
maiTho-lao.small
maiTho-lao.small
maiTi-lao.small
maiTi-lao.small
maiCatawa-lao.small
maiCatawa-lao.small
karan-lao.small
niggahita-lao.small
niggahita-lao.small";
name = laoToneMarksSmall;
},
{
code = "poPa-lao
foFon-lao
foFai-lao
yoYa-lao
";
name = laoAscenders;
},
{
code = "iVowel-lao
iiVowel-lao
euVowel-lao
euuVowel-lao

glyphs = (
{
glyphname = .notdef;
lastChange = "2020-12-17 08:36:01 +0000";
layers = (
{
layerId = "2CD50835-5B7E-4D2A-958C-2F579F79E971";
shapes = (
{
closed = 1;
nodes = (
(505,0,l),
(505,714,l),
(94,714,l),
(94,0,l)
);
},
{
closed = 1;
nodes = (
(145,663,l),
(454,663,l),
(454,51,l),
(145,51,l)
);
}
);
width = 600;
},
{
layerId = "6E668239-F79A-4803-9842-9160852853A7";
shapes = (
{
closed = 1;
nodes = (
(505,0,l),
(505,714,l),
(94,714,l),
(94,0,l)
);
},
{
closed = 1;
nodes = (
(145,663,l),
(454,663,l),
(454,51,l),
(145,51,l)
);
}
);
width = 600;
},
{
layerId = "EC79AED6-C145-434E-AE62-F6F3D2AFA8D1";
shapes = (
{
closed = 1;
nodes = (
(496,0,l),
(496,714,l),
(85,714,l),
(85,0,l)
);
},
{
closed = 1;
nodes = (
(136,663,l),
(445,663,l),
(445,51,l),
(136,51,l)
);
}
);
width = 582;
},
{
layerId = "FFE3C573-8034-42D7-BBA7-2D1C8826F1F5";
shapes = (
{
closed = 1;
nodes = (
(496,0,l),
(496,714,l),
(85,714,l),
(85,0,l)
);
},
{
closed = 1;
nodes = (
(136,663,l),
(445,663,l),
(445,51,l),
(136,51,l)
);
}
);
width = 600;
},
{
layerId = "CACD10EA-8E27-4203-9979-86A2B0F7ED74";
shapes = (
{
closed = 1;
nodes = (
(496,0,l),
(496,714,l),
(85,714,l),
(85,0,l)
);
},
{
closed = 1;
nodes = (
(136,663,l),
(445,663,l),
(445,51,l),
(136,51,l)
);
}
);
width = 595;
},
{
layerId = "96C6A4AF-11F2-4EC9-996B-29C760E40A38";
shapes = (
{
closed = 1;
nodes = (
(496,0,l),
(496,714,l),
(85,714,l),
(85,0,l)
);
},
{
closed = 1;
nodes = (
(136,663,l),
(445,663,l),
(445,51,l),
(136,51,l)
);
}
);
width = 582;
}
);
},
{
glyphname = "koKai-lao";
kernLeft = "koKai-lao";
kernRight = "doDek-lao";
lastChange = "2023-01-11 12:09:50 +0000";
layers = (
{
anchors = (
{
name = bottom;
pos = (358,0);
},
{
name = bottomright;
pos = (605,0);
},
{
name = top;
pos = (384,608);
},
{
name = topright;
pos = (605,608);
},
{
name = yamakkan;
pos = (605,608);
}
);
layerId = "2CD50835-5B7E-4D2A-958C-2F579F79E971";
shapes = (
{
closed = 1;
nodes = (
(605,0,l),
(605,379,ls),
(605,489,o),
(534,558,o),
(422,558,cs),
(329,558,o),
(259,511,o),
(224,458,c),
(246,475,l),
(221,475,l),
(228,433,l),
(273,491,o),
(335,533,o),
(422,533,cs),
(520,533,o),
(579,474,o),
(579,374,cs),
(579,0,l)
);
},
{
closed = 1;
nodes = (
(114,418,o),
(93,440,o),
(93,475,cs),
(93,510,o),
(114,532,o),
(149,532,cs),
(183,532,o),
(207,511,o),
(207,465,cs),
(207,458,o),
(207,452,o),
(207,444,c),
(194,427,o),
(173,418,o),
(149,418,cs)
);
},
{
closed = 1;
nodes = (
(207,115,l),
(212,115,o),
(221,94,o),
(221,75,c),
(225,75,l),
(225,124,o),
(195,155,o),
(147,155,cs),
(100,155,o),
(68,122,o),
(68,75,cs),
(68,27,o),
(101,-5,o),
(151,-5,cs),
(200,-5,o),
(233,28,o),
(233,78,c),
(233,472,l),
(233,523,o),
(201,555,o),
(149,555,cs),
(101,555,o),
(68,523,o),
(68,475,cs),
(68,428,o),
(101,395,o),
(148,395,cs),
(206,395,o),
(231,442,o),
(231,472,c),
(229,472,l),
(229,453,o),
(215,428,o),
(207,428,c)
);
},
{
closed = 1;
nodes = (
(184,132,o),
(205,110,o),
(205,75,cs),
(205,40,o),
(184,18,o),
(149,18,cs),
(114,18,o),
(93,40,o),
(93,75,cs),
(93,110,o),
(114,132,o),
(149,132,cs)
);
}
);
width = 709;
},
{
anchors = (
{
name = bottom;
pos = (378,0);
},
{
name = bottomright;
pos = (631,0);
},
{
name = top;
pos = (382,608);
},
{
name = topright;
pos = (626,608);
},
{
name = yamakkan;
pos = (631,608);
}
);
hints = (
{
horizontal = 1;
origin = (0,4);
target = (0,13);
type = Stem;
},
{
horizontal = 1;
origin = (0,17);
target = up;
type = BottomGhost;
},
{
origin = (2,0);
target = (2,16);
type = Stem;
},
{
origin = (0,17);
target = (0,0);
type = Stem;
},
{
horizontal = 1;
origin = (2,20);
target = (1,5);
type = Stem;
},
{
horizontal = 1;
origin = (2,13);
target = (3,5);
type = Stem;
}
);
layerId = "6E668239-F79A-4803-9842-9160852853A7";
shapes = (
{
closed = 1;
nodes = (
(631,0,l),
(631,376,ls),
(631,491,o),
(556,563,o),
(436,563,cs),
(348,563,o),
(282,517,o),
(248,473,c),
(277,487,l),
(239,487,l),
(252,402,l),
(306,464,o),
(363,490,o),
(419,490,cs),
(498,490,o),
(545,445,o),
(545,367,cs),
(545,0,l)
);
},
{
closed = 1;
nodes = (
(126,410,o),
(107,429,o),
(107,461,cs),
(107,493,o),
(126,512,o),
(157,512,cs),
(189,512,o),
(207,493,o),
(207,461,cs),
(207,443,o),
(206,434,o),
(204,423,c),
(195,417,o),
(178,410,o),
(157,410,cs)
);
},
{
closed = 1;
nodes = (
(175,165,l),
(204,165,o),
(242,124,o),
(242,92,c),
(255,92,l),
(255,155,o),
(216,191,o),
(149,191,cs),
(92,191,o),
(53,151,o),
(53,93,cs),
(53,32,o),
(94,-7,o),
(157,-7,cs),
(221,-7,o),
(261,32,o),
(261,93,c),
(261,451,l),
(261,522,o),
(221,560,o),
(156,560,cs),
(94,560,o),
(53,521,o),
(53,460,cs),
(53,401,o),
(93,362,o),
(155,362,cs),
(214,362,o),
(258,413,o),
(258,459,c),
(253,459,l),
(253,424,o),
(205,387,o),
(175,387,c)
);
},
{
closed = 1;
nodes = (
(188,143,o),
(207,124,o),
(207,92,cs),
(207,60,o),
(188,41,o),
(157,41,cs),
(126,41,o),
(107,60,o),
(107,92,cs),
(107,124,o),
(126,143,o),
(157,143,cs)
);
}
);
width = 721;
},
{
anchors = (
{
name = bottom;
pos = (372,0);
},
{
name = bottomright;
pos = (676,0);
},
{
name = top;
pos = (378,608);
},
{
name = topright;
pos = (666,608);
},
{
name = yamakkan;
pos = (676,608);
}
);
layerId = "EC79AED6-C145-434E-AE62-F6F3D2AFA8D1";
shapes = (
{
closed = 1;
nodes = (
(676,0,l),
(676,365,ls),
(676,498,o),
(597,578,o),
(466,578,cs),
(377,578,o),
(316,541,o),
(277,490,c),
(304,508,l),
(256,508,l),
(297,392,l),
(325,419,o),
(363,432,o),
(400,432,cs),
(457,432,o),
(490,401,o),
(490,345,cs),
(490,0,l)
);
},
{
closed = 1;
nodes = (
(120,421,o),
(102,438,o),
(102,466,cs),
(102,494,o),
(120,511,o),
(150,511,cs),
(179,511,o),
(198,494,o),
(198,466,cs),
(198,453,o),
(198,443,o),
(196,432,c),
(183,425,o),
(165,421,o),
(149,421,cs)
);
},
{
closed = 1;
nodes = (
(122,182,l),
(200,182,o),
(264,143,o),
(264,96,c),
(289,96,l),
(289,174,o),
(214,204,o),
(137,204,cs),
(74,204,o),
(31,160,o),
(31,96,cs),
(31,33,o),
(82,-10,o),
(156,-10,cs),
(250,-10,o),
(308,47,o),
(308,139,c),
(308,416,l),
(308,516,o),
(252,573,o),
(156,573,cs),
(82,573,o),
(31,530,o),
(31,467,cs),
(31,403,o),
(75,359,o),
(140,359,cs),
(223,359,o),
(297,398,o),
(297,458,c),
(262,458,l),
(262,415,o),
(200,381,o),
(122,381,c)
);
},
{
closed = 1;
nodes = (
(180,142,o),
(198,125,o),
(198,97,cs),
(198,69,o),
(180,52,o),
(150,52,cs),
(120,52,o),
(102,69,o),
(102,97,cs),
(102,125,o),
(120,142,o),
(150,142,cs)
);
}
);
width = 742;
},
{
anchors = (
{
name = bottom;
pos = (267,0);
},
{
name = bottomright;
pos = (432,0);
},
{
name = top;
pos = (277,608);
},
{
name = topright;
pos = (432,608);
},
{
name = yamakkan;
pos = (432,608);
}
);
layerId = "FFE3C573-8034-42D7-BBA7-2D1C8826F1F5";
shapes = (
{
closed = 1;
nodes = (
(432,0,l),
(432,402,ls),
(432,498,o),
(382,556,o),
(301,556,cs),
(236,556,o),
(185,507,o),
(161,456,c),
(178,473,l),
(159,473,l),
(164,432,l),
(197,491,o),
(241,533,o),
(299,533,cs),
(369,533,o),
(408,484,o),
(408,397,cs),
(408,0,l)
);
},
{
closed = 1;
nodes = (
(81,416,o),
(67,437,o),
(67,474,cs),
(67,511,o),
(81,532,o),
(106,532,cs),
(132,532,o),
(146,509,o),
(146,464,cs),
(146,458,o),
(146,451,o),
(146,443,c),
(137,426,o),
(123,416,o),
(106,416,cs)
);
},
{
closed = 1;
nodes = (
(144,114,l),
(150,114,o),
(157,93,o),
(157,75,c),
(160,75,l),
(160,121,o),
(141,153,o),
(105,153,cs),
(69,153,o),
(45,122,o),
(45,75,cs),
(45,26,o),
(69,-5,o),
(106,-5,cs),
(144,-5,o),
(168,27,o),
(168,76,c),
(168,471,l),
(168,520,o),
(144,553,o),
(107,553,cs),
(70,553,o),
(45,522,o),
(45,474,cs),
(45,426,o),
(69,395,o),
(105,395,cs),
(147,395,o),
(166,441,o),
(166,470,c),
(162,470,l),
(162,452,o),
(152,427,o),
(144,427,c)
);
},
{
closed = 1;
nodes = (
(131,132,o),
(145,111,o),
(145,74,cs),
(145,37,o),
(131,16,o),
(106,16,cs),
(81,16,o),
(67,37,o),
(67,74,cs),
(67,111,o),
(81,132,o),
(106,132,cs)
);
}
);
width = 502;
},
{
anchors = (
{
name = bottom;
pos = (282,0);
},
{
name = bottomright;
pos = (473,0);
},
{
name = top;
pos = (287,608);
},
{
name = topright;
pos = (468,608);
},
{
name = yamakkan;
pos = (473,608);
}
);
layerId = "CACD10EA-8E27-4203-9979-86A2B0F7ED74";
shapes = (
{
closed = 1;
nodes = (
(473,0,l),
(473,405,ls),
(473,502,o),
(415,561,o),
(330,561,cs),
(258,561,o),
(214,515,o),
(187,470,c),
(206,488,l),
(178,488,l),
(192,408,l),
(225,462,o),
(263,495,o),
(309,495,cs),
(360,495,o),
(395,460,o),
(395,397,cs),
(395,0,l)
);
},
{
closed = 1;
nodes = (
(95,404,o),
(81,427,o),
(81,460,cs),
(81,492,o),
(95,514,o),
(115,514,cs),
(138,514,o),
(151,493,o),
(151,460,cs),
(151,439,o),
(150,429,o),
(149,419,c),
(141,412,o),
(132,404,o),
(115,404,cs)
);
},
{
closed = 1;
nodes = (
(121,157,l),
(150,157,o),
(181,119,o),
(181,89,c),
(192,89,l),
(192,153,o),
(156,191,o),
(107,191,cs),
(65,191,o),
(36,151,o),
(36,92,cs),
(36,30,o),
(67,-7,o),
(118,-7,cs),
(171,-7,o),
(199,32,o),
(199,103,c),
(199,453,l),
(199,520,o),
(169,558,o),
(116,558,cs),
(66,558,o),
(36,521,o),
(36,460,cs),
(36,400,o),
(65,360,o),
(108,360,cs),
(159,360,o),
(195,414,o),
(195,460,c),
(185,460,l),
(185,428,o),
(151,392,o),
(121,392,c)
);
},
{
closed = 1;
nodes = (
(138,147,o),
(151,126,o),
(151,92,cs),
(151,58,o),
(138,37,o),
(116,37,cs),
(95,37,o),
(81,58,o),
(81,92,cs),
(81,126,o),
(95,147,o),
(116,147,cs)
);
}
);
width = 537;
},
{
anchors = (
{
name = bottom;
pos = (314,0);
},
{
name = bottomright;
pos = (563,0);
},
{
name = top;
pos = (317,608);
},
{
name = topright;
pos = (553,608);
},
{
name = yamakkan;
pos = (563,608);
}
);
layerId = "96C6A4AF-11F2-4EC9-996B-29C760E40A38";
shapes = (
{
closed = 1;
nodes = (
(563,0,l),
(563,392,ls),
(563,506,o),
(497,576,o),
(393,576,cs),
(317,576,o),
(268,538,o),
(239,488,c),
(256,505,l),
(214,505,l),
(252,393,l),
(273,418,o),
(301,430,o),
(329,430,cs),
(367,430,o),
(391,408,o),
(391,369,cs),
(391,0,l)
);
},
{
closed = 1;
nodes = (
(99,419,o),
(85,437,o),
(85,465,cs),
(85,493,o),
(100,511,o),
(123,511,cs),
(148,511,o),
(163,493,o),
(163,465,cs),
(163,452,o),
(163,442,o),
(161,431,c),
(151,424,o),
(135,419,o),
(122,419,cs)
);
},
{
closed = 1;
nodes = (
(90,179,l),
(163,179,o),
(222,140,o),
(222,95,c),
(245,95,l),
(245,171,o),
(177,202,o),
(111,202,cs),
(58,202,o),
(21,158,o),
(21,96,cs),
(21,33,o),
(66,-10,o),
(134,-10,cs),
(212,-10,o),
(262,45,o),
(262,132,c),
(262,421,l),
(262,516,o),
(214,571,o),
(132,571,cs),
(66,571,o),
(21,528,o),
(21,466,cs),
(21,403,o),
(59,359,o),
(112,359,cs),
(184,359,o),
(242,400,o),
(242,458,c),
(219,458,l),
(219,416,o),
(162,382,o),
(90,382,c)
);
},
{
closed = 1;
nodes = (
(148,142,o),
(163,125,o),
(163,96,cs),
(163,67,o),
(148,50,o),
(124,50,cs),
(100,50,o),
(85,67,o),
(85,96,cs),
(85,125,o),
(100,142,o),
(124,142,cs)
);
}
);
width = 613;
}
);
metricRight = "doDek-lao";
subCategory = Spacing;
unicode = 3713;
},
{
glyphname = "khoKhai-lao";
kernLeft = "khoKhai-lao";
kernRight = "khoKhai-lao";
lastChange = "2023-01-11 12:18:52 +0000";
layers = (
{
anchors = (
{
name = bottom;
pos = (303,0);
},
{
name = bottomright;
pos = (530,0);
},
{
name = top;
pos = (317,608);
},
{
name = topright;
pos = (528,608);
},
{
name = yamakkan;
pos = (528,608);
}
);
layerId = "2CD50835-5B7E-4D2A-958C-2F579F79E971";
shapes = (
{
closed = 1;
nodes = (
(292,-8,o),
(394,74,o),
(452,74,cs),
(487,74,o),
(501,55,o),
(516,-8,c),
(542,0,l),
(525,73,o),
(502,99,o),
(455,99,cs),
(387,99,o),
(283,17,o),
(207,17,cs),
(158,17,o),
(119,51,o),
(119,107,cs),
(119,157,o),
(143,186,o),
(203,205,cs),
(263,224,o),
(344,237,o),
(416,259,cs),
(488,281,o),
(528,321,o),
(528,395,cs),
(528,497,o),
(452,558,o),
(324,558,cs),
(181,558,o),
(92,503,o),
(92,416,cs),
(92,366,o),
(123,334,o),
(173,334,cs),
(223,334,o),
(254,365,o),
(254,414,cs),
(254,463,o),
(222,493,o),
(178,493,cs),
(133,493,o),
(100,458,o),
(100,414,c),
(104,431,o),
(121,458,o),
(134,464,c),
(134,488,o),
(192,533,o),
(324,533,cs),
(437,533,o),
(501,483,o),
(501,395,cs),
(501,332,o),
(469,303,o),
(403,281,cs),
(337,259,o),
(249,246,o),
(188,227,cs),
(127,208,o),
(92,169,o),
(92,105,cs),
(92,36,o),
(141,-8,o),
(205,-8,cs)
);
},
{
closed = 1;
nodes = (
(138,357,o),
(117,379,o),
(117,414,cs),
(117,449,o),
(139,471,o),
(173,471,cs),
(208,471,o),
(229,450,o),
(229,414,cs),
(229,378,o),
(208,357,o),
(173,357,cs)
);
}
);
width = 616;
},
{
anchors = (
{
name = bottom;
pos = (300,0);
},
{
name = bottomright;
pos = (561,0);
},
{
name = top;
pos = (325,608);
},
{
name = topright;
pos = (552,608);
},
{
name = yamakkan;
pos = (557,608);
}
);
hints = (
{
horizontal = 1;
origin = (0,27);
target = (0,48);
type = Stem;
},
{
horizontal = 1;
origin = (0,63);
target = (0,12);
type = Stem;
}
);
layerId = "6E668239-F79A-4803-9842-9160852853A7";
shapes = (
{
closed = 1;
nodes = (
(280,-10,o),
(370,58,o),
(431,58,cs),
(459,58,o),
(477,41,o),
(491,-10,c),
(571,15,l),
(549,99,o),
(521,132,o),
(459,132,cs),
(385,132,o),
(278,58,o),
(209,58,cs),
(166,58,o),
(147,83,o),
(147,120,cs),
(147,158,o),
(170,176,o),
(221,189,cs),
(272,202,o),
(367,215,o),
(439,240,cs),
(511,265,o),
(557,307,o),
(557,389,cs),
(557,498,o),
(470,563,o),
(323,563,cs),
(168,563,o),
(64,497,o),
(64,401,cs),
(64,339,o),
(104,300,o),
(166,300,cs),
(230,300,o),
(270,339,o),
(270,398,cs),
(270,455,o),
(231,490,o),
(164,490,cs),
(146,490,o),
(121,481,o),
(107,469,c),
(141,475,o),
(169,475,o),
(205,471,c),
(239,485,o),
(277,492,o),
(319,492,cs),
(417,492,o),
(473,454,o),
(473,388,cs),
(473,341,o),
(447,314,o),
(397,298,cs),
(347,282,o),
(227,262,o),
(167,243,cs),
(107,224,o),
(64,188,o),
(64,118,cs),
(64,42,o),
(117,-10,o),
(193,-10,cs)
);
},
{
closed = 1;
nodes = (
(137,348,o),
(118,367,o),
(118,399,cs),
(118,430,o),
(137,450,o),
(168,450,cs),
(199,450,o),
(218,430,o),
(218,399,cs),
(218,367,o),
(199,348,o),
(168,348,cs)
);
}
);
width = 624;
},
{
anchors = (
{
name = bottom;
pos = (321,0);
},
{
name = bottomright;
pos = (617,0);
},
{
name = top;
pos = (321,608);
},
{
name = topright;
pos = (596,608);
},
{
name = yamakkan;
pos = (606,608);
}
);
layerId = "EC79AED6-C145-434E-AE62-F6F3D2AFA8D1";
shapes = (
{
closed = 1;
nodes = (
(281,-15,o),
(354,30,o),
(400,30,cs),
(436,30,o),
(449,9,o),
(456,-15,c),
(624,44,l),
(601,137,o),
(571,178,o),
(496,178,cs),
(406,178,o),
(305,112,o),
(262,112,cs),
(243,112,o),
(233,122,o),
(233,138,cs),
(233,155,o),
(244,164,o),
(280,172,cs),
(316,180,o),
(372,190,o),
(452,210,cs),
(532,230,o),
(606,268,o),
(606,381,cs),
(606,507,o),
(505,578,o),
(330,578,cs),
(154,578,o),
(51,518,o),
(51,415,cs),
(51,346,o),
(98,303,o),
(176,303,cs),
(250,303,o),
(296,342,o),
(296,407,cs),
(296,449,o),
(275,496,o),
(196,496,cs),
(161,496,o),
(137,483,o),
(129,473,c),
(217,473,o),
(250,461,o),
(252,437,c),
(268,443,o),
(288,446,o),
(321,446,cs),
(387,446,o),
(423,424,o),
(423,383,cs),
(423,355,o),
(413,328,o),
(359,311,cs),
(305,294,o),
(252,287,o),
(183,268,cs),
(114,249,o),
(51,206,o),
(51,127,cs),
(51,42,o),
(113,-15,o),
(204,-15,cs)
);
},
{
closed = 1;
nodes = (
(153,362,o),
(135,379,o),
(135,407,cs),
(135,435,o),
(153,452,o),
(183,452,cs),
(213,452,o),
(231,435,o),
(231,407,cs),
(231,379,o),
(213,362,o),
(183,362,cs)
);
}
);
width = 662;
},
{
anchors = (
{
name = bottom;
pos = (226,0);
},
{
name = bottomright;
pos = (379,0);
},
{
name = top;
pos = (226,608);
},
{
name = topright;
pos = (378,608);
},
{
name = yamakkan;
pos = (378,608);
}
);
layerId = "FFE3C573-8034-42D7-BBA7-2D1C8826F1F5";
shapes = (
{
closed = 1;
nodes = (
(214,-8,o),
(279,75,o),
(319,75,cs),
(343,75,o),
(353,56,o),
(364,-8,c),
(388,-3,l),
(375,72,o),
(358,98,o),
(321,98,cs),
(274,98,o),
(207,15,o),
(153,15,cs),
(115,15,o),
(86,50,o),
(86,107,cs),
(86,156,o),
(115,184,o),
(157,204,cs),
(199,224,o),
(241,237,o),
(292,261,cs),
(343,285,o),
(378,319,o),
(378,396,cs),
(378,495,o),
(322,556,o),
(230,556,cs),
(129,556,o),
(62,501,o),
(62,414,cs),
(62,364,o),
(85,333,o),
(122,333,cs),
(160,333,o),
(184,362,o),
(184,412,cs),
(184,462,o),
(160,491,o),
(125,491,cs),
(93,491,o),
(69,452,o),
(69,411,c),
(74,428,o),
(84,455,o),
(95,462,c),
(98,486,o),
(140,533,o),
(230,533,cs),
(309,533,o),
(354,481,o),
(354,396,cs),
(354,328,o),
(327,302,o),
(280,280,cs),
(233,258,o),
(192,244,o),
(145,223,cs),
(98,202,o),
(62,167,o),
(62,105,cs),
(62,37,o),
(102,-8,o),
(153,-8,cs)
);
},
{
closed = 1;
nodes = (
(98,354,o),
(84,375,o),
(84,412,cs),
(84,449,o),
(98,470,o),
(123,470,cs),
(148,470,o),
(162,449,o),
(162,412,cs),
(162,375,o),
(148,354,o),
(123,354,cs)
);
}
);
width = 439;
},
{
anchors = (
{
name = bottom;
pos = (239,0);
},
{
name = bottomright;
pos = (421,0);
},
{
name = top;
pos = (239,608);
},
{
name = topright;
pos = (414,608);
},
{
name = yamakkan;
pos = (419,608);
}
);
layerId = "CACD10EA-8E27-4203-9979-86A2B0F7ED74";
shapes = (
{
closed = 1;
nodes = (
(233,-10,o),
(285,61,o),
(321,61,cs),
(345,61,o),
(355,36,o),
(362,-10,c),
(431,13,l),
(418,93,o),
(394,127,o),
(340,127,cs),
(270,127,o),
(218,56,o),
(172,56,cs),
(146,56,o),
(125,80,o),
(125,117,cs),
(125,151,o),
(141,177,o),
(180,192,cs),
(219,207,o),
(274,220,o),
(325,243,cs),
(376,266,o),
(419,308,o),
(419,389,cs),
(419,497,o),
(353,561,o),
(241,561,cs),
(124,561,o),
(49,497,o),
(49,402,cs),
(49,342,o),
(78,301,o),
(129,301,cs),
(180,301,o),
(210,341,o),
(210,400,cs),
(210,455,o),
(180,489,o),
(136,489,cs),
(109,489,o),
(90,476,o),
(84,459,c),
(116,467,o),
(137,471,o),
(152,469,c),
(167,483,o),
(194,495,o),
(238,495,cs),
(305,495,o),
(343,456,o),
(343,388,cs),
(343,339,o),
(322,313,o),
(283,295,cs),
(244,277,o),
(182,261,o),
(132,241,cs),
(82,221,o),
(49,182,o),
(49,115,cs),
(49,41,o),
(96,-10,o),
(155,-10,cs)
);
},
{
closed = 1;
nodes = (
(111,345,o),
(97,367,o),
(97,400,cs),
(97,434,o),
(111,455,o),
(132,455,cs),
(153,455,o),
(167,434,o),
(167,400,cs),
(167,367,o),
(153,345,o),
(132,345,cs)
);
}
);
width = 470;
},
{
anchors = (
{
name = bottom;
pos = (264,0);
},
{
name = bottomright;
pos = (517,0);
},
{
name = top;
pos = (264,608);
},
{
name = topright;
pos = (497,608);
},
{
name = yamakkan;
pos = (507,608);
}
);
layerId = "96C6A4AF-11F2-4EC9-996B-29C760E40A38";
shapes = (
{
closed = 1;
nodes = (
(229,-15,o),
(286,34,o),
(322,34,cs),
(353,34,o),
(362,11,o),
(367,-14,c),
(522,40,l),
(502,132,o),
(477,172,o),
(412,172,cs),
(335,172,o),
(259,113,o),
(228,113,cs),
(216,113,o),
(203,121,o),
(203,138,cs),
(203,157,o),
(213,166,o),
(237,174,cs),
(261,182,o),
(307,193,o),
(372,213,cs),
(437,233,o),
(507,273,o),
(507,382,cs),
(507,506,o),
(420,576,o),
(271,576,cs),
(123,576,o),
(37,515,o),
(37,413,cs),
(37,345,o),
(77,303,o),
(142,303,cs),
(207,303,o),
(248,342,o),
(248,406,cs),
(248,450,o),
(223,495,o),
(163,495,cs),
(136,495,o),
(117,483,o),
(109,472,c),
(192,472,o),
(221,463,o),
(221,442,c),
(235,449,o),
(249,452,o),
(263,452,cs),
(311,452,o),
(339,428,o),
(339,384,cs),
(339,354,o),
(330,325,o),
(289,309,cs),
(248,293,o),
(213,285,o),
(151,265,cs),
(89,245,o),
(37,202,o),
(37,126,cs),
(37,41,o),
(90,-15,o),
(167,-15,cs)
);
},
{
closed = 1;
nodes = (
(127,360,o),
(112,377,o),
(112,406,cs),
(112,435,o),
(127,452,o),
(151,452,cs),
(175,452,o),
(190,435,o),
(190,406,cs),
(190,377,o),
(175,360,o),
(151,360,cs)
);
}
);
width = 549;
}
);
subCategory = Spacing;
unicode = 3714;
},
{
glyphname = "khoKhuay-lao";
kernLeft = "khoKhuay-lao";
kernRight = "doDek-lao";
lastChange = "2023-01-11 12:52:25 +0000";
layers = (
{
anchors = (
{
name = bottom;
pos = (322,0);
},
{
name = bottomright;
pos = (545,0);
},
{
name = top;
pos = (318,608);
},
{
name = topright;
pos = (545,608);
},
{
name = yamakkan;
pos = (545,608);
}
);
layerId = "2CD50835-5B7E-4D2A-958C-2F579F79E971";
shapes = (
{
closed = 1;
nodes = (
(236,-5,o),
(270,28,o),
(270,75,cs),
(270,122,o),
(237,155,o),
(189,155,cs),
(146,155,o),
(116,126,o),
(116,86,c),
(119,86,l),
(116,101,o),
(114,112,o),
(114,130,cs),
(114,212,o),
(167,271,o),
(244,271,cs),
(299,271,l),
(299,295,l),
(244,295,ls),
(165,295,o),
(117,337,o),
(117,407,cs),
(117,487,o),
(195,533,o),
(313,533,cs),
(449,533,o),
(519,472,o),
(519,369,cs),
(519,0,l),
(545,0,l),
(545,374,ls),
(545,487,o),
(463,558,o),
(313,558,cs),
(180,558,o),
(90,502,o),
(90,407,cs),
(90,318,o),
(158,292,o),
(197,284,c),
(197,282,l),
(160,274,o),
(87,237,o),
(87,130,cs),
(87,49,o),
(128,-5,o),
(189,-5,cs)
);
},
{
closed = 1;
nodes = (
(154,18,o),
(133,40,o),
(133,75,cs),
(133,110,o),
(154,132,o),
(189,132,cs),
(224,132,o),
(245,110,o),
(245,75,cs),
(245,40,o),
(224,18,o),
(189,18,cs)
);
}
);
width = 649;
},
{
anchors = (
{
name = bottom;
pos = (333,0);
},
{
name = bottomright;
pos = (577,0);
},
{
name = top;
pos = (329,608);
},
{
name = topright;
pos = (572,608);
},
{
name = yamakkan;
pos = (577,608);
}
);
hints = (
{
horizontal = 1;
origin = (0,33);
target = (0,24);
type = Stem;
},
{
horizontal = 1;
origin = (0,28);
target = up;
type = BottomGhost;
},
{
origin = (0,28);
target = (0,29);
type = Stem;
},
{
horizontal = 1;
origin = (0,46);
target = (1,11);
type = Stem;
}
);
layerId = "6E668239-F79A-4803-9842-9160852853A7";
shapes = (
{
closed = 1;
nodes = (
(254,-7,o),
(295,32,o),
(295,93,cs),
(295,151,o),
(256,191,o),
(199,191,cs),
(156,191,o),
(131,166,o),
(131,130,c),
(147,131,l),
(147,140,o),
(147,146,o),
(147,153,cs),
(147,208,o),
(195,246,o),
(267,246,cs),
(305,246,l),
(305,314,l),
(267,314,ls),
(197,314,o),
(162,341,o),
(162,395,cs),
(162,456,o),
(226,490,o),
(319,490,cs),
(434,490,o),
(491,439,o),
(491,353,cs),
(491,0,l),
(577,0,l),
(577,365,ls),
(577,486,o),
(485,563,o),
(319,563,cs),
(173,563,o),
(75,505,o),
(75,406,cs),
(75,312,o),
(157,286,o),
(193,281,c),
(193,277,l),
(151,270,o),
(72,229,o),
(72,123,cs),
(72,44,o),
(118,-7,o),
(191,-7,cs)
);
},
{
closed = 1;
nodes = (
(160,41,o),
(141,60,o),
(141,92,cs),
(141,124,o),
(160,143,o),
(191,143,cs),
(222,143,o),
(241,124,o),
(241,92,cs),
(241,60,o),
(222,41,o),
(191,41,cs)
);
}
);
width = 667;
},
{
anchors = (
{
name = bottom;
pos = (343,0);
},
{
name = bottomright;
pos = (632,0);
},
{
name = top;
pos = (343,608);
},
{
name = topright;
pos = (622,608);
},
{
name = yamakkan;
pos = (632,608);
}
);
layerId = "EC79AED6-C145-434E-AE62-F6F3D2AFA8D1";
shapes = (
{
closed = 1;
nodes = (
(275,-10,o),
(326,33,o),
(326,96,cs),
(326,160,o),
(283,204,o),
(220,204,cs),
(181,204,o),
(139,172,o),
(139,147,c),
(194,147,l),
(194,153,o),
(194,160,o),
(194,166,cs),
(194,215,o),
(234,243,o),
(308,243,cs),
(317,243,l),
(317,354,l),
(303,354,ls),
(262,354,o),
(237,368,o),
(237,390,cs),
(237,417,o),
(278,432,o),
(330,432,cs),
(410,432,o),
(446,397,o),
(446,340,cs),
(446,0,l),
(632,0,l),
(632,359,ls),
(632,494,o),
(523,578,o),
(329,578,cs),
(163,578,o),
(53,517,o),
(53,416,cs),
(53,334,o),
(114,301,o),
(163,294,c),
(163,289,l),
(109,271,o),
(48,228,o),
(48,131,cs),
(48,48,o),
(107,-10,o),
(201,-10,cs)
);
},
{
closed = 1;
nodes = (
(177,52,o),
(159,69,o),
(159,97,cs),
(159,125,o),
(177,142,o),
(207,142,cs),
(237,142,o),
(255,125,o),
(255,97,cs),
(255,69,o),
(237,52,o),
(207,52,cs)
);
}
);
width = 698;
},
{
anchors = (
{
name = bottom;
pos = (231,0);
},
{
name = bottomright;
pos = (389,0);
},
{
name = top;
pos = (226,608);
},
{
name = topright;
pos = (389,608);
},
{
name = yamakkan;
pos = (389,608);
}
);
layerId = "FFE3C573-8034-42D7-BBA7-2D1C8826F1F5";
shapes = (
{
closed = 1;
nodes = (
(171,-5,o),
(195,26,o),
(195,75,cs),
(195,122,o),
(171,153,o),
(135,153,cs),
(102,153,o),
(80,128,o),
(80,85,c),
(86,85,l),
(84,97,o),
(83,109,o),
(83,130,cs),
(83,211,o),
(121,270,o),
(175,270,cs),
(212,270,l),
(212,292,l),
(175,292,ls),
(120,292,o),
(86,335,o),
(86,405,cs),
(86,486,o),
(141,533,o),
(222,533,cs),
(316,533,o),
(365,478,o),
(365,387,cs),
(365,0,l),
(389,0,l),
(389,392,ls),
(389,493,o),
(330,556,o),
(222,556,cs),
(127,556,o),
(62,500,o),
(62,405,cs),
(62,317,o),
(112,290,o),
(139,282,c),
(139,280,l),
(113,272,o),
(60,238,o),
(60,130,cs),
(60,47,o),
(87,-5,o),
(134,-5,cs)
);
},
{
closed = 1;
nodes = (
(109,16,o),
(95,37,o),
(95,74,cs),
(95,111,o),
(109,132,o),
(134,132,cs),
(159,132,o),
(173,111,o),
(173,74,cs),
(173,37,o),
(159,16,o),
(134,16,cs)
);
}
);
width = 459;
},
{
anchors = (
{
name = bottom;
pos = (245,0);
},
{
name = bottomright;
pos = (435,0);
},
{
name = top;
pos = (245,608);
},
{
name = topright;
pos = (430,608);
},
{
name = yamakkan;
pos = (435,608);
}
);
layerId = "CACD10EA-8E27-4203-9979-86A2B0F7ED74";
shapes = (
{
closed = 1;
nodes = (
(192,-7,o),
(223,30,o),
(223,92,cs),
(223,151,o),
(194,191,o),
(152,191,cs),
(103,191,o),
(96,159,o),
(96,123,c),
(115,143,l),
(115,150,o),
(115,153,o),
(115,159,cs),
(115,215,o),
(149,248,o),
(204,248,cs),
(228,248,l),
(228,309,l),
(202,309,ls),
(156,309,o),
(130,344,o),
(130,396,cs),
(130,462,o),
(175,495,o),
(238,495,cs),
(318,495,o),
(357,443,o),
(357,355,cs),
(357,0,l),
(435,0,l),
(435,365,ls),
(435,485,o),
(364,561,o),
(237,561,cs),
(127,561,o),
(53,503,o),
(53,405,cs),
(53,314,o),
(108,285,o),
(136,280,c),
(136,278,l),
(103,269,o),
(50,229,o),
(50,124,cs),
(50,36,o),
(87,-7,o),
(141,-7,cs)
);
},
{
closed = 1;
nodes = (
(121,37,o),
(108,58,o),
(108,92,cs),
(108,126,o),
(121,147,o),
(143,147,cs),
(164,147,o),
(178,126,o),
(178,92,cs),
(178,58,o),
(164,37,o),
(143,37,cs)
);
}
);
width = 499;
},
{
anchors = (
{
name = bottom;
pos = (285,0);
},
{
name = bottomright;
pos = (529,0);
},
{
name = top;
pos = (285,608);
},
{
name = topright;
pos = (519,608);
},
{
name = yamakkan;
pos = (529,608);
}
);
layerId = "96C6A4AF-11F2-4EC9-996B-29C760E40A38";
shapes = (
{
closed = 1;
nodes = (
(231,-10,o),
(276,33,o),
(276,96,cs),
(276,158,o),
(239,202,o),
(186,202,cs),
(153,202,o),
(117,170,o),
(117,144,c),
(169,144,l),
(169,151,o),
(169,157,o),
(169,164,cs),
(169,213,o),
(200,243,o),
(261,243,cs),
(263,243,l),
(263,348,l),
(256,348,ls),
(228,348,o),
(210,363,o),
(210,388,cs),
(210,416,o),
(239,430,o),
(273,430,cs),
(331,430,o),
(357,397,o),
(357,342,cs),
(357,0,l),
(529,0,l),
(529,360,ls),
(529,493,o),
(436,576,o),
(272,576,cs),
(132,576,o),
(39,515,o),
(39,415,cs),
(39,337,o),
(88,298,o),
(130,292,c),
(130,287,l),
(83,270,o),
(35,227,o),
(35,133,cs),
(35,45,o),
(83,-10,o),
(163,-10,cs)
);
},
{
closed = 1;
nodes = (
(149,50,o),
(134,67,o),
(134,96,cs),
(134,125,o),
(149,142,o),
(173,142,cs),
(197,142,o),
(212,125,o),
(212,96,cs),
(212,67,o),
(197,50,o),
(173,50,cs)
);
}
);
width = 579;
}
);
metricLeft = "nyoNyung-lao";
metricRight = "doDek-lao";
subCategory = Spacing;
unicode = 3716;
},
{
glyphname = "gha-lao";
kernLeft = "gha-lao";
kernRight = "noNok-lao";
lastChange = "2023-01-11 12:17:52 +0000";
layers = (
{
anchors = (
{
name = bottom;
pos = (574,0);
},
{
name = bottomright;
pos = (813,0);
},
{
name = top;
pos = (666,608);
},
{
name = topright;
pos = (813,608);
},
{
name = yamakkan;
pos = (813,608);
}
);
layerId = "2CD50835-5B7E-4D2A-958C-2F579F79E971";
shapes = (
{
closed = 1;
nodes = (
(462,-8,o),
(538,54,o),
(538,153,c),
(526,98,l),
(538,98,l),
(526,153,l),
(526,54,o),
(580,-8,o),
(667,-8,cs),
(757,-8,o),
(813,54,o),
(813,153,cs),
(813,550,l),
(787,550,l),
(787,156,ls),
(787,69,o),
(742,17,o),
(666,17,cs),
(590,17,o),
(545,69,o),
(545,156,cs),
(545,540,l),
(519,540,l),
(519,156,ls),
(519,69,o),
(451,17,o),
(367,17,cs),
(288,17,o),
(228,63,o),
(228,134,cs),
(228,269,o),
(402,314,o),
(402,451,cs),
(402,515,o),
(365,558,o),
(310,558,cs),
(254,558,o),
(216,521,o),
(216,468,c),
(224,501,l),
(216,501,l),
(224,468,l),
(224,521,o),
(188,558,o),
(135,558,cs),
(75,558,o),
(40,508,o),
(40,423,cs),
(40,347,o),
(70,304,o),
(124,304,cs),
(172,304,o),
(199,332,o),
(199,380,cs),
(199,428,o),
(172,456,o),
(124,456,cs),
(83,456,o),
(51,425,o),
(51,385,c),
(63,418,l),
(63,492,o),
(90,533,o),
(138,533,cs),
(178,533,o),
(204,506,o),
(209,460,c),
(231,460,l),
(236,506,o),
(265,533,o),
(304,533,cs),
(350,533,o),
(375,504,o),
(375,451,cs),
(375,321,o),
(201,276,o),
(201,134,cs),
(201,45,o),
(273,-8,o),
(367,-8,cs)
);
},
{
closed = 1;
nodes = (
(91,327,o),
(72,347,o),
(72,380,cs),
(72,413,o),
(91,433,o),
(124,433,cs),
(157,433,o),
(176,413,o),
(176,380,cs),
(176,347,o),
(157,327,o),
(124,327,cs)
);
}
);
width = 917;
},
{
anchors = (
{
name = bottom;
pos = (598,0);
},
{
name = bottomright;
pos = (865,0);
},
{
name = top;
pos = (693,608);
},
{
name = topright;
pos = (870,608);
},
{
name = yamakkan;
pos = (870,608);
}
);
hints = (
{
horizontal = 1;
origin = (0,79);
target = (0,26);
type = Stem;
},
{
horizontal = 1;
origin = (0,13);
target = down;
type = TopGhost;
},
{
origin = (0,23);
target = (0,20);
type = Stem;
},
{
origin = (0,14);
target = (0,11);
type = Stem;
},
{
horizontal = 1;
origin = (0,44);
target = (0,63);
type = Stem;
}
);
layerId = "6E668239-F79A-4803-9842-9160852853A7";
shapes = (
{
closed = 1;
nodes = (
(506,-10,o),
(577,54,o),
(577,157,c),
(541,70,l),
(577,70,l),
(541,157,l),
(541,54,o),
(605,-10,o),
(707,-10,cs),
(807,-10,o),
(870,55,o),
(870,157,cs),
(870,553,l),
(784,553,l),
(784,172,ls),
(784,104,o),
(750,63,o),
(693,63,cs),
(636,63,o),
(602,104,o),
(602,172,cs),
(602,541,l),
(516,541,l),
(516,172,ls),
(516,104,o),
(472,63,o),
(398,63,cs),
(323,63,o),
(283,101,o),
(283,157,cs),
(283,267,o),
(425,315,o),
(425,446,cs),
(425,518,o),
(383,563,o),
(318,563,cs),
(257,563,o),
(215,522,o),
(215,459,c),
(237,513,l),
(215,513,l),
(237,459,l),
(237,522,o),
(194,563,o),
(134,563,cs),
(68,563,o),
(26,508,o),
(26,421,cs),
(26,336,o),
(62,288,o),
(125,288,cs),
(179,288,o),
(214,322,o),
(214,373,cs),
(214,424,o),
(180,457,o),
(129,457,cs),
(79,457,o),
(47,425,o),
(47,373,c),
(88,421,l),
(88,468,o),
(108,502,o),
(149,502,cs),
(177,502,o),
(199,484,o),
(204,448,c),
(247,448,l),
(252,484,o),
(274,502,o),
(300,502,cs),
(333,502,o),
(353,481,o),
(353,443,cs),
(353,335,o),
(196,284,o),
(196,145,cs),
(196,53,o),
(271,-10,o),
(393,-10,cs)
);
},
{
closed = 1;
nodes = (
(102,333,o),
(87,348,o),
(87,373,cs),
(87,399,o),
(102,415,o),
(126,415,cs),
(150,415,o),
(165,399,o),
(165,373,cs),
(165,347,o),
(151,333,o),
(126,333,cs)
);
}
);
width = 960;
},
{
anchors = (
{
name = bottom;
pos = (626,0);
},
{
name = bottomright;
pos = (957,0);
},
{
name = top;
pos = (728,608);
},
{
name = topright;
pos = (967,608);
},
{
name = yamakkan;
pos = (967,608);
}
);
layerId = "EC79AED6-C145-434E-AE62-F6F3D2AFA8D1";
shapes = (
{
closed = 1;
nodes = (
(537,-15,o),
(619,53,o),
(619,162,c),
(564,60,l),
(619,60,l),
(564,162,l),
(564,53,o),
(641,-15,o),
(766,-15,cs),
(890,-15,o),
(967,52,o),
(967,162,cs),
(967,563,l),
(781,563,l),
(781,192,ls),
(781,154,o),
(761,131,o),
(728,131,cs),
(694,131,o),
(674,154,o),
(674,192,cs),
(674,548,l),
(508,548,l),
(508,202,ls),
(508,158,o),
(482,131,o),
(438,131,cs),
(394,131,o),
(372,154,o),
(372,192,cs),
(372,257,o),
(462,330,o),
(462,444,cs),
(462,528,o),
(414,578,o),
(336,578,cs),
(266,578,o),
(216,538,o),
(216,462,c),
(248,531,l),
(216,531,l),
(248,462,l),
(248,538,o),
(198,578,o),
(128,578,cs),
(50,578,o),
(2,519,o),
(2,420,cs),
(2,326,o),
(47,272,o),
(126,272,cs),
(188,272,o),
(226,305,o),
(226,357,cs),
(226,400,o),
(189,434,o),
(142,434,cs),
(89,434,o),
(56,405,o),
(56,357,c),
(127,420,l),
(127,442,o),
(134,467,o),
(165,467,cs),
(184,467,o),
(202,458,o),
(206,437,c),
(258,437,l),
(262,458,o),
(277,467,o),
(291,467,cs),
(305,467,o),
(320,459,o),
(320,437,cs),
(320,372,o),
(185,292,o),
(185,163,cs),
(185,57,o),
(272,-15,o),
(407,-15,cs)
);
},
{
closed = 1;
nodes = (
(113,319,o),
(99,334,o),
(99,356,cs),
(99,378,o),
(113,393,o),
(135,393,cs),
(157,393,o),
(171,379,o),
(171,356,cs),
(171,333,o),
(158,319,o),
(135,319,cs)
);
}
);
width = 1033;
},
{
anchors = (
{
name = bottom;
pos = (412,0);
},
{
name = bottomright;
pos = (582,0);
},
{
name = top;
pos = (475,608);
},
{
name = topright;
pos = (582,608);
},
{
name = yamakkan;
pos = (582,608);
}
);
layerId = "FFE3C573-8034-42D7-BBA7-2D1C8826F1F5";
shapes = (
{
closed = 1;
nodes = (
(335,-8,o),
(385,48,o),
(385,138,c),
(374,83,l),
(385,83,l),
(374,138,l),
(374,48,o),
(414,-8,o),
(477,-8,cs),
(543,-8,o),
(582,47,o),
(582,138,cs),
(582,548,l),
(558,548,l),
(558,141,ls),
(558,60,o),
(528,15,o),
(475,15,cs),
(423,15,o),
(392,62,o),
(392,141,cs),
(392,538,l),
(368,538,l),
(368,141,ls),
(368,62,o),
(326,15,o),
(268,15,cs),
(204,15,o),
(166,62,o),
(166,133,cs),
(166,269,o),
(287,312,o),
(287,452,cs),
(287,521,o),
(260,556,o),
(221,556,cs),
(180,556,o),
(152,519,o),
(152,466,c),
(160,502,l),
(152,502,l),
(160,466,l),
(160,518,o),
(133,556,o),
(94,556,cs),
(50,556,o),
(24,512,o),
(24,421,cs),
(24,344,o),
(45,303,o),
(86,303,cs),
(121,303,o),
(143,333,o),
(143,379,cs),
(143,425,o),
(122,453,o),
(87,453,cs),
(57,453,o),
(35,423,o),
(35,383,c),
(46,416,l),
(46,496,o),
(62,533,o),
(95,533,cs),
(123,533,o),
(142,505,o),
(146,458,c),
(166,458,l),
(170,505,o),
(189,533,o),
(217,533,cs),
(245,533,o),
(263,508,o),
(263,452,cs),
(263,318,o),
(142,276,o),
(142,134,cs),
(142,50,o),
(187,-8,o),
(266,-8,cs)
);
},
{
closed = 1;
nodes = (
(63,324,o),
(51,343,o),
(51,379,cs),
(51,414,o),
(63,432,o),
(86,432,cs),
(110,432,o),
(123,413,o),
(123,379,cs),
(123,344,o),
(109,324,o),
(86,324,cs)
);
}
);
width = 652;
},
{
anchors = (
{
name = bottom;
pos = (446,0);
},
{
name = bottomright;
pos = (653,0);
},
{
name = top;
pos = (519,608);
},
{
name = topright;
pos = (658,608);
},
{
name = yamakkan;
pos = (658,608);
}
);
layerId = "CACD10EA-8E27-4203-9979-86A2B0F7ED74";
shapes = (
{
closed = 1;
nodes = (
(374,-10,o),
(430,50,o),
(430,146,c),
(403,66,l),
(430,66,l),
(403,146,l),
(403,51,o),
(453,-10,o),
(531,-10,cs),
(610,-10,o),
(658,49,o),
(658,146,cs),
(658,551,l),
(580,551,l),
(580,157,ls),
(580,92,o),
(557,56,o),
(517,56,cs),
(477,56,o),
(456,90,o),
(456,157,cs),
(456,540,l),
(378,540,l),
(378,157,ls),
(378,90,o),
(349,56,o),
(302,56,cs),
(250,56,o),
(223,95,o),
(223,153,cs),
(223,267,o),
(323,314,o),
(323,446,cs),
(323,517,o),
(289,561,o),
(239,561,cs),
(193,561,o),
(161,521,o),
(161,460,c),
(178,513,l),
(161,513,l),
(178,460,l),
(178,522,o),
(144,561,o),
(99,561,cs),
(48,561,o),
(16,507,o),
(16,420,cs),
(16,336,o),
(44,290,o),
(94,290,cs),
(137,290,o),
(164,322,o),
(164,373,cs),
(164,424,o),
(138,458,o),
(99,458,cs),
(61,458,o),
(39,427,o),
(39,374,c),
(72,420,l),
(72,470,o),
(84,505,o),
(113,505,cs),
(134,505,o),
(148,486,o),
(151,449,c),
(187,449,l),
(190,485,o),
(203,505,o),
(222,505,cs),
(244,505,o),
(258,484,o),
(258,443,cs),
(258,332,o),
(144,283,o),
(144,143,cs),
(144,52,o),
(203,-10,o),
(289,-10,cs)
);
},
{
closed = 1;
nodes = (
(77,330,o),
(66,346,o),
(66,374,cs),
(66,402,o),
(77,418,o),
(95,418,cs),
(113,418,o),
(124,402,o),
(124,374,cs),
(124,346,o),
(113,330,o),
(95,330,cs)
);
}
);
width = 722;
},
{
anchors = (
{
name = bottom;
pos = (515,0);
},
{
name = bottomright;
pos = (802,0);
},
{
name = top;
pos = (604,608);
},
{
name = topright;
pos = (812,608);
},
{
name = yamakkan;
pos = (812,608);
}
);
layerId = "96C6A4AF-11F2-4EC9-996B-29C760E40A38";
shapes = (
{
closed = 1;
nodes = (
(443,-15,o),
(517,50,o),
(517,154,c),
(467,56,l),
(517,56,l),
(467,154,l),
(467,50,o),
(534,-15,o),
(641,-15,cs),
(746,-15,o),
(812,50,o),
(812,154,cs),
(812,561,l),
(640,561,l),
(640,181,ls),
(640,148,o),
(628,131,o),
(604,131,cs),
(581,131,o),
(568,148,o),
(568,181,cs),
(568,547,l),
(416,547,l),
(416,184,ls),
(416,152,o),
(401,131,o),
(367,131,cs),
(336,131,o),
(319,153,o),
(319,186,cs),
(319,257,o),
(386,328,o),
(386,444,cs),
(386,527,o),
(345,576,o),
(279,576,cs),
(220,576,o),
(179,536,o),
(179,462,c),
(205,528,l),
(179,528,l),
(205,462,l),
(205,536,o),
(163,576,o),
(104,576,cs),
(38,576,o),
(-3,517,o),
(-3,420,cs),
(-3,326,o),
(35,274,o),
(104,274,cs),
(157,274,o),
(189,307,o),
(189,359,cs),
(189,406,o),
(161,438,o),
(120,438,cs),
(74,438,o),
(47,409,o),
(47,359,c),
(112,420,l),
(112,445,o),
(115,469,o),
(139,469,cs),
(151,469,o),
(165,463,o),
(169,439,c),
(215,439,l),
(218,462,o),
(227,469,o),
(237,469,cs),
(248,469,o),
(256,462,o),
(256,438,cs),
(256,367,o),
(148,290,o),
(148,160,cs),
(148,53,o),
(229,-15,o),
(343,-15,cs)
);
},
{
closed = 1;
nodes = (
(92,320,o),
(81,334,o),
(81,358,cs),
(81,381,o),
(92,396,o),
(110,396,cs),
(128,396,o),
(139,381,o),
(139,358,cs),
(139,334,o),
(128,320,o),
(110,320,cs)
);
}
);
width = 862;
}
);
metricRight = "doDek-lao";
subCategory = Spacing;
unicode = 3718;
},
{
glyphname = "ngoNgu-lao";
kernLeft = "ngoNgu-lao";
kernRight = "doDek-lao";
lastChange = "2023-01-11 12:18:05 +0000";
layers = (
{
anchors = (
{
name = bottom;
pos = (233,-200);
},
{
name = bottomright;
pos = (434,-190);
},
{
name = top;
pos = (233,608);
},
{
name = topright;
pos = (414,608);
},
{
name = yamakkan;
pos = (434,608);
}
);
layerId = "2CD50835-5B7E-4D2A-958C-2F579F79E971";
shapes = (
{
closed = 1;
nodes = (
(434,374,ls),
(434,486,o),
(360,558,o),
(243,558,cs),
(125,558,o),
(52,494,o),
(52,405,cs),
(52,347,o),
(85,316,o),
(134,316,cs),
(184,316,o),
(216,348,o),
(216,396,cs),
(216,444,o),
(184,475,o),
(136,475,cs),
(89,475,o),
(60,445,o),
(60,393,c),
(69,379,l),
(69,476,o),
(134,533,o),
(241,533,cs),
(343,533,o),
(408,469,o),
(408,369,cs),
(408,19,ls),
(408,-87,o),
(341,-155,o),
(237,-155,cs),
(162,-155,o),
(120,-135,o),
(70,-102,c),
(59,-123,l),
(107,-160,o),
(162,-180,o),
(237,-180,cs),
(357,-180,o),
(434,-104,o),
(434,14,cs)
);
},
{
closed = 1;
nodes = (
(99,339,o),
(77,361,o),
(77,396,cs),
(77,431,o),
(99,453,o),
(134,453,cs),
(169,453,o),
(191,431,o),
(191,396,cs),
(191,361,o),
(169,339,o),
(134,339,cs)
);
}
);
width = 538;
},
{
anchors = (
{
name = bottom;
pos = (231,-190);
},
{
name = bottomright;
pos = (452,-180);
},
{
name = top;
pos = (240,608);
},
{
name = topright;
pos = (457,608);
},
{
name = yamakkan;
pos = (457,608);
}
);
hints = (
{
horizontal = 1;
origin = (0,36);
target = (0,29);
type = Stem;
},
{
horizontal = 1;
origin = (0,3);
target = (0,22);
type = Stem;
},
{
origin = (0,26);
target = (0,39);
type = Stem;
}
);
layerId = "6E668239-F79A-4803-9842-9160852853A7";
shapes = (
{
closed = 1;
nodes = (
(457,368,ls),
(457,487,o),
(369,563,o),
(234,563,cs),
(107,563,o),
(23,498,o),
(23,396,cs),
(23,321,o),
(67,278,o),
(132,278,cs),
(193,278,o),
(235,316,o),
(235,372,cs),
(235,428,o),
(193,468,o),
(136,468,cs),
(78,468,o),
(37,429,o),
(37,373,c),
(76,364,l),
(76,441,o),
(134,490,o),
(224,490,cs),
(314,490,o),
(371,437,o),
(371,354,cs),
(371,30,ls),
(371,-53,o),
(309,-107,o),
(213,-107,cs),
(155,-107,o),
(110,-88,o),
(67,-63,c),
(34,-127,l),
(79,-161,o),
(149,-180,o),
(221,-180,cs),
(365,-180,o),
(457,-103,o),
(457,16,cs)
);
},
{
closed = 1;
nodes = (
(102,323,o),
(84,341,o),
(84,373,cs),
(84,404,o),
(102,423,o),
(133,423,cs),
(164,423,o),
(182,405,o),
(182,373,cs),
(182,341,o),
(164,323,o),
(133,323,cs)
);
}
);
width = 547;
},
{
anchors = (
{
name = bottom;
pos = (272,-192);
},
{
name = bottomright;
pos = (513,-182);
},
{
name = top;
pos = (263,608);
},
{
name = topright;
pos = (525,608);
},
{
name = yamakkan;
pos = (523,608);
}
);
layerId = "EC79AED6-C145-434E-AE62-F6F3D2AFA8D1";
shapes = (
{
closed = 1;
nodes = (
(523,362,ls),
(523,494,o),
(421,578,o),
(261,578,cs),
(107,578,o),
(9,508,o),
(9,398,cs),
(9,317,o),
(58,267,o),
(136,267,cs),
(207,267,o),
(250,307,o),
(250,372,cs),
(250,437,o),
(207,477,o),
(144,477,cs),
(81,477,o),
(37,434,o),
(37,372,c),
(82,364,l),
(82,422,o),
(132,456,o),
(210,456,cs),
(288,456,o),
(337,418,o),
(337,354,cs),
(337,76,ls),
(337,8,o),
(287,-36,o),
(208,-36,cs),
(158,-36,o),
(118,-21,o),
(83,-2,c),
(19,-129,l),
(71,-164,o),
(152,-182,o),
(244,-182,cs),
(414,-182,o),
(523,-94,o),
(523,44,cs)
);
},
{
closed = 1;
nodes = (
(109,326,o),
(90,344,o),
(90,372,cs),
(90,400,o),
(109,418,o),
(138,418,cs),
(167,418,o),
(186,400,o),
(186,372,cs),
(186,344,o),
(167,326,o),
(138,326,cs)
);
}
);
width = 589;
},
{
anchors = (
{
name = bottom;
pos = (175,-200);
},
{
name = bottomright;
pos = (310,-190);
},
{
name = top;
pos = (166,608);
},
{
name = topright;
pos = (297,608);
},
{
name = yamakkan;
pos = (310,608);
}
);
layerId = "FFE3C573-8034-42D7-BBA7-2D1C8826F1F5";
shapes = (
{
closed = 1;
nodes = (
(310,387,ls),
(310,492,o),
(256,556,o),
(171,556,cs),
(87,556,o),
(34,492,o),
(34,403,cs),
(34,345,o),
(58,315,o),
(95,315,cs),
(132,315,o),
(157,346,o),
(157,395,cs),
(157,442,o),
(132,472,o),
(96,472,cs),
(61,472,o),
(40,442,o),
(40,391,c),
(49,377,l),
(49,474,o),
(95,533,o),
(169,533,cs),
(240,533,o),
(286,482,o),
(286,382,cs),
(286,8,ls),
(286,-95,o),
(242,-156,o),
(166,-156,cs),
(117,-156,o),
(88,-138,o),
(53,-103,c),
(40,-123,l),
(74,-160,o),
(114,-180,o),
(167,-180,cs),
(256,-180,o),
(310,-110,o),
(310,4,cs)
);
},
{
closed = 1;
nodes = (
(70,336,o),
(55,357,o),
(55,394,cs),
(55,431,o),
(70,452,o),
(95,452,cs),
(120,452,o),
(135,431,o),
(135,394,cs),
(135,357,o),
(120,336,o),
(95,336,cs)
);
}
);
width = 380;
},
{
anchors = (
{
name = bottom;
pos = (187,-190);
},
{
name = bottomright;
pos = (346,-180);
},
{
name = top;
pos = (183,608);
},
{
name = topright;
pos = (348,608);
},
{
name = yamakkan;
pos = (351,608);
}
);
layerId = "CACD10EA-8E27-4203-9979-86A2B0F7ED74";
shapes = (
{
closed = 1;
nodes = (
(351,378,ls),
(351,493,o),
(282,561,o),
(178,561,cs),
(78,561,o),
(13,496,o),
(13,396,cs),
(13,324,o),
(47,280,o),
(100,280,cs),
(148,280,o),
(179,321,o),
(179,375,cs),
(179,431,o),
(148,469,o),
(105,469,cs),
(62,469,o),
(32,431,o),
(32,375,c),
(59,371,l),
(59,446,o),
(100,495,o),
(166,495,cs),
(231,495,o),
(273,447,o),
(273,365,cs),
(273,20,ls),
(273,-67,o),
(235,-114,o),
(165,-114,cs),
(119,-114,o),
(91,-95,o),
(57,-69,c),
(26,-126,l),
(61,-161,o),
(115,-180,o),
(172,-180,cs),
(284,-180,o),
(351,-110,o),
(351,8,cs)
);
},
{
closed = 1;
nodes = (
(80,321,o),
(67,341,o),
(67,375,cs),
(67,409,o),
(80,429,o),
(101,429,cs),
(122,429,o),
(135,409,o),
(135,375,cs),
(135,341,o),
(122,321,o),
(101,321,cs)
);
}
);
width = 415;
},
{
anchors = (
{
name = bottom;
pos = (227,-192);
},
{
name = bottomright;
pos = (431,-182);
},
{
name = top;
pos = (220,608);
},
{
name = topright;
pos = (445,608);
},
{
name = yamakkan;
pos = (441,608);
}
);
layerId = "96C6A4AF-11F2-4EC9-996B-29C760E40A38";
shapes = (
{
closed = 1;
nodes = (
(441,364,ls),
(441,493,o),
(353,576,o),
(217,576,cs),
(87,576,o),
(3,507,o),
(3,398,cs),
(3,318,o),
(45,269,o),
(113,269,cs),
(173,269,o),
(212,309,o),
(212,372,cs),
(212,435,o),
(173,476,o),
(120,476,cs),
(66,476,o),
(28,433,o),
(28,372,c),
(70,364,l),
(70,419,o),
(109,451,o),
(174,451,cs),
(241,451,o),
(269,417,o),
(269,360,cs),
(269,64,ls),
(269,0,o),
(235,-36,o),
(172,-36,cs),
(131,-36,o),
(97,-20,o),
(70,-1,c),
(14,-129,l),
(55,-162,o),
(121,-182,o),
(201,-182,cs),
(347,-182,o),
(441,-95,o),
(441,39,cs)
);
},
{
closed = 1;
nodes = (
(91,326,o),
(76,343,o),
(76,373,cs),
(76,403,o),
(91,420,o),
(115,420,cs),
(139,420,o),
(154,403,o),
(154,373,cs),
(154,343,o),
(139,326,o),
(115,326,cs)
);
}
);
width = 491;
}
);
metricRight = "doDek-lao";
subCategory = Spacing;
unicode = 3719;
},
{
glyphname = "ngoNgu-lao.short";
kernLeft = "ngoNgu-lao";
kernRight = "doDek-lao";
lastChange = "2023-01-11 12:18:16 +0000";
layers = (
{
anchors = (
{
name = bottom;
pos = (233,-160);
},
{
name = bottomright;
pos = (434,-150);
},
{
name = top;
pos = (233,608);
},
{
name = topright;
pos = (414,608);
},
{
name = yamakkan;
pos = (434,608);
}
);
layerId = "2CD50835-5B7E-4D2A-958C-2F579F79E971";
shapes = (
{
closed = 1;
nodes = (
(434,374,ls),
(434,486,o),
(360,558,o),
(243,558,cs),
(125,558,o),
(52,494,o),
(52,405,cs),
(52,347,o),
(85,316,o),
(134,316,cs),
(184,316,o),
(216,348,o),
(216,396,cs),
(216,444,o),
(184,475,o),
(136,475,cs),
(89,475,o),
(60,445,o),
(60,393,c),
(69,379,l),
(69,476,o),
(134,533,o),
(241,533,cs),
(343,533,o),
(408,469,o),
(408,369,cs),
(408,59,ls),
(408,-47,o),
(341,-115,o),
(237,-115,cs),
(162,-115,o),
(120,-95,o),
(70,-62,c),
(59,-83,l),
(107,-120,o),
(162,-140,o),
(237,-140,cs),
(357,-140,o),
(434,-64,o),
(434,54,cs)
);
},
{
closed = 1;
nodes = (
(99,339,o),
(77,361,o),
(77,396,cs),
(77,431,o),
(99,453,o),
(134,453,cs),
(169,453,o),
(191,431,o),
(191,396,cs),
(191,361,o),
(169,339,o),
(134,339,cs)
);
}
);
width = 538;
},
{
anchors = (
{
name = bottom;
pos = (231,-145);
},
{
name = bottomright;
pos = (452,-135);
},
{
name = top;
pos = (240,608);
},
{
name = topright;
pos = (457,608);
},
{
name = yamakkan;
pos = (457,608);
}
);
hints = (
{
horizontal = 1;
origin = (0,36);
target = (0,29);
type = Stem;
},
{
horizontal = 1;
origin = (0,3);
target = (0,22);
type = Stem;
},
{
origin = (0,26);
target = (0,39);
type = Stem;
}
);
layerId = "6E668239-F79A-4803-9842-9160852853A7";
shapes = (
{
closed = 1;
nodes = (
(457,368,ls),
(457,487,o),
(369,563,o),
(234,563,cs),
(107,563,o),
(23,498,o),
(23,396,cs),
(23,321,o),
(67,278,o),
(132,278,cs),
(193,278,o),
(235,316,o),
(235,372,cs),
(235,428,o),
(193,468,o),
(136,468,cs),
(78,468,o),
(37,429,o),
(37,373,c),
(76,364,l),
(76,441,o),
(134,490,o),
(224,490,cs),
(314,490,o),
(371,437,o),
(371,354,cs),
(371,70,ls),
(371,-13,o),
(309,-67,o),
(213,-67,cs),
(155,-67,o),
(110,-48,o),
(67,-23,c),
(34,-87,l),
(79,-121,o),
(149,-140,o),
(221,-140,cs),
(365,-140,o),
(457,-63,o),
(457,56,cs)
);
},
{
closed = 1;
nodes = (
(102,323,o),
(84,341,o),
(84,373,cs),
(84,404,o),
(102,423,o),
(133,423,cs),
(164,423,o),
(182,405,o),
(182,373,cs),
(182,341,o),
(164,323,o),
(133,323,cs)
);
}
);
width = 547;
},
{
anchors = (
{
name = bottom;
pos = (272,-152);
},
{
name = bottomright;
pos = (513,-142);
},
{
name = top;
pos = (263,608);
},
{
name = topright;
pos = (525,608);
},
{
name = yamakkan;
pos = (523,608);
}
);
layerId = "EC79AED6-C145-434E-AE62-F6F3D2AFA8D1";
shapes = (
{
closed = 1;
nodes = (
(523,362,ls),
(523,494,o),
(421,578,o),
(261,578,cs),
(107,578,o),
(9,508,o),
(9,398,cs),
(9,317,o),
(58,267,o),
(136,267,cs),
(207,267,o),
(250,307,o),
(250,372,cs),
(250,437,o),
(207,477,o),
(144,477,cs),
(81,477,o),
(37,434,o),
(37,372,c),
(82,364,l),
(82,422,o),
(132,456,o),
(210,456,cs),
(288,456,o),
(337,418,o),
(337,354,cs),
(337,116,ls),
(337,48,o),
(287,4,o),
(208,4,cs),
(158,4,o),
(118,19,o),
(83,38,c),
(19,-89,l),
(71,-124,o),
(152,-142,o),
(244,-142,cs),
(414,-142,o),
(523,-54,o),
(523,84,cs)
);
},
{
closed = 1;
nodes = (
(109,326,o),
(90,344,o),
(90,372,cs),
(90,400,o),
(109,418,o),
(138,418,cs),
(167,418,o),
(186,400,o),
(186,372,cs),
(186,344,o),
(167,326,o),
(138,326,cs)
);
}
);
width = 589;
},
{
anchors = (
{
name = bottom;
pos = (175,-160);
},
{
name = bottomright;
pos = (310,-150);
},
{
name = top;
pos = (166,608);
},
{
name = topright;
pos = (297,608);
},
{
name = yamakkan;
pos = (310,608);
}
);
layerId = "FFE3C573-8034-42D7-BBA7-2D1C8826F1F5";
shapes = (
{
closed = 1;
nodes = (
(310,387,ls),
(310,492,o),
(256,556,o),
(171,556,cs),
(87,556,o),
(34,492,o),
(34,403,cs),
(34,345,o),
(58,315,o),
(95,315,cs),
(132,315,o),
(157,346,o),
(157,395,cs),
(157,442,o),
(132,472,o),
(96,472,cs),
(61,472,o),
(40,442,o),
(40,391,c),
(49,377,l),
(49,474,o),
(95,533,o),
(169,533,cs),
(240,533,o),
(286,482,o),
(286,382,cs),
(286,48,ls),
(286,-55,o),
(242,-116,o),
(166,-116,cs),
(117,-116,o),
(88,-98,o),
(53,-63,c),
(40,-83,l),
(74,-120,o),
(114,-140,o),
(167,-140,cs),
(256,-140,o),
(310,-70,o),
(310,44,cs)
);
},
{
closed = 1;
nodes = (
(70,336,o),
(55,357,o),
(55,394,cs),
(55,431,o),
(70,452,o),
(95,452,cs),
(120,452,o),
(135,431,o),
(135,394,cs),
(135,357,o),
(120,336,o),
(95,336,cs)
);
}
);
width = 380;
},
{
anchors = (
{
name = bottom;
pos = (187,-145);
},
{
name = bottomright;
pos = (346,-135);
},
{
name = top;
pos = (183,608);
},
{
name = topright;
pos = (348,608);
},
{
name = yamakkan;
pos = (351,608);
}
);
layerId = "CACD10EA-8E27-4203-9979-86A2B0F7ED74";
shapes = (
{
closed = 1;
nodes = (
(351,378,ls),
(351,493,o),
(282,561,o),
(178,561,cs),
(78,561,o),
(13,496,o),
(13,396,cs),
(13,324,o),
(47,280,o),
(100,280,cs),
(148,280,o),
(179,321,o),
(179,375,cs),
(179,431,o),
(148,469,o),
(105,469,cs),
(62,469,o),
(32,431,o),
(32,375,c),
(59,371,l),
(59,446,o),
(100,495,o),
(166,495,cs),
(231,495,o),
(273,447,o),
(273,365,cs),
(273,60,ls),
(273,-27,o),
(235,-74,o),
(165,-74,cs),
(119,-74,o),
(91,-55,o),
(57,-29,c),
(26,-86,l),
(61,-121,o),
(115,-140,o),
(172,-140,cs),
(284,-140,o),
(351,-70,o),
(351,48,cs)
);
},
{
closed = 1;
nodes = (
(80,321,o),
(67,341,o),
(67,375,cs),
(67,409,o),
(80,429,o),
(101,429,cs),
(122,429,o),
(135,409,o),
(135,375,cs),
(135,341,o),
(122,321,o),
(101,321,cs)
);
}
);
width = 415;
},
{
anchors = (
{
name = bottom;
pos = (227,-152);
},
{
name = bottomright;
pos = (431,-142);
},
{
name = top;
pos = (220,608);
},
{
name = topright;
pos = (445,608);
},
{
name = yamakkan;
pos = (441,608);
}
);
layerId = "96C6A4AF-11F2-4EC9-996B-29C760E40A38";
shapes = (
{
closed = 1;
nodes = (
(441,364,ls),
(441,493,o),
(353,576,o),
(217,576,cs),
(87,576,o),
(3,507,o),
(3,398,cs),
(3,318,o),
(45,269,o),
(113,269,cs),
(173,269,o),
(212,309,o),
(212,372,cs),
(212,435,o),
(173,476,o),
(120,476,cs),
(66,476,o),
(28,433,o),
(28,372,c),
(70,364,l),
(70,419,o),
(109,451,o),
(174,451,cs),
(241,451,o),
(269,417,o),
(269,360,cs),
(269,104,ls),
(269,40,o),
(235,4,o),
(172,4,cs),
(131,4,o),
(97,20,o),
(70,39,c),
(14,-89,l),
(55,-122,o),
(121,-142,o),
(201,-142,cs),
(347,-142,o),
(441,-55,o),
(441,79,cs)
);
},
{
closed = 1;
nodes = (
(91,326,o),
(76,343,o),
(76,373,cs),
(76,403,o),
(91,420,o),
(115,420,cs),
(139,420,o),
(154,403,o),
(154,373,cs),
(154,343,o),
(139,326,o),
(115,326,cs)
);
}
);
width = 491;
}
);
metricRight = "doDek-lao";
subCategory = Spacing;
},
{
glyphname = "coCok-lao";
kernLeft = "coCok-lao";
kernRight = "woWi-lao";
lastChange = "2023-01-11 12:18:26 +0000";
layers = (
{
anchors = (
{
name = bottom;
pos = (352,0);
},
{
name = bottomright;
pos = (469,0);
},
{
name = top;
pos = (271,608);
},
{
name = topright;
pos = (469,608);
},
{
name = yamakkan;
pos = (469,608);
}
);
layerId = "2CD50835-5B7E-4D2A-958C-2F579F79E971";
shapes = (
{
closed = 1;
nodes = (
(430,-8,o),
(469,34,o),
(469,103,cs),
(469,369,ls),
(469,485,o),
(380,558,o),
(239,558,cs),
(165,558,o),
(83,539,o),
(24,500,c),
(34,478,l),
(90,515,o),
(167,533,o),
(238,533,cs),
(366,533,o),
(443,470,o),
(443,364,cs),
(443,106,ls),
(443,51,o),
(414,17,o),
(366,17,cs),
(317,17,o),
(289,48,o),
(289,102,cs),
(289,267,ls),
(289,317,o),
(256,350,o),
(207,350,cs),
(157,350,o),
(124,318,o),
(124,270,cs),
(124,223,o),
(156,190,o),
(203,190,cs),
(251,190,o),
(281,221,o),
(281,270,c),
(277,270,l),
(277,251,o),
(268,230,o),
(263,230,c),
(263,99,ls),
(263,33,o),
(303,-8,o),
(366,-8,cs)
);
},
{
closed = 1;
nodes = (
(170,213,o),
(149,235,o),
(149,270,cs),
(149,305,o),
(170,327,o),
(205,327,cs),
(240,327,o),
(261,305,o),
(261,270,cs),
(261,235,o),
(240,213,o),
(205,213,cs)
);
}
);
width = 568;
},
{
anchors = (
{
name = bottom;
pos = (361,0);
},
{
name = bottomright;
pos = (505,0);
},
{
name = top;
pos = (273,608);
},
{
name = topright;
pos = (505,608);
},
{
name = yamakkan;
pos = (510,608);
}
);
hints = (
{
horizontal = 1;
origin = (0,44);
target = (0,20);
type = Stem;
},
{
horizontal = 1;
origin = (0,6);
target = (0,13);
type = Stem;
},
{
origin = (0,17);
target = (0,2);
type = Stem;
}
);
layerId = "6E668239-F79A-4803-9842-9160852853A7";
shapes = (
{
closed = 1;
nodes = (
(454,-10,o),
(510,39,o),
(510,119,cs),
(510,363,ls),
(510,486,o),
(409,563,o),
(247,563,cs),
(166,563,o),
(84,544,o),
(21,506,c),
(48,438,l),
(102,473,o),
(171,490,o),
(237,490,cs),
(354,490,o),
(424,437,o),
(424,349,cs),
(424,124,ls),
(424,85,o),
(404,63,o),
(369,63,cs),
(335,63,o),
(317,83,o),
(317,118,cs),
(317,263,ls),
(317,324,o),
(277,363,o),
(213,363,cs),
(150,363,o),
(109,324,o),
(109,263,cs),
(109,205,o),
(148,165,o),
(205,165,cs),
(272,165,o),
(311,201,o),
(311,264,c),
(298,264,l),
(298,232,o),
(260,191,o),
(233,191,c),
(233,113,ls),
(233,36,o),
(282,-10,o),
(363,-10,cs)
);
},
{
closed = 1;
nodes = (
(182,213,o),
(163,232,o),
(163,264,cs),
(163,296,o),
(182,315,o),
(213,315,cs),
(244,315,o),
(263,296,o),
(263,264,cs),
(263,232,o),
(244,213,o),
(213,213,cs)
);
}
);
width = 595;
},
{
anchors = (
{
name = bottom;
pos = (354,0);
},
{
name = bottomright;
pos = (563,0);
},
{
name = top;
pos = (303,608);
},
{
name = topright;
pos = (563,608);
},
{
name = yamakkan;
pos = (573,608);
}
);
layerId = "EC79AED6-C145-434E-AE62-F6F3D2AFA8D1";
shapes = (
{
closed = 1;
nodes = (
(501,-15,o),
(573,46,o),
(573,164,cs),
(573,363,ls),
(573,496,o),
(451,578,o),
(252,578,cs),
(161,578,o),
(76,561,o),
(6,525,c),
(47,388,l),
(104,417,o),
(169,432,o),
(234,432,cs),
(331,432,o),
(387,396,o),
(387,333,cs),
(387,147,ls),
(387,125,o),
(375,113,o),
(355,113,cs),
(333,113,o),
(322,124,o),
(322,144,cs),
(322,243,ls),
(322,312,o),
(266,359,o),
(185,359,cs),
(107,359,o),
(55,319,o),
(55,257,cs),
(55,194,o),
(109,153,o),
(178,153,cs),
(266,153,o),
(312,191,o),
(312,243,c),
(289,243,l),
(289,209,o),
(241,189,o),
(159,189,c),
(159,109,ls),
(159,35,o),
(241,-15,o),
(361,-15,cs)
);
},
{
closed = 1;
nodes = (
(138,212,o),
(120,229,o),
(120,257,cs),
(120,285,o),
(138,302,o),
(168,302,cs),
(198,302,o),
(216,285,o),
(216,257,cs),
(216,229,o),
(198,212,o),
(168,212,cs)
);
}
);
width = 634;
},
{
anchors = (
{
name = bottom;
pos = (256,0);
},
{
name = bottomright;
pos = (337,0);
},
{
name = top;
pos = (192,608);
},
{
name = topright;
pos = (337,608);
},
{
name = yamakkan;
pos = (337,608);
}
);
layerId = "FFE3C573-8034-42D7-BBA7-2D1C8826F1F5";
shapes = (
{
closed = 1;
nodes = (
(309,-8,o),
(337,29,o),
(337,92,cs),
(337,387,ls),
(337,492,o),
(274,556,o),
(171,556,cs),
(119,556,o),
(59,537,o),
(17,498,c),
(26,477,l),
(65,514,o),
(119,533,o),
(169,533,cs),
(261,533,o),
(313,478,o),
(313,382,cs),
(313,95,ls),
(313,45,o),
(293,15,o),
(260,15,cs),
(227,15,o),
(208,42,o),
(208,91,cs),
(208,269,ls),
(208,318,o),
(184,350,o),
(146,350,cs),
(109,350,o),
(85,319,o),
(85,270,cs),
(85,223,o),
(109,192,o),
(145,192,cs),
(181,192,o),
(200,224,o),
(200,270,c),
(197,270,l),
(197,252,o),
(190,231,o),
(184,231,c),
(184,89,ls),
(184,28,o),
(212,-8,o),
(260,-8,cs)
);
},
{
closed = 1;
nodes = (
(121,213,o),
(107,234,o),
(107,271,cs),
(107,308,o),
(121,329,o),
(146,329,cs),
(171,329,o),
(185,308,o),
(185,271,cs),
(185,234,o),
(171,213,o),
(146,213,cs)
);
}
);
width = 406;
},
{
anchors = (
{
name = bottom;
pos = (270,0);
},
{
name = bottomright;
pos = (380,0);
},
{
name = top;
pos = (203,608);
},
{
name = topright;
pos = (380,608);
},
{
name = yamakkan;
pos = (385,608);
}
);
layerId = "CACD10EA-8E27-4203-9979-86A2B0F7ED74";
shapes = (
{
closed = 1;
nodes = (
(344,-10,o),
(385,29,o),
(385,100,cs),
(385,371,ls),
(385,489,o),
(309,561,o),
(182,561,cs),
(120,561,o),
(60,542,o),
(12,504,c),
(33,443,l),
(73,478,o),
(124,495,o),
(174,495,cs),
(259,495,o),
(307,445,o),
(307,358,cs),
(307,104,ls),
(307,72,o),
(294,56,o),
(269,56,cs),
(244,56,o),
(231,72,o),
(231,104,cs),
(231,264,ls),
(231,323,o),
(203,362,o),
(150,362,cs),
(99,362,o),
(68,325,o),
(68,263,cs),
(68,204,o),
(97,164,o),
(139,164,cs),
(188,164,o),
(224,202,o),
(224,266,c),
(213,266,l),
(213,236,o),
(182,196,o),
(159,196,c),
(159,100,ls),
(159,32,o),
(200,-10,o),
(268,-10,cs)
);
},
{
closed = 1;
nodes = (
(127,208,o),
(113,229,o),
(113,263,cs),
(113,297,o),
(127,318,o),
(148,318,cs),
(170,318,o),
(183,297,o),
(183,263,cs),
(183,229,o),
(170,208,o),
(148,208,cs)
);
}
);
width = 441;
},
{
anchors = (
{
name = bottom;
pos = (293,0);
},
{
name = bottomright;
pos = (473,0);
},
{
name = top;
pos = (244,608);
},
{
name = topright;
pos = (473,608);
},
{
name = yamakkan;
pos = (483,608);
}
);
layerId = "96C6A4AF-11F2-4EC9-996B-29C760E40A38";
shapes = (
{
closed = 1;
nodes = (
(421,-15,o),
(483,42,o),
(483,156,cs),
(483,364,ls),
(483,496,o),
(380,576,o),
(209,576,cs),
(133,576,o),
(62,559,o),
(3,522,c),
(40,395,l),
(87,418,o),
(140,430,o),
(192,430,cs),
(269,430,o),
(311,399,o),
(311,341,cs),
(311,141,ls),
(311,124,o),
(304,115,o),
(289,115,cs),
(275,115,o),
(268,123,o),
(268,141,cs),
(268,246,ls),
(268,314,o),
(219,360,o),
(149,360,cs),
(82,360,o),
(37,320,o),
(37,258,cs),
(37,195,o),
(84,155,o),
(143,155,cs),
(217,155,o),
(259,193,o),
(259,246,c),
(239,246,l),
(239,212,o),
(195,189,o),
(118,189,c),
(118,108,ls),
(118,34,o),
(188,-15,o),
(296,-15,cs)
);
},
{
closed = 1;
nodes = (
(109,213,o),
(94,230,o),
(94,259,cs),
(94,288,o),
(109,305,o),
(133,305,cs),
(157,305,o),
(172,288,o),
(172,259,cs),
(172,230,o),
(157,213,o),
(133,213,cs)
);
}
);
width = 529;
}
);
metricRight = "oO-lao";
subCategory = Spacing;
unicode = 3720;
},
{
glyphname = "coCok-lao.ss01";
kernLeft = "coCok-lao";
kernRight = "woWi-lao";
lastChange = "2023-01-11 12:18:37 +0000";
layers = (
{
anchors = (
{
name = bottom;
pos = (352,0);
},
{
name = bottomright;
pos = (469,0);
},
{
name = top;
pos = (271,608);
},
{
name = topright;
pos = (469,608);
},
{
name = yamakkan;
pos = (469,608);
}
);
layerId = "2CD50835-5B7E-4D2A-958C-2F579F79E971";
shapes = (
{
closed = 1;
nodes = (
(430,-8,o),
(469,34,o),
(469,103,cs),
(469,369,ls),
(469,485,o),
(380,558,o),
(239,558,cs),
(165,558,o),
(83,539,o),
(24,500,c),
(34,478,l),
(90,515,o),
(167,533,o),
(238,533,cs),
(366,533,o),
(443,470,o),
(443,364,cs),
(443,106,ls),
(443,51,o),
(413,17,o),
(364,17,cs),
(317,17,o),
(289,45,o),
(289,94,cs),
(289,144,o),
(309,223,o),
(309,266,cs),
(309,317,o),
(276,350,o),
(227,350,cs),
(177,350,o),
(144,318,o),
(144,270,cs),
(144,223,o),
(176,190,o),
(223,190,cs),
(271,190,o),
(301,221,o),
(301,270,c),
(277,220,l),
(277,195,o),
(262,136,o),
(262,91,cs),
(262,31,o),
(302,-8,o),
(364,-8,cs)
);
},
{
closed = 1;
nodes = (
(190,213,o),
(169,235,o),
(169,270,cs),
(169,305,o),
(190,327,o),
(225,327,cs),
(260,327,o),
(281,305,o),
(281,269,cs),
(281,235,o),
(260,213,o),
(225,213,cs)
);
}
);
width = 568;
},
{
anchors = (
{
name = bottom;
pos = (361,0);
},
{
name = bottomright;
pos = (505,0);
},
{
name = top;
pos = (273,608);
},
{
name = topright;
pos = (505,608);
},
{
name = yamakkan;
pos = (510,608);
}
);
hints = (
{
horizontal = 1;
origin = (0,45);
target = (0,20);
type = Stem;
},
{
horizontal = 1;
origin = (0,6);
target = (0,13);
type = Stem;
},
{
origin = (0,17);
target = (0,2);
type = Stem;
}
);
layerId = "6E668239-F79A-4803-9842-9160852853A7";
shapes = (
{
closed = 1;
nodes = (
(456,-10,o),
(510,39,o),
(510,119,cs),
(510,363,ls),
(510,486,o),
(409,563,o),
(247,563,cs),
(166,563,o),
(84,544,o),
(21,506,c),
(48,438,l),
(102,473,o),
(171,490,o),
(237,490,cs),
(354,490,o),
(424,437,o),
(424,349,cs),
(424,124,ls),
(424,84,o),
(403,62,o),
(367,62,cs),
(332,62,o),
(311,83,o),
(311,119,cs),
(311,163,o),
(332,220,o),
(332,269,cs),
(332,327,o),
(290,363,o),
(225,363,cs),
(162,363,o),
(121,324,o),
(121,263,cs),
(121,205,o),
(160,165,o),
(217,165,cs),
(284,165,o),
(323,201,o),
(323,264,c),
(237,196,l),
(237,181,o),
(227,139,o),
(227,109,cs),
(227,36,o),
(281,-10,o),
(368,-10,cs)
);
},
{
closed = 1;
nodes = (
(194,213,o),
(175,232,o),
(175,264,cs),
(175,296,o),
(194,315,o),
(225,315,cs),
(256,315,o),
(275,296,o),
(275,264,cs),
(275,232,o),
(256,213,o),
(225,213,cs)
);
}
);
width = 595;
},
{
anchors = (
{
name = bottom;
pos = (354,0);
},
{
name = bottomright;
pos = (563,0);
},
{
name = top;
pos = (303,608);
},
{
name = topright;
pos = (563,608);
},
{
name = yamakkan;
pos = (573,608);
}
);
layerId = "EC79AED6-C145-434E-AE62-F6F3D2AFA8D1";
shapes = (
{
closed = 1;
nodes = (
(501,-15,o),
(573,46,o),
(573,164,cs),
(573,363,ls),
(573,496,o),
(451,578,o),
(252,578,cs),
(161,578,o),
(76,561,o),
(6,525,c),
(47,388,l),
(104,417,o),
(169,432,o),
(234,432,cs),
(331,432,o),
(387,396,o),
(387,333,cs),
(387,148,ls),
(387,125,o),
(375,113,o),
(353,113,cs),
(332,113,o),
(320,125,o),
(320,145,cs),
(320,173,o),
(332,221,o),
(332,259,cs),
(332,322,o),
(277,359,o),
(198,359,cs),
(120,359,o),
(68,319,o),
(68,257,cs),
(68,194,o),
(122,153,o),
(191,153,cs),
(279,153,o),
(325,191,o),
(325,243,c),
(170,189,l),
(170,174,o),
(158,148,o),
(158,119,cs),
(158,36,o),
(237,-15,o),
(363,-15,cs)
);
},
{
closed = 1;
nodes = (
(151,212,o),
(133,229,o),
(133,257,cs),
(133,285,o),
(151,302,o),
(181,302,cs),
(211,302,o),
(229,285,o),
(229,257,cs),
(229,229,o),
(211,212,o),
(181,212,cs)
);
}
);
width = 634;
},
{
anchors = (
{
name = bottom;
pos = (256,0);
},
{
name = bottomright;
pos = (337,0);
},
{
name = top;
pos = (192,608);
},
{
name = topright;
pos = (337,608);
},
{
name = yamakkan;
pos = (337,608);
}
);
layerId = "FFE3C573-8034-42D7-BBA7-2D1C8826F1F5";
shapes = (
{
closed = 1;
nodes = (
(309,-8,o),
(337,29,o),
(337,92,cs),
(337,387,ls),
(337,492,o),
(274,556,o),
(171,556,cs),
(119,556,o),
(59,537,o),
(17,498,c),
(26,477,l),
(65,514,o),
(119,533,o),
(169,533,cs),
(261,533,o),
(313,478,o),
(313,382,cs),
(313,95,ls),
(313,45,o),
(293,15,o),
(260,15,cs),
(227,15,o),
(207,44,o),
(207,93,cs),
(207,144,o),
(222,223,o),
(222,270,cs),
(222,318,o),
(198,350,o),
(160,350,cs),
(123,350,o),
(99,319,o),
(99,270,cs),
(99,223,o),
(123,192,o),
(159,192,cs),
(195,192,o),
(214,224,o),
(214,270,c),
(193,221,l),
(193,195,o),
(183,136,o),
(183,91,cs),
(183,31,o),
(213,-8,o),
(260,-8,cs)
);
},
{
closed = 1;
nodes = (
(135,213,o),
(121,234,o),
(121,271,cs),
(121,308,o),
(135,329,o),
(160,329,cs),
(185,329,o),
(199,308,o),
(199,271,cs),
(199,234,o),
(185,213,o),
(160,213,cs)
);
}
);
width = 406;
},
{
anchors = (
{
name = bottom;
pos = (267,0);
},
{
name = bottomright;
pos = (380,0);
},
{
name = top;
pos = (203,608);
},
{
name = topright;
pos = (380,608);
},
{
name = yamakkan;
pos = (385,608);
}
);
layerId = "CACD10EA-8E27-4203-9979-86A2B0F7ED74";
shapes = (
{
closed = 1;
nodes = (
(344,-10,o),
(385,29,o),
(385,100,cs),
(385,371,ls),
(385,489,o),
(309,561,o),
(182,561,cs),
(120,561,o),
(60,542,o),
(12,504,c),
(33,443,l),
(73,478,o),
(124,495,o),
(174,495,cs),
(259,495,o),
(307,445,o),
(307,358,cs),
(307,104,ls),
(307,72,o),
(294,56,o),
(269,56,cs),
(243,56,o),
(228,78,o),
(228,115,cs),
(228,160,o),
(242,220,o),
(242,264,cs),
(242,323,o),
(214,362,o),
(161,362,cs),
(110,362,o),
(79,325,o),
(79,263,cs),
(79,204,o),
(108,164,o),
(150,164,cs),
(199,164,o),
(235,202,o),
(235,266,c),
(165,200,l),
(165,183,o),
(157,139,o),
(157,106,cs),
(157,35,o),
(201,-10,o),
(268,-10,cs)
);
},
{
closed = 1;
nodes = (
(138,208,o),
(124,229,o),
(124,263,cs),
(124,297,o),
(138,318,o),
(159,318,cs),
(181,318,o),
(194,297,o),
(194,263,cs),
(194,229,o),
(181,208,o),
(159,208,cs)
);
}
);
width = 441;
},
{
anchors = (
{
name = bottom;
pos = (293,0);
},
{
name = bottomright;
pos = (473,0);
},
{
name = top;
pos = (244,608);
},
{
name = topright;
pos = (473,608);
},
{
name = yamakkan;
pos = (483,608);
}
);
layerId = "96C6A4AF-11F2-4EC9-996B-29C760E40A38";
shapes = (
{
closed = 1;
nodes = (
(421,-15,o),
(483,42,o),
(483,156,cs),
(483,364,ls),
(483,496,o),
(380,576,o),
(209,576,cs),
(133,576,o),
(62,559,o),
(3,522,c),
(40,395,l),
(87,418,o),
(140,430,o),
(192,430,cs),
(269,430,o),
(311,399,o),
(311,341,cs),
(311,141,ls),
(311,124,o),
(303,115,o),
(289,115,cs),
(275,115,o),
(266,124,o),
(266,140,cs),
(266,171,o),
(275,219,o),
(275,246,cs),
(275,319,o),
(226,360,o),
(159,360,cs),
(92,360,o),
(47,320,o),
(47,258,cs),
(47,195,o),
(94,155,o),
(153,155,cs),
(227,155,o),
(269,193,o),
(269,246,c),
(127,190,l),
(127,175,o),
(117,147,o),
(117,117,cs),
(117,36,o),
(186,-15,o),
(296,-15,cs)
);
},
{
closed = 1;
nodes = (
(119,213,o),
(104,230,o),
(104,259,cs),
(104,288,o),
(119,305,o),
(143,305,cs),
(167,305,o),
(182,288,o),
(182,259,cs),
(182,230,o),
(167,213,o),
(143,213,cs)
);
}
);
width = 529;
}
);
metricRight = "oO-lao";
subCategory = Spacing;
},
{
glyphname = "cha-lao";
kernLeft = "cha-lao";
kernRight = "woWi-lao";
lastChange = "2023-01-11 12:20:01 +0000";
layers = (
{
anchors = (
{
name = bottom;
pos = (301,0);
},
{
name = bottomright;
pos = (528,0);
},
{
name = top;
pos = (302,608);
},
{
name = topright;
pos = (528,608);
},
{
name = yamakkan;
pos = (528,608);
}
);
layerId = "2CD50835-5B7E-4D2A-958C-2F579F79E971";
shapes = (
{
closed = 1;
nodes = (
(496,-5,o),
(528,29,o),
(528,82,cs),
(528,369,ls),
(528,485,o),
(439,558,o),
(298,558,cs),
(224,558,o),
(142,539,o),
(83,500,c),
(93,478,l),
(149,515,o),
(226,533,o),
(297,533,cs),
(425,533,o),
(502,470,o),
(502,364,cs),
(502,87,ls),
(502,45,o),
(480,20,o),
(444,20,cs),
(371,20,o),
(283,155,o),
(155,155,c),
(157,133,l),
(277,133,o),
(354,-5,o),
(444,-5,cs)
);
},
{
closed = 1;
nodes = (
(122,18,o),
(101,39,o),
(101,75,cs),
(101,111,o),
(122,132,o),
(157,132,cs),
(182,132,o),
(202,128,o),
(215,122,c),
(215,111,o),
(215,95,o),
(215,75,cs),
(215,39,o),
(193,18,o),
(158,18,cs)
);
},
{
closed = 1;
nodes = (
(208,-5,o),
(241,28,o),
(241,78,cs),
(241,301,ls),
(241,351,o),
(208,384,o),
(159,384,cs),
(109,384,o),
(76,352,o),
(76,304,cs),
(76,257,o),
(108,224,o),
(155,224,cs),
(203,224,o),
(233,255,o),
(233,304,c),
(229,304,l),
(229,285,o),
(220,264,o),
(215,264,c),
(215,115,l),
(220,115,o),
(229,94,o),
(229,75,c),
(233,75,l),
(233,124,o),
(203,155,o),
(155,155,cs),
(108,155,o),
(76,122,o),
(76,75,cs),
(76,28,o),
(108,-5,o),
(159,-5,cs)
);
},
{
closed = 1;
nodes = (
(122,247,o),
(101,269,o),
(101,304,cs),
(101,339,o),
(122,361,o),
(157,361,cs),
(192,361,o),
(213,339,o),
(213,304,cs),
(213,269,o),
(192,247,o),
(157,247,cs)
);
}
);
width = 627;
},
{
anchors = (
{
name = bottom;
pos = (318,0);
},
{
name = bottomright;
pos = (557,0);
},
{
name = top;
pos = (317,608);
},
{
name = topright;
pos = (557,608);
},
{
name = yamakkan;
pos = (562,608);
}
);
hints = (
{
horizontal = 1;
origin = (0,6);
target = (0,13);
type = Stem;
},
{
horizontal = 1;
origin = (2,33);
target = (0,20);
type = Stem;
},
{
origin = (0,17);
target = (0,2);
type = Stem;
},
{
horizontal = 1;
origin = (2,33);
target = (1,14);
type = Stem;
}
);
layerId = "6E668239-F79A-4803-9842-9160852853A7";
shapes = (
{
closed = 1;
nodes = (
(520,-7,o),
(562,34,o),
(562,101,cs),
(562,363,ls),
(562,486,o),
(461,563,o),
(299,563,cs),
(218,563,o),
(136,544,o),
(73,506,c),
(100,438,l),
(154,473,o),
(223,490,o),
(289,490,cs),
(406,490,o),
(476,437,o),
(476,349,cs),
(476,112,ls),
(476,84,o),
(463,66,o),
(442,66,cs),
(375,66,o),
(303,182,o),
(166,182,c),
(172,137,l),
(287,137,o),
(312,-7,o),
(453,-7,cs)
);
},
{
closed = 1;
nodes = (
(143,40,o),
(124,58,o),
(124,88,cs),
(124,117,o),
(143,135,o),
(172,135,cs),
(192,135,o),
(208,131,o),
(219,122,c),
(221,110,o),
(221,98,o),
(221,88,cs),
(221,58,o),
(202,40,o),
(173,40,cs)
);
},
{
closed = 1;
nodes = (
(235,-7,o),
(276,30,o),
(276,89,cs),
(276,294,ls),
(276,353,o),
(235,390,o),
(174,390,cs),
(112,390,o),
(71,353,o),
(71,294,cs),
(71,236,o),
(113,201,o),
(166,201,cs),
(237,201,o),
(270,240,o),
(270,295,c),
(257,295,l),
(257,263,o),
(219,219,o),
(190,219,c),
(190,163,l),
(219,163,o),
(257,121,o),
(257,88,c),
(270,88,l),
(270,142,o),
(237,182,o),
(166,182,cs),
(113,182,o),
(71,147,o),
(71,89,cs),
(71,30,o),
(112,-7,o),
(174,-7,cs)
);
},
{
closed = 1;
nodes = (
(143,248,o),
(124,266,o),
(124,295,cs),
(124,324,o),
(143,343,o),
(173,343,cs),
(203,343,o),
(221,324,o),
(221,295,cs),
(221,266,o),
(201,248,o),
(172,248,cs)
);
}
);
width = 647;
},
{
anchors = (
{
name = bottom;
pos = (340,0);
},
{
name = bottomright;
pos = (616,0);
},
{
name = top;
pos = (340,608);
},
{
name = topright;
pos = (616,608);
},
{
name = yamakkan;
pos = (626,608);
}
);
layerId = "EC79AED6-C145-434E-AE62-F6F3D2AFA8D1";
shapes = (
{
closed = 1;
nodes = (
(570,-10,o),
(626,50,o),
(626,147,cs),
(626,363,ls),
(626,496,o),
(504,578,o),
(305,578,cs),
(214,578,o),
(129,561,o),
(59,525,c),
(100,388,l),
(157,417,o),
(222,432,o),
(287,432,cs),
(384,432,o),
(440,396,o),
(440,333,cs),
(440,170,ls),
(440,154,o),
(430,143,o),
(415,143,cs),
(369,143,o),
(344,209,o),
(178,209,c),
(176,158,l),
(312,158,o),
(303,-10,o),
(478,-10,cs)
);
},
{
closed = 1;
nodes = (
(148,51,o),
(130,69,o),
(130,97,cs),
(130,123,o),
(148,142,o),
(177,142,cs),
(195,142,o),
(211,138,o),
(220,132,c),
(223,122,o),
(224,110,o),
(224,97,cs),
(224,69,o),
(206,51,o),
(177,51,cs)
);
},
{
closed = 1;
nodes = (
(279,-10,o),
(335,40,o),
(335,123,cs),
(335,241,ls),
(335,322,o),
(279,374,o),
(184,374,cs),
(108,374,o),
(59,333,o),
(59,267,cs),
(59,202,o),
(100,161,o),
(164,161,cs),
(241,161,o),
(317,190,o),
(317,267,c),
(291,267,l),
(291,221,o),
(228,191,o),
(149,191,c),
(149,173,l),
(228,173,o),
(291,143,o),
(291,97,c),
(317,97,l),
(317,174,o),
(241,209,o),
(178,209,cs),
(100,209,o),
(59,162,o),
(59,97,cs),
(59,31,o),
(108,-10,o),
(186,-10,cs)
);
},
{
closed = 1;
nodes = (
(147,222,o),
(129,239,o),
(129,267,cs),
(129,295,o),
(147,312,o),
(177,312,cs),
(207,312,o),
(225,295,o),
(225,267,cs),
(225,239,o),
(207,222,o),
(177,222,cs)
);
}
);
width = 687;
},
{
anchors = (
{
name = bottom;
pos = (216,0);
},
{
name = bottomright;
pos = (378,0);
},
{
name = top;
pos = (216,608);
},
{
name = topright;
pos = (378,608);
},
{
name = yamakkan;
pos = (378,608);
}
);
layerId = "FFE3C573-8034-42D7-BBA7-2D1C8826F1F5";
shapes = (
{
closed = 1;
nodes = (
(356,-5,o),
(378,22,o),
(378,71,cs),
(378,387,ls),
(378,492,o),
(315,556,o),
(212,556,cs),
(160,556,o),
(100,537,o),
(58,498,c),
(67,477,l),
(106,514,o),
(160,533,o),
(210,533,cs),
(302,533,o),
(354,478,o),
(354,382,cs),
(354,76,ls),
(354,37,o),
(342,18,o),
(317,18,cs),
(264,18,o),
(203,153,o),
(116,153,c),
(116,133,l),
(198,133,o),
(248,-5,o),
(317,-5,cs)
);
},
{
closed = 1;
nodes = (
(88,16,o),
(74,37,o),
(74,74,cs),
(74,111,o),
(88,132,o),
(116,132,cs),
(130,132,o),
(144,128,o),
(153,122,c),
(154,111,o),
(154,94,o),
(154,75,cs),
(154,37,o),
(138,16,o),
(113,16,cs)
);
},
{
closed = 1;
nodes = (
(151,-5,o),
(175,27,o),
(175,76,cs),
(175,302,ls),
(175,351,o),
(151,383,o),
(113,383,cs),
(76,383,o),
(52,351,o),
(52,303,cs),
(52,256,o),
(76,225,o),
(112,225,cs),
(148,225,o),
(167,257,o),
(167,303,c),
(164,303,l),
(164,285,o),
(156,265,o),
(151,265,c),
(151,130,l),
(156,130,o),
(166,111,o),
(166,75,c),
(169,75,l),
(169,123,o),
(148,153,o),
(116,153,cs),
(76,153,o),
(52,122,o),
(52,75,cs),
(52,26,o),
(76,-5,o),
(113,-5,cs)
);
},
{
closed = 1;
nodes = (
(88,246,o),
(74,267,o),
(74,304,cs),
(74,341,o),
(88,362,o),
(113,362,cs),
(138,362,o),
(152,341,o),
(152,304,cs),
(152,267,o),
(138,246,o),
(113,246,cs)
);
}
);
width = 447;
},
{
anchors = (
{
name = bottom;
pos = (238,0);
},
{
name = bottomright;
pos = (421,0);
},
{
name = top;
pos = (238,608);
},
{
name = topright;
pos = (421,608);
},
{
name = yamakkan;
pos = (426,608);
}
);
layerId = "CACD10EA-8E27-4203-9979-86A2B0F7ED74";
shapes = (
{
closed = 1;
nodes = (
(394,-7,o),
(426,33,o),
(426,98,cs),
(426,371,ls),
(426,489,o),
(350,561,o),
(223,561,cs),
(161,561,o),
(101,542,o),
(53,504,c),
(74,443,l),
(114,478,o),
(165,495,o),
(215,495,cs),
(300,495,o),
(348,445,o),
(348,358,cs),
(348,108,ls),
(348,73,o),
(340,59,o),
(322,59,cs),
(276,59,o),
(231,179,o),
(124,179,c),
(128,138,l),
(218,138,o),
(237,-7,o),
(342,-7,cs)
);
},
{
closed = 1;
nodes = (
(107,35,o),
(95,54,o),
(95,86,cs),
(95,119,o),
(108,137,o),
(129,137,cs),
(141,137,o),
(154,132,o),
(162,124,c),
(164,111,o),
(164,99,o),
(164,86,cs),
(164,54,o),
(151,35,o),
(129,35,cs)
);
},
{
closed = 1;
nodes = (
(180,-7,o),
(213,30,o),
(213,87,cs),
(213,295,ls),
(213,352,o),
(180,388,o),
(130,388,cs),
(82,388,o),
(51,351,o),
(51,296,cs),
(51,237,o),
(81,202,o),
(121,202,cs),
(171,202,o),
(206,240,o),
(206,296,c),
(194,296,l),
(194,266,o),
(165,226,o),
(135,226,c),
(135,156,l),
(165,156,o),
(194,117,o),
(194,86,c),
(206,86,l),
(206,140,o),
(171,179,o),
(124,179,cs),
(81,179,o),
(51,144,o),
(51,87,cs),
(51,30,o),
(82,-7,o),
(130,-7,cs)
);
},
{
closed = 1;
nodes = (
(107,244,o),
(95,263,o),
(95,295,cs),
(95,327,o),
(107,346,o),
(129,346,cs),
(151,346,o),
(164,327,o),
(164,295,cs),
(164,263,o),
(151,244,o),
(129,244,cs)
);
}
);
width = 482;
},
{
anchors = (
{
name = bottom;
pos = (283,0);
},
{
name = bottomright;
pos = (515,0);
},
{
name = top;
pos = (283,608);
},
{
name = topright;
pos = (515,608);
},
{
name = yamakkan;
pos = (525,608);
}
);
layerId = "96C6A4AF-11F2-4EC9-996B-29C760E40A38";
shapes = (
{
closed = 1;
nodes = (
(480,-10,o),
(525,43,o),
(525,141,cs),
(525,364,ls),
(525,496,o),
(422,576,o),
(251,576,cs),
(175,576,o),
(104,559,o),
(45,522,c),
(82,395,l),
(129,418,o),
(182,430,o),
(234,430,cs),
(311,430,o),
(353,399,o),
(353,341,cs),
(353,154,ls),
(353,140,o),
(347,132,o),
(337,132,cs),
(301,132,o),
(289,205,o),
(148,205,c),
(146,155,l),
(260,155,o),
(242,-10,o),
(396,-10,cs)
);
},
{
closed = 1;
nodes = (
(124,50,o),
(109,67,o),
(109,96,cs),
(109,125,o),
(124,142,o),
(148,142,cs),
(164,142,o),
(177,137,o),
(185,131,c),
(188,121,o),
(189,110,o),
(189,96,cs),
(189,68,o),
(175,50,o),
(148,50,cs)
);
},
{
closed = 1;
nodes = (
(237,-10,o),
(286,39,o),
(286,118,cs),
(286,248,ls),
(286,328,o),
(237,376,o),
(158,376,cs),
(90,376,o),
(45,333,o),
(45,270,cs),
(45,208,o),
(81,167,o),
(135,167,cs),
(201,167,o),
(270,197,o),
(270,271,c),
(246,271,l),
(246,227,o),
(188,195,o),
(114,195,c),
(114,172,l),
(188,172,o),
(246,140,o),
(246,96,c),
(270,96,l),
(270,169,o),
(202,205,o),
(148,205,cs),
(81,205,o),
(46,160,o),
(46,96,cs),
(46,31,o),
(88,-10,o),
(155,-10,cs)
);
},
{
closed = 1;
nodes = (
(124,224,o),
(109,241,o),
(109,270,cs),
(109,299,o),
(124,316,o),
(148,316,cs),
(172,316,o),
(187,299,o),
(187,270,cs),
(187,241,o),
(172,224,o),
(148,224,cs)
);
}
);
width = 571;
},
{
anchors = (
{
name = bottom;
pos = (318,0);
},
{
name = bottomright;
pos = (557,0);
},
{
name = top;
pos = (317,608);
},
{
name = topright;
pos = (557,608);
},
{
name = yamakkan;
pos = (562,608);
}
);
associatedMasterId = "6E668239-F79A-4803-9842-9160852853A7";
attr = {
axisRules = (
{
min = 100;
},
{
}
);
};
hints = (
{
horizontal = 1;
origin = (2,33);
target = (1,14);
type = Stem;
},
{
horizontal = 1;
origin = (0,6);
target = (0,13);
type = Stem;
},
{
horizontal = 1;
origin = (2,33);
target = (0,20);
type = Stem;
},
{
origin = (0,17);
target = (0,2);
type = Stem;
}
);
layerId = "6C720EF2-573D-49A1-A88F-F6EC5C5E47C9";
name = "[100]";
shapes = (
{
closed = 1;
nodes = (
(520,-7,o),
(562,34,o),
(562,101,cs),
(562,363,ls),
(562,486,o),
(461,563,o),
(299,563,cs),
(218,563,o),
(136,544,o),
(73,506,c),
(100,438,l),
(154,473,o),
(223,490,o),
(289,490,cs),
(407,490,o),
(476,438,o),
(476,349,cs),
(476,112,ls),
(476,84,o),
(463,66,o),
(442,66,cs),
(375,66,o),
(303,180,o),
(166,180,c),
(172,137,l),
(287,137,o),
(312,-7,o),
(453,-7,cs)
);
},
{
closed = 1;
nodes = (
(143,40,o),
(124,58,o),
(124,88,cs),
(124,117,o),
(143,135,o),
(172,135,cs),
(192,135,o),
(208,131,o),
(219,122,c),
(221,110,o),
(221,98,o),
(221,88,cs),
(221,58,o),
(202,40,o),
(173,40,cs)
);
},
{
closed = 1;
nodes = (
(235,-7,o),
(276,30,o),
(276,89,cs),
(276,301,ls),
(276,360,o),
(235,397,o),
(174,397,cs),
(112,397,o),
(71,360,o),
(71,301,cs),
(71,243,o),
(113,208,o),
(166,208,cs),
(237,208,o),
(270,247,o),
(270,302,c),
(257,302,l),
(257,270,o),
(219,226,o),
(190,226,c),
(190,163,l),
(219,163,o),
(257,121,o),
(257,88,c),
(270,88,l),
(270,141,o),
(237,180,o),
(166,180,cs),
(113,180,o),
(71,146,o),
(71,89,cs),
(71,30,o),
(112,-7,o),
(174,-7,cs)
);
},
{
closed = 1;
nodes = (
(143,255,o),
(124,273,o),
(124,302,cs),
(124,332,o),
(143,350,o),
(173,350,cs),
(202,350,o),
(221,332,o),
(221,302,cs),
(221,273,o),
(202,255,o),
(172,255,cs)
);
}
);
width = 647;
},
{
anchors = (
{
name = bottom;
pos = (238,0);
},
{
name = bottomright;
pos = (426,0);
},
{
name = top;
pos = (238,608);
},
{
name = topright;
pos = (426,608);
},
{
name = yamakkan;
pos = (426,608);
}
);
associatedMasterId = "CACD10EA-8E27-4203-9979-86A2B0F7ED74";
attr = {
axisRules = (
{
min = 100;
},
{
}
);
};
layerId = "81C05DD4-3B03-4B23-A5AD-582678458DA2";
name = "[100]";
shapes = (
{
closed = 1;
nodes = (
(394,-7,o),
(426,33,o),
(426,98,cs),
(426,371,ls),
(426,489,o),
(350,561,o),
(223,561,cs),
(161,561,o),
(101,542,o),
(53,504,c),
(74,443,l),
(114,478,o),
(165,495,o),
(215,495,cs),
(300,495,o),
(348,445,o),
(348,358,cs),
(348,108,ls),
(348,73,o),
(340,59,o),
(322,59,cs),
(276,59,o),
(231,177,o),
(124,177,c),
(128,138,l),
(218,138,o),
(237,-7,o),
(342,-7,cs)
);
},
{
closed = 1;
nodes = (
(107,35,o),
(95,54,o),
(95,86,cs),
(95,119,o),
(108,137,o),
(129,137,cs),
(141,137,o),
(154,132,o),
(162,124,c),
(164,111,o),
(164,99,o),
(164,86,cs),
(164,54,o),
(151,35,o),
(129,35,cs)
);
},
{
closed = 1;
nodes = (
(180,-7,o),
(213,30,o),
(213,87,cs),
(213,306,ls),
(213,363,o),
(180,399,o),
(130,399,cs),
(82,399,o),
(51,362,o),
(51,307,cs),
(51,251,o),
(81,218,o),
(121,218,cs),
(171,218,o),
(206,254,o),
(206,307,c),
(194,307,l),
(194,277,o),
(165,237,o),
(135,237,c),
(135,156,l),
(165,156,o),
(194,117,o),
(194,86,c),
(206,86,l),
(206,139,o),
(171,177,o),
(124,177,cs),
(81,177,o),
(51,143,o),
(51,87,cs),
(51,30,o),
(82,-7,o),
(130,-7,cs)
);
},
{
closed = 1;
nodes = (
(107,255,o),
(95,274,o),
(95,306,cs),
(95,338,o),
(107,357,o),
(129,357,cs),
(151,357,o),
(164,338,o),
(164,306,cs),
(164,274,o),
(151,255,o),
(129,255,cs)
);
}
);
width = 482;
}
);
metricRight = "oO-lao";
subCategory = Spacing;
unicode = 3721;
},
{
glyphname = "soSang-lao";
kernLeft = "khoKhai-lao";
kernRight = "khoKhai-lao";
lastChange = "2023-01-11 12:20:16 +0000";
layers = (
{
anchors = (
{
name = bottom;
pos = (317,0);
},
{
name = bottomright;
pos = (421,0);
},
{
name = top;
pos = (317,608);
},
{
name = topright;
pos = (528,608);
},
{
name = yamakkan;
pos = (528,608);
}
);
layerId = "2CD50835-5B7E-4D2A-958C-2F579F79E971";
shapes = (
{
closed = 1;
nodes = (
(503,-33,ls),
(503,-90,o),
(511,-139,o),
(532,-171,c),
(556,-162,l),
(534,-126,o),
(529,-82,o),
(529,-30,cs),
(529,3,ls),
(529,68,o),
(507,99,o),
(457,99,cs),
(388,99,o),
(283,17,o),
(207,17,cs),
(158,17,o),
(119,51,o),
(119,107,cs),
(119,157,o),
(143,186,o),
(203,205,cs),
(263,224,o),
(344,237,o),
(416,259,cs),
(488,281,o),
(528,321,o),
(528,395,cs),
(528,497,o),
(452,558,o),
(324,558,cs),
(181,558,o),
(92,503,o),
(92,416,cs),
(92,366,o),
(123,334,o),
(173,334,cs),
(223,334,o),
(254,365,o),
(254,414,cs),
(254,463,o),
(222,493,o),
(178,493,cs),
(133,493,o),
(100,458,o),
(100,414,c),
(104,431,o),
(121,458,o),
(134,464,c),
(134,488,o),
(192,533,o),
(324,533,cs),
(437,533,o),
(501,483,o),
(501,395,cs),
(501,332,o),
(469,303,o),
(403,281,cs),
(337,259,o),
(249,246,o),
(188,227,cs),
(127,208,o),
(92,169,o),
(92,105,cs),
(92,36,o),
(141,-8,o),
(205,-8,cs),
(292,-8,o),
(394,74,o),
(452,74,cs),
(482,74,o),
(503,60,o),
(503,3,cs)
);
},
{
closed = 1;
nodes = (
(138,357,o),
(117,379,o),
(117,414,cs),
(117,449,o),
(139,471,o),
(173,471,cs),
(208,471,o),
(229,450,o),
(229,414,cs),
(229,378,o),
(208,357,o),
(173,357,cs)
);
}
);
width = 616;
},
{
anchors = (
{
name = bottom;
pos = (325,0);
},
{
name = bottomright;
pos = (406,0);
},
{
name = top;
pos = (325,608);
},
{
name = topright;
pos = (552,608);
},
{
name = yamakkan;
pos = (557,608);
}
);
hints = (
{
horizontal = 1;
origin = (0,29);
target = (0,50);
type = Stem;
},
{
horizontal = 1;
origin = (0,65);
target = (0,14);
type = Stem;
},
{
origin = (0,53);
target = (0,7);
type = Stem;
}
);
layerId = "6E668239-F79A-4803-9842-9160852853A7";
shapes = (
{
closed = 1;
nodes = (
(471,-35,ls),
(471,-87,o),
(481,-142,o),
(501,-172,c),
(582,-154,l),
(563,-118,o),
(557,-75,o),
(557,-22,cs),
(557,35,ls),
(557,101,o),
(520,132,o),
(465,132,cs),
(385,132,o),
(278,58,o),
(209,58,cs),
(166,58,o),
(147,83,o),
(147,120,cs),
(147,158,o),
(170,176,o),
(221,189,cs),
(272,202,o),
(367,215,o),
(439,240,cs),
(511,265,o),
(557,307,o),
(557,389,cs),
(557,498,o),
(470,563,o),
(323,563,cs),
(168,563,o),
(64,497,o),
(64,401,cs),
(64,339,o),
(104,300,o),
(166,300,cs),
(230,300,o),
(270,339,o),
(270,398,cs),
(270,455,o),
(231,490,o),
(164,490,cs),
(146,490,o),
(121,481,o),
(107,469,c),
(141,475,o),
(169,475,o),
(205,471,c),
(239,485,o),
(277,492,o),
(319,492,cs),
(417,492,o),
(473,454,o),
(473,388,cs),
(473,341,o),
(447,314,o),
(397,298,cs),
(347,282,o),
(227,262,o),
(167,243,cs),
(107,224,o),
(64,188,o),
(64,118,cs),
(64,42,o),
(117,-10,o),
(193,-10,cs),
(280,-10,o),
(370,58,o),
(431,58,cs),
(452,58,o),
(471,45,o),
(471,-4,cs)
);
},
{
closed = 1;
nodes = (
(137,348,o),
(118,367,o),
(118,399,cs),
(118,430,o),
(137,450,o),
(168,450,cs),
(199,450,o),
(218,430,o),
(218,399,cs),
(218,367,o),
(199,348,o),
(168,348,cs)
);
}
);
width = 624;
},
{
anchors = (
{
name = bottom;
pos = (299,0);
},
{
name = bottomright;
pos = (397,0);
},
{
name = top;
pos = (321,608);
},
{
name = topright;
pos = (596,608);
},
{
name = yamakkan;
pos = (606,608);
}
);
layerId = "EC79AED6-C145-434E-AE62-F6F3D2AFA8D1";
shapes = (
{
closed = 1;
nodes = (
(427,-32,ls),
(427,-88,o),
(438,-140,o),
(458,-172,c),
(636,-145,l),
(619,-107,o),
(613,-65,o),
(613,-15,cs),
(613,71,ls),
(613,131,o),
(588,178,o),
(501,178,cs),
(406,178,o),
(305,112,o),
(262,112,cs),
(243,112,o),
(233,122,o),
(233,138,cs),
(233,155,o),
(244,164,o),
(280,172,cs),
(316,180,o),
(372,190,o),
(452,210,cs),
(532,230,o),
(606,268,o),
(606,381,cs),
(606,507,o),
(505,578,o),
(330,578,cs),
(154,578,o),
(51,518,o),
(51,415,cs),
(51,346,o),
(98,303,o),
(176,303,cs),
(250,303,o),
(296,342,o),
(296,407,cs),
(296,449,o),
(275,496,o),
(196,496,cs),
(161,496,o),
(137,483,o),
(129,473,c),
(217,473,o),
(250,461,o),
(252,437,c),
(268,443,o),
(288,446,o),
(321,446,cs),
(387,446,o),
(423,424,o),
(423,383,cs),
(423,355,o),
(413,328,o),
(359,311,cs),
(305,294,o),
(252,287,o),
(183,268,cs),
(114,249,o),
(51,206,o),
(51,127,cs),
(51,42,o),
(113,-15,o),
(204,-15,cs),
(281,-15,o),
(354,30,o),
(395,30,cs),
(422,30,o),
(427,19,o),
(427,0,cs)
);
},
{
closed = 1;
nodes = (
(153,362,o),
(135,379,o),
(135,407,cs),
(135,435,o),
(153,452,o),
(183,452,cs),
(213,452,o),
(231,435,o),
(231,407,cs),
(231,379,o),
(213,362,o),
(183,362,cs)
);
}
);
width = 662;
},
{
anchors = (
{
name = bottom;
pos = (225,0);
},
{
name = bottomright;
pos = (282,0);
},
{
name = top;
pos = (225,608);
},
{
name = topright;
pos = (378,608);
},
{
name = yamakkan;
pos = (378,608);
}
);
layerId = "FFE3C573-8034-42D7-BBA7-2D1C8826F1F5";
shapes = (
{
closed = 1;
nodes = (
(354,-43,ls),
(354,-100,o),
(361,-139,o),
(377,-171,c),
(400,-162,l),
(383,-126,o),
(378,-92,o),
(378,-40,cs),
(378,2,ls),
(378,61,o),
(363,98,o),
(323,98,cs),
(274,98,o),
(207,15,o),
(153,15,cs),
(115,15,o),
(86,50,o),
(86,107,cs),
(86,156,o),
(115,184,o),
(157,204,cs),
(199,224,o),
(241,237,o),
(292,261,cs),
(343,285,o),
(378,319,o),
(378,396,cs),
(378,495,o),
(322,556,o),
(230,556,cs),
(129,556,o),
(62,501,o),
(62,414,cs),
(62,364,o),
(85,333,o),
(122,333,cs),
(160,333,o),
(184,362,o),
(184,412,cs),
(184,462,o),
(160,491,o),
(125,491,cs),
(93,491,o),
(69,452,o),
(69,411,c),
(74,428,o),
(84,455,o),
(95,462,c),
(98,486,o),
(140,533,o),
(230,533,cs),
(309,533,o),
(354,481,o),
(354,396,cs),
(354,328,o),
(327,302,o),
(280,280,cs),
(233,258,o),
(192,244,o),
(145,223,cs),
(98,202,o),
(62,167,o),
(62,105,cs),
(62,37,o),
(102,-8,o),
(153,-8,cs),
(214,-8,o),
(279,75,o),
(318,75,cs),
(341,75,o),
(354,56,o),
(354,3,cs)
);
},
{
closed = 1;
nodes = (
(98,354,o),
(84,375,o),
(84,412,cs),
(84,449,o),
(98,470,o),
(123,470,cs),
(148,470,o),
(162,449,o),
(162,412,cs),
(162,375,o),
(148,354,o),
(123,354,cs)
);
}
);
width = 439;
},
{
anchors = (
{
name = bottom;
pos = (233,0);
},
{
name = bottomright;
pos = (289,0);
},
{
name = top;
pos = (239,608);
},
{
name = topright;
pos = (414,608);
},
{
name = yamakkan;
pos = (419,608);
}
);
layerId = "CACD10EA-8E27-4203-9979-86A2B0F7ED74";
shapes = (
{
closed = 1;
nodes = (
(343,-45,ls),
(343,-97,o),
(352,-142,o),
(366,-172,c),
(440,-154,l),
(426,-118,o),
(421,-85,o),
(421,-32,cs),
(421,30,ls),
(421,89,o),
(399,128,o),
(340,128,cs),
(267,128,o),
(220,56,o),
(172,56,cs),
(146,56,o),
(125,80,o),
(125,117,cs),
(125,151,o),
(141,177,o),
(180,192,cs),
(219,207,o),
(274,220,o),
(325,243,cs),
(376,266,o),
(419,308,o),
(419,389,cs),
(419,497,o),
(353,561,o),
(241,561,cs),
(124,561,o),
(49,497,o),
(49,402,cs),
(49,342,o),
(78,301,o),
(129,301,cs),
(180,301,o),
(210,341,o),
(210,400,cs),
(210,455,o),
(180,489,o),
(136,489,cs),
(109,489,o),
(90,476,o),
(84,459,c),
(116,467,o),
(137,471,o),
(152,469,c),
(167,483,o),
(194,495,o),
(238,495,cs),
(305,495,o),
(343,456,o),
(343,388,cs),
(343,339,o),
(322,313,o),
(283,295,cs),
(244,277,o),
(182,261,o),
(132,241,cs),
(82,221,o),
(49,182,o),
(49,115,cs),
(49,41,o),
(96,-10,o),
(155,-10,cs),
(233,-10,o),
(289,61,o),
(316,61,cs),
(335,61,o),
(343,51,o),
(343,-3,cs)
);
},
{
closed = 1;
nodes = (
(111,345,o),
(97,367,o),
(97,400,cs),
(97,434,o),
(111,455,o),
(132,455,cs),
(153,455,o),
(167,434,o),
(167,400,cs),
(167,367,o),
(153,345,o),
(132,345,cs)
);
}
);
width = 470;
},
{
anchors = (
{
name = bottom;
pos = (243,0);
},
{
name = bottomright;
pos = (313,0);
},
{
name = top;
pos = (264,608);
},
{
name = topright;
pos = (477,608);
},
{
name = yamakkan;
pos = (507,608);
}
);
layerId = "96C6A4AF-11F2-4EC9-996B-29C760E40A38";
shapes = (
{
closed = 1;
nodes = (
(341,-32,ls),
(341,-88,o),
(350,-140,o),
(368,-172,c),
(534,-145,l),
(518,-107,o),
(513,-65,o),
(513,-15,cs),
(513,66,ls),
(513,113,o),
(502,172,o),
(416,172,cs),
(335,172,o),
(259,113,o),
(228,113,cs),
(216,113,o),
(203,121,o),
(203,138,cs),
(203,157,o),
(213,166,o),
(237,174,cs),
(261,182,o),
(307,193,o),
(372,213,cs),
(437,233,o),
(507,273,o),
(507,382,cs),
(507,506,o),
(420,576,o),
(271,576,cs),
(123,576,o),
(37,515,o),
(37,413,cs),
(37,345,o),
(77,303,o),
(142,303,cs),
(207,303,o),
(248,342,o),
(248,406,cs),
(248,450,o),
(223,495,o),
(163,495,cs),
(136,495,o),
(117,483,o),
(109,472,c),
(192,472,o),
(221,463,o),
(221,442,c),
(235,449,o),
(248,452,o),
(263,452,cs),
(311,452,o),
(339,428,o),
(339,384,cs),
(339,354,o),
(330,325,o),
(289,309,cs),
(248,293,o),
(213,285,o),
(151,265,cs),
(89,245,o),
(37,202,o),
(37,126,cs),
(37,41,o),
(90,-15,o),
(167,-15,cs),
(229,-15,o),
(292,34,o),
(318,34,cs),
(340,34,o),
(341,20,o),
(341,-1,cs)
);
},
{
closed = 1;
nodes = (
(127,360,o),
(112,377,o),
(112,406,cs),
(112,435,o),
(127,452,o),
(151,452,cs),
(175,452,o),
(190,435,o),
(190,406,cs),
(190,377,o),
(175,360,o),
(151,360,cs)
);
}
);
width = 549;
}
);
metricLeft = "khoKhai-lao";
metricRight = "=khoKhai-lao@300";
subCategory = Spacing;
unicode = 3722;
},
{
glyphname = "jha-lao";
kernLeft = "khoKhai-lao";
kernRight = "khoKhai-lao";
lastChange = "2023-01-11 12:20:28 +0000";
layers = (
{
anchors = (
{
name = bottom;
pos = (333,0);
},
{
name = bottomright;
pos = (447,0);
},
{
name = top;
pos = (333,608);
},
{
name = topright;
pos = (574,608);
},
{
name = yamakkan;
pos = (574,608);
}
);
layerId = "2CD50835-5B7E-4D2A-958C-2F579F79E971";
shapes = (
{
closed = 1;
nodes = (
(529,-33,ls),
(529,-90,o),
(537,-139,o),
(558,-171,c),
(582,-162,l),
(560,-126,o),
(555,-82,o),
(555,-30,cs),
(555,3,ls),
(555,68,o),
(533,99,o),
(481,99,cs),
(414,99,o),
(294,17,o),
(207,17,cs),
(158,17,o),
(119,51,o),
(119,107,cs),
(119,157,o),
(144,182,o),
(204,200,cs),
(264,218,o),
(365,232,o),
(440,255,cs),
(515,278,o),
(574,327,o),
(574,424,cs),
(574,512,o),
(525,558,o),
(452,558,cs),
(377,558,o),
(331,514,o),
(331,443,c),
(341,473,l),
(325,473,l),
(335,443,l),
(335,514,o),
(289,558,o),
(214,558,cs),
(141,558,o),
(92,503,o),
(92,415,cs),
(92,338,o),
(130,302,o),
(183,302,cs),
(233,302,o),
(264,333,o),
(264,382,cs),
(264,431,o),
(232,461,o),
(188,461,cs),
(137,461,o),
(111,432,o),
(111,382,c),
(117,415,l),
(117,489,o),
(154,533,o),
(216,533,cs),
(272,533,o),
(313,494,o),
(322,433,c),
(344,433,l),
(352,494,o),
(393,533,o),
(450,533,cs),
(509,533,o),
(547,497,o),
(547,424,cs),
(547,338,o),
(492,298,o),
(427,277,cs),
(362,256,o),
(257,241,o),
(191,222,cs),
(125,203,o),
(92,169,o),
(92,105,cs),
(92,36,o),
(141,-8,o),
(205,-8,cs),
(303,-8,o),
(419,74,o),
(477,74,cs),
(508,74,o),
(529,60,o),
(529,3,cs)
);
},
{
closed = 1;
nodes = (
(148,325,o),
(127,347,o),
(127,382,cs),
(127,417,o),
(149,439,o),
(183,439,cs),
(218,439,o),
(239,418,o),
(239,382,cs),
(239,346,o),
(218,325,o),
(183,325,cs)
);
}
);
width = 648;
},
{
anchors = (
{
name = bottom;
pos = (327,0);
},
{
name = bottomright;
pos = (421,0);
},
{
name = top;
pos = (327,608);
},
{
name = topright;
pos = (585,608);
},
{
name = yamakkan;
pos = (590,608);
}
);
hints = (
{
horizontal = 1;
origin = (0,38);
target = (0,57);
type = Stem;
},
{
horizontal = 1;
origin = (0,79);
target = (0,14);
type = Stem;
},
{
origin = (0,0);
target = (0,7);
type = Stem;
}
);
layerId = "6E668239-F79A-4803-9842-9160852853A7";
shapes = (
{
closed = 1;
nodes = (
(486,-35,ls),
(486,-87,o),
(496,-142,o),
(516,-172,c),
(597,-154,l),
(578,-118,o),
(572,-75,o),
(572,-22,cs),
(572,33,ls),
(572,100,o),
(537,132,o),
(477,132,cs),
(398,132,o),
(294,58,o),
(209,58,cs),
(166,58,o),
(147,83,o),
(147,120,cs),
(147,155,o),
(171,172,o),
(223,185,cs),
(275,198,o),
(357,210,o),
(445,236,cs),
(533,262,o),
(590,303,o),
(590,412,cs),
(590,508,o),
(532,563,o),
(449,563,cs),
(372,563,o),
(320,515,o),
(320,434,c),
(340,488,l),
(314,488,l),
(334,434,l),
(334,515,o),
(281,563,o),
(205,563,cs),
(123,563,o),
(64,505,o),
(64,414,cs),
(64,337,o),
(110,286,o),
(172,286,cs),
(234,286,o),
(275,322,o),
(275,382,cs),
(275,441,o),
(238,476,o),
(176,476,cs),
(121,476,o),
(90,441,o),
(90,379,c),
(120,414,l),
(122,460,o),
(152,490,o),
(208,490,cs),
(265,490,o),
(298,462,o),
(306,415,c),
(349,415,l),
(356,462,o),
(386,490,o),
(431,490,cs),
(477,490,o),
(508,463,o),
(508,411,cs),
(508,346,o),
(469,311,o),
(401,290,cs),
(333,269,o),
(245,257,o),
(179,239,cs),
(113,221,o),
(64,186,o),
(64,118,cs),
(64,42,o),
(117,-10,o),
(193,-10,cs),
(291,-10,o),
(391,58,o),
(440,58,cs),
(466,58,o),
(486,46,o),
(486,6,cs)
);
},
{
closed = 1;
nodes = (
(142,331,o),
(123,350,o),
(123,382,cs),
(123,413,o),
(142,433,o),
(173,433,cs),
(204,433,o),
(223,413,o),
(223,382,cs),
(223,350,o),
(204,331,o),
(173,331,cs)
);
}
);
width = 650;
},
{
anchors = (
{
name = bottom;
pos = (320,0);
},
{
name = bottomright;
pos = (418,0);
},
{
name = top;
pos = (352,608);
},
{
name = topright;
pos = (643,608);
},
{
name = yamakkan;
pos = (653,608);
}
);
layerId = "EC79AED6-C145-434E-AE62-F6F3D2AFA8D1";
shapes = (
{
closed = 1;
nodes = (
(448,-32,ls),
(448,-88,o),
(459,-140,o),
(479,-172,c),
(657,-145,l),
(640,-107,o),
(634,-65,o),
(634,-15,cs),
(634,73,ls),
(634,142,o),
(597,178,o),
(525,178,cs),
(425,178,o),
(310,112,o),
(262,112,cs),
(244,112,o),
(233,121,o),
(233,136,cs),
(233,153,o),
(246,160,o),
(281,169,cs),
(316,178,o),
(399,192,o),
(479,212,cs),
(559,232,o),
(653,273,o),
(653,403,cs),
(653,510,o),
(588,578,o),
(489,578,cs),
(396,578,o),
(335,518,o),
(331,421,c),
(383,506,l),
(319,506,l),
(370,421,l),
(366,518,o),
(306,578,o),
(213,578,cs),
(114,578,o),
(51,517,o),
(51,422,cs),
(51,341,o),
(96,289,o),
(173,289,cs),
(237,289,o),
(283,326,o),
(283,389,cs),
(283,453,o),
(234,488,o),
(184,488,cs),
(114,488,o),
(77,453,o),
(77,389,c),
(129,389,l),
(129,427,o),
(161,447,o),
(227,447,cs),
(287,447,o),
(306,431,o),
(312,395,c),
(390,395,l),
(395,428,o),
(412,443,o),
(436,443,cs),
(462,443,o),
(478,426,o),
(478,399,cs),
(478,367,o),
(464,337,o),
(393,316,cs),
(322,295,o),
(258,284,o),
(195,267,cs),
(132,250,o),
(51,226,o),
(51,127,cs),
(51,38,o),
(117,-15,o),
(209,-15,cs),
(297,-15,o),
(380,30,o),
(414,30,cs),
(436,30,o),
(448,19,o),
(448,0,cs)
);
},
{
closed = 1;
nodes = (
(149,344,o),
(132,362,o),
(132,389,cs),
(132,415,o),
(149,433,o),
(175,433,cs),
(200,433,o),
(217,416,o),
(217,389,cs),
(217,361,o),
(201,344,o),
(175,344,cs)
);
}
);
width = 699;
},
{
anchors = (
{
name = bottom;
pos = (235,0);
},
{
name = bottomright;
pos = (299,0);
},
{
name = top;
pos = (235,608);
},
{
name = topright;
pos = (408,608);
},
{
name = yamakkan;
pos = (408,608);
}
);
layerId = "FFE3C573-8034-42D7-BBA7-2D1C8826F1F5";
shapes = (
{
closed = 1;
nodes = (
(371,-43,ls),
(371,-100,o),
(378,-139,o),
(394,-171,c),
(417,-162,l),
(400,-126,o),
(395,-92,o),
(395,-40,cs),
(395,2,ls),
(395,61,o),
(380,98,o),
(340,98,cs),
(281,98,o),
(218,15,o),
(153,15,cs),
(115,15,o),
(86,50,o),
(86,107,cs),
(86,156,o),
(115,184,o),
(155,203,cs),
(195,222,o),
(254,238,o),
(310,262,cs),
(366,286,o),
(408,328,o),
(408,422,cs),
(408,510,o),
(372,556,o),
(320,556,cs),
(267,556,o),
(233,512,o),
(233,441,c),
(241,475,l),
(229,475,l),
(237,441,l),
(237,512,o),
(203,556,o),
(150,556,cs),
(98,556,o),
(62,501,o),
(62,413,cs),
(62,336,o),
(90,301,o),
(128,301,cs),
(166,301,o),
(190,330,o),
(190,380,cs),
(190,430,o),
(166,459,o),
(131,459,cs),
(95,459,o),
(76,429,o),
(76,380,c),
(83,413,l),
(83,488,o),
(109,532,o),
(152,532,cs),
(191,532,o),
(220,493,o),
(226,432,c),
(244,432,l),
(249,493,o),
(279,532,o),
(317,532,cs),
(358,532,o),
(384,495,o),
(384,422,cs),
(384,336,o),
(345,302,o),
(300,282,cs),
(255,262,o),
(194,244,o),
(146,223,cs),
(98,202,o),
(62,167,o),
(62,105,cs),
(62,37,o),
(102,-8,o),
(153,-8,cs),
(223,-8,o),
(287,75,o),
(335,75,cs),
(358,75,o),
(371,56,o),
(371,3,cs)
);
},
{
closed = 1;
nodes = (
(104,322,o),
(90,343,o),
(90,380,cs),
(90,417,o),
(104,438,o),
(129,438,cs),
(154,438,o),
(168,417,o),
(168,380,cs),
(168,343,o),
(154,322,o),
(129,322,cs)
);
}
);
width = 459;
},
{
anchors = (
{
name = bottom;
pos = (242,0);
},
{
name = bottomright;
pos = (304,0);
},
{
name = top;
pos = (249,608);
},
{
name = topright;
pos = (444,608);
},
{
name = yamakkan;
pos = (449,608);
}
);
layerId = "CACD10EA-8E27-4203-9979-86A2B0F7ED74";
shapes = (
{
closed = 1;
nodes = (
(358,-45,ls),
(358,-97,o),
(367,-142,o),
(381,-172,c),
(455,-154,l),
(441,-118,o),
(436,-85,o),
(436,-32,cs),
(436,30,ls),
(436,89,o),
(414,128,o),
(355,128,cs),
(274,128,o),
(223,56,o),
(172,56,cs),
(147,56,o),
(126,74,o),
(126,116,cs),
(126,154,o),
(143,172,o),
(179,188,cs),
(215,204,o),
(276,212,o),
(338,236,cs),
(400,260,o),
(449,303,o),
(449,413,cs),
(449,507,o),
(406,561,o),
(342,561,cs),
(283,561,o),
(241,514,o),
(241,434,c),
(262,491,l),
(236,491,l),
(256,434,l),
(256,514,o),
(215,561,o),
(155,561,cs),
(92,561,o),
(49,503,o),
(49,403,cs),
(49,316,o),
(82,285,o),
(127,285,cs),
(178,285,o),
(208,325,o),
(208,384,cs),
(208,439,o),
(178,473,o),
(134,473,cs),
(91,473,o),
(67,439,o),
(67,378,c),
(100,423,l),
(100,467,o),
(121,496,o),
(160,496,cs),
(203,496,o),
(225,466,o),
(231,417,c),
(267,417,l),
(272,466,o),
(294,496,o),
(323,496,cs),
(355,496,o),
(375,466,o),
(375,412,cs),
(375,344,o),
(354,311,o),
(299,288,cs),
(244,265,o),
(189,259,o),
(140,240,cs),
(91,221,o),
(49,185,o),
(49,113,cs),
(49,41,o),
(96,-10,o),
(155,-10,cs),
(233,-10,o),
(297,61,o),
(331,61,cs),
(350,61,o),
(358,51,o),
(358,-3,cs)
);
},
{
closed = 1;
nodes = (
(109,329,o),
(95,351,o),
(95,384,cs),
(95,418,o),
(109,439,o),
(130,439,cs),
(151,439,o),
(165,418,o),
(165,384,cs),
(165,351,o),
(151,329,o),
(130,329,cs)
);
}
);
width = 497;
},
{
anchors = (
{
name = bottom;
pos = (261,0);
},
{
name = bottomright;
pos = (330,0);
},
{
name = top;
pos = (291,608);
},
{
name = topright;
pos = (545,608);
},
{
name = yamakkan;
pos = (545,608);
}
);
layerId = "96C6A4AF-11F2-4EC9-996B-29C760E40A38";
shapes = (
{
closed = 1;
nodes = (
(358,-32,ls),
(358,-88,o),
(367,-140,o),
(385,-172,c),
(551,-145,l),
(535,-107,o),
(530,-65,o),
(530,-15,cs),
(530,66,ls),
(530,113,o),
(519,172,o),
(433,172,cs),
(345,172,o),
(269,113,o),
(228,113,cs),
(216,113,o),
(203,121,o),
(203,138,cs),
(203,157,o),
(213,165,o),
(237,173,cs),
(261,181,o),
(332,196,o),
(401,217,cs),
(470,238,o),
(545,280,o),
(545,404,cs),
(545,510,o),
(490,576,o),
(406,576,cs),
(325,576,o),
(276,518,o),
(272,423,c),
(320,507,l),
(261,507,l),
(308,423,l),
(304,518,o),
(253,576,o),
(175,576,cs),
(90,576,o),
(37,514,o),
(37,421,cs),
(37,340,o),
(75,289,o),
(141,289,cs),
(195,289,o),
(234,326,o),
(234,388,cs),
(234,451,o),
(191,486,o),
(151,486,cs),
(91,486,o),
(59,451,o),
(59,388,c),
(102,393,l),
(102,431,o),
(133,453,o),
(188,453,cs),
(238,453,o),
(250,435,o),
(255,398,c),
(326,398,l),
(329,431,o),
(340,450,o),
(356,450,cs),
(373,450,o),
(384,431,o),
(384,401,cs),
(384,365,o),
(378,334,o),
(319,313,cs),
(260,292,o),
(214,281,o),
(157,262,cs),
(100,243,o),
(37,210,o),
(37,125,cs),
(37,38,o),
(93,-15,o),
(172,-15,cs),
(243,-15,o),
(307,34,o),
(335,34,cs),
(357,34,o),
(358,20,o),
(358,-1,cs)
);
},
{
closed = 1;
nodes = (
(120,341,o),
(106,358,o),
(106,387,cs),
(106,416,o),
(120,433,o),
(142,433,cs),
(164,433,o),
(178,416,o),
(178,387,cs),
(178,358,o),
(164,341,o),
(142,341,cs)
);
}
);
width = 580;
}
);
metricLeft = "khoKhai-lao";
metricRight = "=khoKhai-lao@300";
subCategory = Spacing;
unicode = 3724;
},
{
glyphname = "nyoNyung-lao";
kernLeft = "khoKhuay-lao";
kernRight = "noNok-lao";
lastChange = "2023-01-11 12:20:43 +0000";
layers = (
{
anchors = (
{
name = bottom;
pos = (306,0);
},
{
name = bottomright;
pos = (539,0);
},
{
name = top;
pos = (315,608);
},
{
name = topright;
pos = (539,608);
},
{
name = yamakkan;
pos = (539,608);
}
);
layerId = "2CD50835-5B7E-4D2A-958C-2F579F79E971";
shapes = (
{
closed = 1;
nodes = (
(455,-8,o),
(539,60,o),
(539,181,cs),
(539,550,l),
(513,550,l),
(513,186,ls),
(513,76,o),
(440,17,o),
(306,17,cs),
(186,17,o),
(117,63,o),
(117,143,cs),
(117,213,o),
(165,255,o),
(244,255,cs),
(299,255,l),
(299,279,l),
(244,279,ls),
(168,279,o),
(114,338,o),
(114,420,cs),
(114,438,o),
(116,450,o),
(119,464,c),
(116,464,l),
(116,424,o),
(146,395,o),
(189,395,cs),
(237,395,o),
(270,428,o),
(270,475,cs),
(270,522,o),
(236,555,o),
(189,555,cs),
(128,555,o),
(87,501,o),
(87,420,cs),
(87,313,o),
(160,276,o),
(197,268,c),
(197,266,l),
(158,258,o),
(90,232,o),
(90,143,cs),
(90,50,o),
(173,-8,o),
(306,-8,cs)
);
},
{
closed = 1;
nodes = (
(154,418,o),
(133,440,o),
(133,475,cs),
(133,510,o),
(154,532,o),
(189,532,cs),
(224,532,o),
(245,510,o),
(245,475,cs),
(245,440,o),
(224,418,o),
(189,418,cs)
);
}
);
width = 643;
},
{
anchors = (
{
name = bottom;
pos = (329,0);
},
{
name = bottomright;
pos = (567,0);
},
{
name = top;
pos = (324,608);
},
{
name = topright;
pos = (572,608);
},
{
name = yamakkan;
pos = (572,608);
}
);
hints = (
{
horizontal = 1;
origin = (0,46);
target = (0,8);
type = Stem;
},
{
horizontal = 1;
origin = (0,4);
target = down;
type = TopGhost;
},
{
origin = (0,5);
target = (0,2);
type = Stem;
},
{
horizontal = 1;
origin = (0,33);
target = (1,5);
type = Stem;
}
);
layerId = "6E668239-F79A-4803-9842-9160852853A7";
shapes = (
{
closed = 1;
nodes = (
(474,-10,o),
(572,67,o),
(572,190,cs),
(572,553,l),
(486,553,l),
(486,200,ls),
(486,110,o),
(429,63,o),
(317,63,cs),
(215,63,o),
(162,95,o),
(162,156,cs),
(162,211,o),
(197,239,o),
(267,239,cs),
(305,239,l),
(305,307,l),
(267,307,ls),
(195,307,o),
(147,345,o),
(147,400,cs),
(147,407,o),
(147,413,o),
(147,422,c),
(131,423,l),
(131,387,o),
(156,362,o),
(199,362,cs),
(256,362,o),
(295,402,o),
(295,460,cs),
(295,521,o),
(254,560,o),
(191,560,cs),
(118,560,o),
(72,509,o),
(72,430,cs),
(72,324,o),
(151,283,o),
(193,276,c),
(193,272,l),
(157,267,o),
(75,241,o),
(75,148,cs),
(75,51,o),
(168,-10,o),
(317,-10,cs)
);
},
{
closed = 1;
nodes = (
(160,410,o),
(141,429,o),
(141,461,cs),
(141,493,o),
(160,512,o),
(191,512,cs),
(222,512,o),
(241,493,o),
(241,461,cs),
(241,429,o),
(222,410,o),
(191,410,cs)
);
}
);
width = 662;
},
{
anchors = (
{
name = bottom;
pos = (340,0);
},
{
name = bottomright;
pos = (616,0);
},
{
name = top;
pos = (340,608);
},
{
name = topright;
pos = (626,608);
},
{
name = yamakkan;
pos = (626,608);
}
);
layerId = "EC79AED6-C145-434E-AE62-F6F3D2AFA8D1";
shapes = (
{
closed = 1;
nodes = (
(516,-15,o),
(626,68,o),
(626,214,cs),
(626,563,l),
(440,563,l),
(440,224,ls),
(440,161,o),
(405,131,o),
(333,131,cs),
(273,131,o),
(237,146,o),
(237,172,cs),
(237,195,o),
(262,209,o),
(303,209,cs),
(317,209,l),
(317,320,l),
(308,320,ls),
(234,320,o),
(194,348,o),
(194,397,cs),
(194,403,o),
(194,410,o),
(194,416,c),
(139,416,l),
(139,391,o),
(181,359,o),
(220,359,cs),
(283,359,o),
(326,403,o),
(326,467,cs),
(326,530,o),
(275,573,o),
(201,573,cs),
(109,573,o),
(48,517,o),
(48,432,cs),
(48,335,o),
(109,292,o),
(163,274,c),
(163,269,l),
(114,262,o),
(53,230,o),
(53,148,cs),
(53,46,o),
(155,-15,o),
(325,-15,cs)
);
},
{
closed = 1;
nodes = (
(177,421,o),
(159,438,o),
(159,466,cs),
(159,494,o),
(177,511,o),
(207,511,cs),
(237,511,o),
(255,494,o),
(255,466,cs),
(255,438,o),
(237,421,o),
(207,421,cs)
);
}
);
width = 692;
},
{
anchors = (
{
name = bottom;
pos = (220,0);
},
{
name = bottomright;
pos = (385,0);
},
{
name = top;
pos = (224,608);
},
{
name = topright;
pos = (385,608);
},
{
name = yamakkan;
pos = (385,608);
}
);
layerId = "FFE3C573-8034-42D7-BBA7-2D1C8826F1F5";
shapes = (
{
closed = 1;
nodes = (
(322,-8,o),
(385,59,o),
(385,171,cs),
(385,548,l),
(361,548,l),
(361,176,ls),
(361,72,o),
(311,15,o),
(218,15,cs),
(138,15,o),
(86,65,o),
(86,143,cs),
(86,213,o),
(120,256,o),
(175,256,cs),
(212,256,l),
(212,278,l),
(175,278,ls),
(121,278,o),
(83,337,o),
(83,418,cs),
(83,439,o),
(84,452,o),
(86,463,c),
(80,463,l),
(80,420,o),
(102,395,o),
(135,395,cs),
(171,395,o),
(195,426,o),
(195,473,cs),
(195,522,o),
(171,553,o),
(134,553,cs),
(88,553,o),
(60,502,o),
(60,418,cs),
(60,310,o),
(113,276,o),
(139,268,c),
(139,266,l),
(112,258,o),
(62,231,o),
(62,143,cs),
(62,54,o),
(126,-8,o),
(218,-8,cs)
);
},
{
closed = 1;
nodes = (
(109,416,o),
(95,437,o),
(95,474,cs),
(95,511,o),
(109,532,o),
(134,532,cs),
(159,532,o),
(173,511,o),
(173,474,cs),
(173,437,o),
(159,416,o),
(134,416,cs)
);
}
);
width = 455;
},
{
anchors = (
{
name = bottom;
pos = (247,0);
},
{
name = bottomright;
pos = (426,0);
},
{
name = top;
pos = (242,608);
},
{
name = topright;
pos = (431,608);
},
{
name = yamakkan;
pos = (431,608);
}
);
layerId = "CACD10EA-8E27-4203-9979-86A2B0F7ED74";
shapes = (
{
closed = 1;
nodes = (
(357,-10,o),
(431,64,o),
(431,184,cs),
(431,551,l),
(353,551,l),
(353,193,ls),
(353,106,o),
(312,56,o),
(239,56,cs),
(166,56,o),
(130,89,o),
(130,154,cs),
(130,207,o),
(156,242,o),
(202,242,cs),
(228,242,l),
(228,303,l),
(204,303,ls),
(149,303,o),
(115,340,o),
(115,392,cs),
(115,398,o),
(115,401,o),
(115,408,c),
(96,428,l),
(96,392,o),
(103,360,o),
(152,360,cs),
(194,360,o),
(223,400,o),
(223,459,cs),
(223,521,o),
(192,558,o),
(141,558,cs),
(83,558,o),
(50,510,o),
(50,427,cs),
(50,322,o),
(103,282,o),
(136,275,c),
(136,271,l),
(108,266,o),
(53,237,o),
(53,147,cs),
(53,49,o),
(123,-10,o),
(239,-10,cs)
);
},
{
closed = 1;
nodes = (
(121,404,o),
(108,425,o),
(108,459,cs),
(108,493,o),
(121,514,o),
(143,514,cs),
(164,514,o),
(178,493,o),
(178,459,cs),
(178,425,o),
(164,404,o),
(143,404,cs)
);
}
);
width = 495;
},
{
anchors = (
{
name = bottom;
pos = (282,0);
},
{
name = bottomright;
pos = (514,0);
},
{
name = top;
pos = (282,608);
},
{
name = topright;
pos = (524,608);
},
{
name = yamakkan;
pos = (171,608);
}
);
layerId = "96C6A4AF-11F2-4EC9-996B-29C760E40A38";
shapes = (
{
closed = 1;
nodes = (
(429,-15,o),
(524,69,o),
(524,211,cs),
(524,561,l),
(352,561,l),
(352,222,ls),
(352,161,o),
(326,131,o),
(273,131,cs),
(234,131,o),
(210,148,o),
(210,174,cs),
(210,198,o),
(228,213,o),
(256,213,cs),
(263,213,l),
(263,318,l),
(261,318,ls),
(200,318,o),
(169,348,o),
(169,397,cs),
(169,404,o),
(169,410,o),
(169,417,c),
(117,417,l),
(117,391,o),
(153,359,o),
(186,359,cs),
(239,359,o),
(276,403,o),
(276,465,cs),
(276,528,o),
(231,571,o),
(163,571,cs),
(84,571,o),
(35,517,o),
(35,428,cs),
(35,334,o),
(83,291,o),
(130,274,c),
(130,269,l),
(88,263,o),
(39,224,o),
(39,147,cs),
(39,46,o),
(125,-15,o),
(269,-15,cs)
);
},
{
closed = 1;
nodes = (
(149,419,o),
(134,436,o),
(134,465,cs),
(134,494,o),
(149,511,o),
(173,511,cs),
(197,511,o),
(212,494,o),
(212,465,cs),
(212,436,o),
(197,419,o),
(173,419,cs)
);
}
);
width = 574;
}
);
metricRight = "doDek-lao";
subCategory = Spacing;
unicode = 3725;
},
{
glyphname = "nya-lao";
kernLeft = "khoKhuay-lao";
kernRight = "noNok-lao";
lastChange = "2023-01-11 12:20:55 +0000";
layers = (
{
anchors = (
{
name = bottom;
pos = (652,0);
},
{
name = bottomright;
pos = (821,0);
},
{
name = top;
pos = (664,608);
},
{
name = topright;
pos = (821,608);
},
{
name = yamakkan;
pos = (821,608);
}
);
layerId = "2CD50835-5B7E-4D2A-958C-2F579F79E971";
shapes = (
{
closed = 1;
nodes = (
(761,-8,o),
(821,54,o),
(821,153,cs),
(821,550,l),
(795,550,l),
(795,156,ls),
(795,69,o),
(746,17,o),
(664,17,cs),
(582,17,o),
(533,69,o),
(533,156,cs),
(533,374,ls),
(533,487,o),
(457,558,o),
(313,558,cs),
(180,558,o),
(90,502,o),
(90,407,cs),
(90,318,o),
(158,292,o),
(197,284,c),
(197,282,l),
(160,274,o),
(87,237,o),
(87,130,cs),
(87,49,o),
(128,-5,o),
(189,-5,cs),
(236,-5,o),
(270,28,o),
(270,75,cs),
(270,122,o),
(237,155,o),
(189,155,cs),
(146,155,o),
(116,126,o),
(116,86,c),
(119,86,l),
(116,99,o),
(114,112,o),
(114,130,cs),
(114,212,o),
(167,271,o),
(244,271,cs),
(299,271,l),
(299,295,l),
(244,295,ls),
(165,295,o),
(117,337,o),
(117,407,cs),
(117,487,o),
(195,533,o),
(313,533,cs),
(443,533,o),
(507,472,o),
(507,369,cs),
(507,153,ls),
(507,54,o),
(567,-8,o),
(664,-8,cs)
);
},
{
closed = 1;
nodes = (
(154,18,o),
(133,40,o),
(133,75,cs),
(133,110,o),
(154,132,o),
(189,132,cs),
(224,132,o),
(245,110,o),
(245,75,cs),
(245,40,o),
(224,18,o),
(189,18,cs)
);
}
);
width = 925;
},
{
anchors = (
{
name = bottom;
pos = (656,0);
},
{
name = bottomright;
pos = (844,0);
},
{
name = top;
pos = (664,608);
},
{
name = topright;
pos = (849,608);
},
{
name = yamakkan;
pos = (849,608);
}
);
hints = (
{
horizontal = 1;
origin = (0,60);
target = (0,8);
type = Stem;
},
{
horizontal = 1;
origin = (0,15);
target = (0,53);
type = Stem;
},
{
horizontal = 1;
origin = (0,4);
target = down;
type = TopGhost;
},
{
origin = (0,57);
target = (0,11);
type = Stem;
},
{
origin = (0,5);
target = (0,2);
type = Stem;
},
{
horizontal = 1;
origin = (0,28);
target = (1,11);
type = Stem;
}
);
layerId = "6E668239-F79A-4803-9842-9160852853A7";
shapes = (
{
closed = 1;
nodes = (
(778,-10,o),
(849,54,o),
(849,157,cs),
(849,553,l),
(763,553,l),
(763,173,ls),
(763,105,o),
(726,63,o),
(664,63,cs),
(602,63,o),
(565,104,o),
(565,173,cs),
(565,365,ls),
(565,486,o),
(475,563,o),
(316,563,cs),
(173,563,o),
(75,505,o),
(75,406,cs),
(75,312,o),
(157,286,o),
(193,281,c),
(193,277,l),
(151,270,o),
(72,229,o),
(72,123,cs),
(72,44,o),
(118,-7,o),
(191,-7,cs),
(254,-7,o),
(295,32,o),
(295,93,cs),
(295,151,o),
(256,191,o),
(199,191,cs),
(156,191,o),
(131,166,o),
(131,130,c),
(147,131,l),
(147,140,o),
(147,146,o),
(147,153,cs),
(147,208,o),
(195,246,o),
(267,246,cs),
(305,246,l),
(305,314,l),
(267,314,ls),
(197,314,o),
(162,341,o),
(162,395,cs),
(162,456,o),
(226,490,o),
(316,490,cs),
(424,490,o),
(479,439,o),
(479,353,cs),
(479,157,ls),
(479,54,o),
(550,-10,o),
(664,-10,cs)
);
},
{
closed = 1;
nodes = (
(160,41,o),
(141,60,o),
(141,92,cs),
(141,124,o),
(160,143,o),
(191,143,cs),
(222,143,o),
(241,124,o),
(241,92,cs),
(241,60,o),
(222,41,o),
(191,41,cs)
);
}
);
width = 939;
},
{
anchors = (
{
name = bottom;
pos = (653,0);
},
{
name = bottomright;
pos = (881,0);
},
{
name = top;
pos = (653,608);
},
{
name = topright;
pos = (891,608);
},
{
name = yamakkan;
pos = (891,608);
}
);
layerId = "EC79AED6-C145-434E-AE62-F6F3D2AFA8D1";
shapes = (
{
closed = 1;
nodes = (
(804,-15,o),
(891,54,o),
(891,167,cs),
(891,563,l),
(705,563,l),
(705,192,ls),
(705,154,o),
(685,131,o),
(653,131,cs),
(620,131,o),
(600,154,o),
(600,192,cs),
(600,359,ls),
(600,494,o),
(502,578,o),
(321,578,cs),
(163,578,o),
(53,517,o),
(53,416,cs),
(53,334,o),
(114,301,o),
(163,294,c),
(163,289,l),
(109,271,o),
(48,228,o),
(48,131,cs),
(48,46,o),
(109,-10,o),
(201,-10,cs),
(275,-10,o),
(326,33,o),
(326,96,cs),
(326,160,o),
(283,204,o),
(220,204,cs),
(181,204,o),
(139,172,o),
(139,147,c),
(194,147,l),
(194,153,o),
(194,160,o),
(194,166,cs),
(194,215,o),
(234,243,o),
(308,243,cs),
(317,243,l),
(317,354,l),
(303,354,ls),
(262,354,o),
(237,368,o),
(237,390,cs),
(237,417,o),
(278,432,o),
(327,432,cs),
(400,432,o),
(434,397,o),
(434,340,cs),
(434,167,ls),
(434,54,o),
(521,-15,o),
(663,-15,cs)
);
},
{
closed = 1;
nodes = (
(177,52,o),
(159,69,o),
(159,97,cs),
(159,125,o),
(177,142,o),
(207,142,cs),
(237,142,o),
(255,125,o),
(255,97,cs),
(255,69,o),
(237,52,o),
(207,52,cs)
);
}
);
width = 957;
},
{
anchors = (
{
name = bottom;
pos = (468,0);
},
{
name = bottomright;
pos = (585,0);
},
{
name = top;
pos = (471,608);
},
{
name = topright;
pos = (585,608);
},
{
name = yamakkan;
pos = (585,608);
}
);
layerId = "FFE3C573-8034-42D7-BBA7-2D1C8826F1F5";
shapes = (
{
closed = 1;
nodes = (
(543,-8,o),
(585,44,o),
(585,133,cs),
(585,548,l),
(561,548,l),
(561,136,ls),
(561,58,o),
(529,15,o),
(471,15,cs),
(413,15,o),
(381,58,o),
(381,136,cs),
(381,374,ls),
(381,485,o),
(325,556,o),
(224,556,cs),
(127,556,o),
(62,500,o),
(62,405,cs),
(62,317,o),
(112,290,o),
(139,282,c),
(139,280,l),
(113,272,o),
(60,238,o),
(60,130,cs),
(60,46,o),
(88,-5,o),
(134,-5,cs),
(171,-5,o),
(195,26,o),
(195,75,cs),
(195,122,o),
(171,153,o),
(135,153,cs),
(102,153,o),
(80,128,o),
(80,85,c),
(86,85,l),
(84,96,o),
(83,109,o),
(83,130,cs),
(83,211,o),
(121,270,o),
(175,270,cs),
(212,270,l),
(212,292,l),
(175,292,ls),
(120,292,o),
(86,335,o),
(86,405,cs),
(86,486,o),
(141,533,o),
(224,533,cs),
(312,533,o),
(357,471,o),
(357,369,cs),
(357,133,ls),
(357,43,o),
(399,-8,o),
(471,-8,cs)
);
},
{
closed = 1;
nodes = (
(109,16,o),
(95,37,o),
(95,74,cs),
(95,111,o),
(109,132,o),
(134,132,cs),
(159,132,o),
(173,111,o),
(173,74,cs),
(173,37,o),
(159,16,o),
(134,16,cs)
);
}
);
width = 655;
},
{
anchors = (
{
name = bottom;
pos = (491,0);
},
{
name = bottomright;
pos = (629,0);
},
{
name = top;
pos = (489,608);
},
{
name = topright;
pos = (634,608);
},
{
name = yamakkan;
pos = (634,608);
}
);
layerId = "CACD10EA-8E27-4203-9979-86A2B0F7ED74";
shapes = (
{
closed = 1;
nodes = (
(580,-10,o),
(634,46,o),
(634,139,cs),
(634,552,l),
(556,552,l),
(556,150,ls),
(556,89,o),
(533,56,o),
(490,56,cs),
(447,56,o),
(424,88,o),
(424,150,cs),
(424,366,ls),
(424,485,o),
(357,561,o),
(239,561,cs),
(127,561,o),
(53,503,o),
(53,405,cs),
(53,314,o),
(108,285,o),
(136,280,c),
(136,278,l),
(103,269,o),
(50,229,o),
(50,124,cs),
(50,41,o),
(83,-7,o),
(141,-7,cs),
(192,-7,o),
(223,30,o),
(223,92,cs),
(223,151,o),
(194,191,o),
(152,191,cs),
(103,191,o),
(96,159,o),
(96,123,c),
(115,143,l),
(115,150,o),
(115,153,o),
(115,159,cs),
(115,215,o),
(149,248,o),
(204,248,cs),
(228,248,l),
(228,309,l),
(202,309,ls),
(156,309,o),
(130,344,o),
(130,396,cs),
(130,462,o),
(175,495,o),
(240,495,cs),
(310,495,o),
(346,443,o),
(346,356,cs),
(346,139,ls),
(346,47,o),
(401,-10,o),
(491,-10,cs)
);
},
{
closed = 1;
nodes = (
(121,37,o),
(108,58,o),
(108,92,cs),
(108,126,o),
(121,147,o),
(143,147,cs),
(164,147,o),
(178,126,o),
(178,92,cs),
(178,58,o),
(164,37,o),
(143,37,cs)
);
}
);
width = 698;
},
{
anchors = (
{
name = bottom;
pos = (536,0);
},
{
name = bottomright;
pos = (729,0);
},
{
name = top;
pos = (534,608);
},
{
name = topright;
pos = (739,608);
},
{
name = yamakkan;
pos = (739,608);
}
);
layerId = "96C6A4AF-11F2-4EC9-996B-29C760E40A38";
shapes = (
{
closed = 1;
nodes = (
(664,-15,o),
(739,54,o),
(739,164,cs),
(739,561,l),
(567,561,l),
(567,174,ls),
(567,147,o),
(554,131,o),
(533,131,cs),
(512,131,o),
(499,147,o),
(499,174,cs),
(499,360,ls),
(499,493,o),
(416,576,o),
(276,576,cs),
(132,576,o),
(39,515,o),
(39,415,cs),
(39,337,o),
(88,298,o),
(130,292,c),
(130,287,l),
(83,270,o),
(35,227,o),
(35,133,cs),
(35,44,o),
(84,-10,o),
(163,-10,cs),
(231,-10,o),
(276,33,o),
(276,96,cs),
(276,158,o),
(239,202,o),
(186,202,cs),
(153,202,o),
(117,170,o),
(117,144,c),
(169,144,l),
(169,151,o),
(169,157,o),
(169,164,cs),
(169,213,o),
(200,243,o),
(261,243,cs),
(263,243,l),
(263,348,l),
(256,348,ls),
(228,348,o),
(210,363,o),
(210,388,cs),
(210,416,o),
(239,430,o),
(277,430,cs),
(324,430,o),
(347,403,o),
(347,342,cs),
(347,164,ls),
(347,54,o),
(423,-15,o),
(543,-15,cs)
);
},
{
closed = 1;
nodes = (
(149,50,o),
(134,67,o),
(134,96,cs),
(134,125,o),
(149,142,o),
(173,142,cs),
(197,142,o),
(212,125,o),
(212,96,cs),
(212,67,o),
(197,50,o),
(173,50,cs)
);
}
);
width = 789;
}
);
metricLeft = "nyoNyung-lao";
metricRight = "doDek-lao";
subCategory = Spacing;
unicode = 3726;
},
{
glyphname = "tta-lao";
kernLeft = "khoKhuay-lao";
kernRight = "noNok-lao";
lastChange = "2023-01-11 12:21:08 +0000";
layers = (
{
anchors = (
{
name = bottom;
pos = (321,0);
},
{
name = bottomright;
pos = (573,0);
},
{
name = top;
pos = (334,608);
},
{
name = topright;
pos = (573,608);
},
{
name = yamakkan;
pos = (573,608);
}
);
layerId = "2CD50835-5B7E-4D2A-958C-2F579F79E971";
shapes = (
{
closed = 1;
nodes = (
(277,-8,o),
(323,36,o),
(338,107,c),
(330,87,l),
(338,87,l),
(330,107,l),
(344,36,o),
(393,-8,o),
(457,-8,cs),
(528,-8,o),
(573,42,o),
(573,121,cs),
(573,550,l),
(547,550,l),
(547,125,ls),
(547,58,o),
(512,17,o),
(455,17,cs),
(394,17,o),
(354,62,o),
(345,137,c),
(323,137,l),
(314,62,o),
(276,17,o),
(213,17,cs),
(153,17,o),
(116,58,o),
(116,125,cs),
(116,205,o),
(164,255,o),
(244,255,cs),
(299,255,l),
(299,279,l),
(244,279,ls),
(182,279,o),
(114,323,o),
(114,420,cs),
(114,438,o),
(116,451,o),
(119,464,c),
(116,464,l),
(116,427,o),
(143,395,o),
(189,395,cs),
(237,395,o),
(270,428,o),
(270,475,cs),
(270,522,o),
(236,555,o),
(189,555,cs),
(128,555,o),
(87,501,o),
(87,420,cs),
(87,313,o),
(160,276,o),
(197,268,c),
(197,266,l),
(158,258,o),
(89,226,o),
(89,125,cs),
(89,44,o),
(137,-8,o),
(211,-8,cs)
);
},
{
closed = 1;
nodes = (
(154,418,o),
(133,440,o),
(133,475,cs),
(133,510,o),
(154,532,o),
(189,532,cs),
(224,532,o),
(245,510,o),
(245,475,cs),
(245,440,o),
(224,418,o),
(189,418,cs)
);
}
);
width = 677;
},
{
anchors = (
{
name = bottom;
pos = (341,0);
},
{
name = bottomright;
pos = (602,0);
},
{
name = top;
pos = (344,608);
},
{
name = topright;
pos = (607,608);
},
{
name = yamakkan;
pos = (607,608);
}
);
hints = (
{
horizontal = 1;
origin = (0,62);
target = (0,24);
type = Stem;
},
{
horizontal = 1;
origin = (0,13);
target = down;
type = TopGhost;
},
{
origin = (0,14);
target = (0,11);
type = Stem;
},
{
horizontal = 1;
origin = (0,49);
target = (1,5);
type = Stem;
}
);
layerId = "6E668239-F79A-4803-9842-9160852853A7";
shapes = (
{
closed = 1;
nodes = (
(283,-10,o),
(340,37,o),
(356,107,c),
(331,68,l),
(356,68,l),
(331,107,l),
(347,37,o),
(405,-10,o),
(474,-10,cs),
(558,-10,o),
(607,43,o),
(607,132,cs),
(607,553,l),
(521,553,l),
(521,140,ls),
(521,89,o),
(499,62,o),
(455,62,cs),
(407,62,o),
(381,93,o),
(374,159,c),
(313,159,l),
(306,93,o),
(281,62,o),
(232,62,cs),
(187,62,o),
(162,91,o),
(162,144,cs),
(162,211,o),
(199,239,o),
(267,239,cs),
(305,239,l),
(305,307,l),
(267,307,ls),
(195,307,o),
(147,345,o),
(147,400,cs),
(147,407,o),
(147,413,o),
(147,422,c),
(131,423,l),
(131,387,o),
(156,362,o),
(199,362,cs),
(256,362,o),
(295,402,o),
(295,460,cs),
(295,521,o),
(254,560,o),
(191,560,cs),
(118,560,o),
(72,509,o),
(72,430,cs),
(72,324,o),
(151,283,o),
(193,276,c),
(193,272,l),
(157,267,o),
(75,232,o),
(75,130,cs),
(75,46,o),
(131,-10,o),
(215,-10,cs)
);
},
{
closed = 1;
nodes = (
(160,410,o),
(141,429,o),
(141,461,cs),
(141,493,o),
(160,512,o),
(191,512,cs),
(222,512,o),
(241,493,o),
(241,461,cs),
(241,429,o),
(222,410,o),
(191,410,cs)
);
}
);
width = 697;
},
{
anchors = (
{
name = bottom;
pos = (357,0);
},
{
name = bottomright;
pos = (650,0);
},
{
name = top;
pos = (357,608);
},
{
name = topright;
pos = (660,608);
},
{
name = yamakkan;
pos = (660,608);
}
);
layerId = "EC79AED6-C145-434E-AE62-F6F3D2AFA8D1";
shapes = (
{
closed = 1;
nodes = (
(304,-15,o),
(376,54,o),
(382,153,c),
(333,63,l),
(382,63,l),
(333,153,l),
(338,54,o),
(411,-15,o),
(507,-15,cs),
(601,-15,o),
(660,47,o),
(660,146,cs),
(660,563,l),
(474,563,l),
(474,170,ls),
(474,139,o),
(465,126,o),
(443,126,cs),
(421,126,o),
(408,146,o),
(405,184,c),
(309,184,l),
(307,144,o),
(294,126,o),
(270,126,cs),
(249,126,o),
(237,141,o),
(237,167,cs),
(237,199,o),
(259,218,o),
(303,218,cs),
(317,218,l),
(317,320,l),
(308,320,ls),
(234,320,o),
(194,348,o),
(194,397,cs),
(194,403,o),
(194,410,o),
(194,416,c),
(139,416,l),
(139,391,o),
(181,359,o),
(220,359,cs),
(283,359,o),
(326,403,o),
(326,467,cs),
(326,530,o),
(275,573,o),
(201,573,cs),
(111,573,o),
(48,515,o),
(48,432,cs),
(48,335,o),
(109,292,o),
(163,274,c),
(163,269,l),
(114,261,o),
(53,219,o),
(53,131,cs),
(53,43,o),
(114,-15,o),
(208,-15,cs)
);
},
{
closed = 1;
nodes = (
(177,421,o),
(159,438,o),
(159,466,cs),
(159,494,o),
(177,511,o),
(207,511,cs),
(237,511,o),
(255,494,o),
(255,466,cs),
(255,438,o),
(237,421,o),
(207,421,cs)
);
}
);
width = 726;
},
{
anchors = (
{
name = bottom;
pos = (238,0);
},
{
name = bottomright;
pos = (407,0);
},
{
name = top;
pos = (238,608);
},
{
name = topright;
pos = (407,608);
},
{
name = yamakkan;
pos = (407,608);
}
);
layerId = "FFE3C573-8034-42D7-BBA7-2D1C8826F1F5";
shapes = (
{
closed = 1;
nodes = (
(204,-8,o),
(233,43,o),
(240,100,c),
(234,79,l),
(241,79,l),
(235,100,l),
(241,43,o),
(270,-8,o),
(325,-8,cs),
(377,-8,o),
(407,31,o),
(407,97,cs),
(407,548,l),
(383,548,l),
(383,99,ls),
(383,43,o),
(363,15,o),
(323,15,cs),
(279,15,o),
(253,59,o),
(247,137,c),
(227,137,l),
(221,59,o),
(195,15,o),
(151,15,cs),
(110,15,o),
(86,56,o),
(86,124,cs),
(86,218,o),
(123,255,o),
(175,255,cs),
(212,255,l),
(212,278,l),
(175,278,ls),
(121,278,o),
(83,337,o),
(83,418,cs),
(83,439,o),
(84,452,o),
(86,463,c),
(80,463,l),
(80,420,o),
(102,395,o),
(135,395,cs),
(171,395,o),
(195,426,o),
(195,473,cs),
(195,522,o),
(171,553,o),
(134,553,cs),
(88,553,o),
(60,502,o),
(60,418,cs),
(60,310,o),
(113,276,o),
(139,268,c),
(139,266,l),
(112,258,o),
(62,230,o),
(62,125,cs),
(62,43,o),
(96,-8,o),
(149,-8,cs)
);
},
{
closed = 1;
nodes = (
(109,416,o),
(95,437,o),
(95,474,cs),
(95,511,o),
(109,532,o),
(134,532,cs),
(159,532,o),
(173,511,o),
(173,474,cs),
(173,437,o),
(159,416,o),
(134,416,cs)
);
}
);
width = 477;
},
{
anchors = (
{
name = bottom;
pos = (256,0);
},
{
name = bottomright;
pos = (451,0);
},
{
name = top;
pos = (256,608);
},
{
name = topright;
pos = (456,608);
},
{
name = yamakkan;
pos = (456,608);
}
);
layerId = "CACD10EA-8E27-4203-9979-86A2B0F7ED74";
shapes = (
{
closed = 1;
nodes = (
(216,-10,o),
(257,40,o),
(264,107,c),
(245,67,l),
(267,67,l),
(249,107,l),
(254,40,o),
(298,-10,o),
(355,-10,cs),
(418,-10,o),
(456,36,o),
(456,113,cs),
(456,551,l),
(378,551,l),
(378,122,ls),
(378,78,o),
(364,56,o),
(335,56,cs),
(302,56,o),
(284,88,o),
(279,156,c),
(232,156,l),
(228,88,o),
(211,56,o),
(177,56,cs),
(147,56,o),
(130,87,o),
(130,141,cs),
(130,212,o),
(157,242,o),
(202,242,cs),
(228,242,l),
(228,303,l),
(204,303,ls),
(149,303,o),
(115,340,o),
(115,392,cs),
(115,398,o),
(115,401,o),
(115,408,c),
(96,428,l),
(96,392,o),
(103,360,o),
(152,360,cs),
(194,360,o),
(223,400,o),
(223,459,cs),
(223,521,o),
(192,558,o),
(141,558,cs),
(83,558,o),
(50,510,o),
(50,427,cs),
(50,322,o),
(103,282,o),
(136,275,c),
(136,271,l),
(107,266,o),
(53,232,o),
(53,129,cs),
(53,46,o),
(95,-10,o),
(157,-10,cs)
);
},
{
closed = 1;
nodes = (
(121,404,o),
(108,425,o),
(108,459,cs),
(108,493,o),
(121,514,o),
(143,514,cs),
(164,514,o),
(178,493,o),
(178,459,cs),
(178,425,o),
(164,404,o),
(143,404,cs)
);
}
);
width = 520;
},
{
anchors = (
{
name = bottom;
pos = (296,0);
},
{
name = bottomright;
pos = (543,0);
},
{
name = top;
pos = (296,608);
},
{
name = topright;
pos = (553,608);
},
{
name = yamakkan;
pos = (553,608);
}
);
layerId = "96C6A4AF-11F2-4EC9-996B-29C760E40A38";
shapes = (
{
closed = 1;
nodes = (
(254,-15,o),
(315,49,o),
(319,146,c),
(274,55,l),
(319,55,l),
(274,146,l),
(278,49,o),
(338,-15,o),
(421,-15,cs),
(501,-15,o),
(553,43,o),
(553,134,cs),
(553,561,l),
(381,561,l),
(381,156,ls),
(381,138,o),
(374,126,o),
(363,126,cs),
(348,126,o),
(340,136,o),
(337,180,c),
(255,180,l),
(252,136,o),
(244,126,o),
(230,126,cs),
(217,126,o),
(210,138,o),
(210,163,cs),
(210,199,o),
(224,221,o),
(256,221,cs),
(263,221,l),
(263,318,l),
(261,318,ls),
(200,318,o),
(169,348,o),
(169,397,cs),
(169,404,o),
(169,410,o),
(169,417,c),
(117,417,l),
(117,391,o),
(153,359,o),
(186,359,cs),
(239,359,o),
(276,403,o),
(276,465,cs),
(276,528,o),
(231,571,o),
(163,571,cs),
(84,571,o),
(35,517,o),
(35,428,cs),
(35,334,o),
(83,291,o),
(130,274,c),
(130,269,l),
(88,262,o),
(39,225,o),
(39,136,cs),
(39,48,o),
(95,-15,o),
(173,-15,cs)
);
},
{
closed = 1;
nodes = (
(149,419,o),
(134,436,o),
(134,465,cs),
(134,494,o),
(149,511,o),
(173,511,cs),
(197,511,o),
(212,494,o),
(212,465,cs),
(212,436,o),
(197,419,o),
(173,419,cs)
);
}
);
width = 603;
}
);
metricLeft = "nyoNyung-lao";
metricRight = "doDek-lao";
subCategory = Spacing;
unicode = 3727;
},
{
glyphname = "ttha-lao";
kernLeft = "boBae-lao";
kernRight = "doDek-lao";
lastChange = "2023-01-11 12:21:26 +0000";
layers = (
{
anchors = (
{
name = bottom;
pos = (325,0);
},
{
name = bottomright;
pos = (436,0);
},
{
name = top;
pos = (317,608);
},
{
name = topright;
pos = (544,608);
},
{
name = yamakkan;
pos = (544,608);
}
);
layerId = "2CD50835-5B7E-4D2A-958C-2F579F79E971";
shapes = (
{
closed = 1;
nodes = (
(118,155,o),
(85,122,o),
(85,75,cs),
(85,28,o),
(118,-5,o),
(166,-5,cs),
(219,-5,o),
(250,28,o),
(250,78,cs),
(250,96,o),
(224,155,o),
(165,155,cs)
);
},
{
closed = 1;
nodes = (
(201,132,o),
(222,110,o),
(222,75,cs),
(222,40,o),
(201,18,o),
(166,18,cs),
(131,18,o),
(110,40,o),
(110,75,cs),
(110,110,o),
(131,132,o),
(166,132,cs)
);
},
{
closed = 1;
nodes = (
(544,486,o),
(454,558,o),
(310,558,cs),
(173,558,o),
(88,496,o),
(88,397,cs),
(88,283,o),
(215,171,o),
(215,119,c),
(250,78,l),
(250,178,o),
(115,283,o),
(115,397,cs),
(115,482,o),
(188,533,o),
(310,533,cs),
(441,533,o),
(518,471,o),
(518,365,cs),
(518,-33,ls),
(518,-90,o),
(526,-139,o),
(547,-171,c),
(571,-162,l),
(549,-126,o),
(544,-82,o),
(544,-30,cs),
(544,370,ls)
);
}
);
width = 648;
},
{
anchors = (
{
name = bottom;
pos = (328,0);
},
{
name = bottomright;
pos = (428,0);
},
{
name = top;
pos = (328,608);
},
{
name = topright;
pos = (574,608);
},
{
name = yamakkan;
pos = (579,608);
}
);
hints = (
{
place = (493, 86);
type = Stem;
},
{
horizontal = 1;
origin = (2,2);
target = (2,15);
type = Stem;
},
{
horizontal = 1;
origin = (0,5);
target = (1,5);
type = Stem;
}
);
layerId = "6E668239-F79A-4803-9842-9160852853A7";
shapes = (
{
closed = 1;
nodes = (
(109,191,o),
(70,151,o),
(70,94,cs),
(70,32,o),
(111,-7,o),
(176,-7,cs),
(238,-7,o),
(278,32,o),
(278,93,cs),
(278,145,o),
(237,191,o),
(166,191,cs)
);
},
{
closed = 1;
nodes = (
(205,143,o),
(224,124,o),
(224,92,cs),
(224,60,o),
(205,41,o),
(174,41,cs),
(143,41,o),
(124,60,o),
(124,92,cs),
(124,124,o),
(143,143,o),
(174,143,cs)
);
},
{
closed = 1;
nodes = (
(579,486,o),
(482,563,o),
(321,563,cs),
(169,563,o),
(74,498,o),
(74,393,cs),
(74,275,o),
(180,202,o),
(180,160,c),
(278,93,l),
(278,196,o),
(161,279,o),
(161,382,cs),
(161,450,o),
(220,490,o),
(321,490,cs),
(431,490,o),
(493,439,o),
(493,348,cs),
(493,-35,ls),
(493,-87,o),
(503,-142,o),
(523,-172,c),
(604,-154,l),
(585,-118,o),
(579,-75,o),
(579,-22,cs),
(579,358,ls)
);
}
);
width = 669;
},
{
anchors = (
{
name = bottom;
pos = (321,0);
},
{
name = bottomright;
pos = (419,0);
},
{
name = top;
pos = (344,608);
},
{
name = topright;
pos = (625,608);
},
{
name = yamakkan;
pos = (635,608);
}
);
layerId = "EC79AED6-C145-434E-AE62-F6F3D2AFA8D1";
shapes = (
{
closed = 1;
nodes = (
(91,204,o),
(48,160,o),
(48,96,cs),
(48,33,o),
(95,-10,o),
(182,-10,cs),
(273,-10,o),
(325,41,o),
(325,111,cs),
(325,167,o),
(249,204,o),
(155,204,cs)
);
},
{
closed = 1;
nodes = (
(197,142,o),
(215,125,o),
(215,97,cs),
(215,69,o),
(197,52,o),
(167,52,cs),
(137,52,o),
(119,69,o),
(119,97,cs),
(119,125,o),
(137,142,o),
(167,142,cs)
);
},
{
closed = 1;
nodes = (
(635,492,o),
(520,578,o),
(338,578,cs),
(167,578,o),
(51,502,o),
(51,390,cs),
(51,284,o),
(154,206,o),
(154,164,c),
(325,111,l),
(325,200,o),
(237,284,o),
(237,356,cs),
(237,403,o),
(275,432,o),
(339,432,cs),
(407,432,o),
(449,396,o),
(449,336,cs),
(449,-32,ls),
(449,-88,o),
(460,-140,o),
(480,-172,c),
(658,-145,l),
(641,-107,o),
(635,-65,o),
(635,-15,cs),
(635,355,ls)
);
}
);
width = 701;
},
{
anchors = (
{
name = bottom;
pos = (231,0);
},
{
name = bottomright;
pos = (294,0);
},
{
name = top;
pos = (227,608);
},
{
name = topright;
pos = (390,608);
},
{
name = yamakkan;
pos = (390,608);
}
);
layerId = "FFE3C573-8034-42D7-BBA7-2D1C8826F1F5";
shapes = (
{
closed = 1;
nodes = (
(81,153,o),
(57,122,o),
(57,75,cs),
(57,27,o),
(81,-5,o),
(119,-5,cs),
(156,-5,o),
(180,27,o),
(180,78,cs),
(180,102,o),
(160,153,o),
(117,153,cs)
);
},
{
closed = 1;
nodes = (
(143,132,o),
(157,111,o),
(157,74,cs),
(157,37,o),
(143,16,o),
(118,16,cs),
(93,16,o),
(79,37,o),
(79,74,cs),
(79,111,o),
(93,132,o),
(118,132,cs)
);
},
{
closed = 1;
nodes = (
(390,493,o),
(327,556,o),
(221,556,cs),
(123,556,o),
(62,496,o),
(62,399,cs),
(62,283,o),
(149,183,o),
(149,118,c),
(180,78,l),
(180,178,o),
(86,283,o),
(86,400,cs),
(86,483,o),
(136,533,o),
(221,533,cs),
(313,533,o),
(366,479,o),
(366,383,cs),
(366,-43,ls),
(366,-100,o),
(373,-139,o),
(389,-171,c),
(412,-162,l),
(395,-126,o),
(390,-92,o),
(390,-40,cs),
(390,388,ls)
);
}
);
width = 460;
},
{
anchors = (
{
name = bottom;
pos = (241,0);
},
{
name = bottomright;
pos = (304,0);
},
{
name = top;
pos = (244,608);
},
{
name = topright;
pos = (431,608);
},
{
name = yamakkan;
pos = (436,608);
}
);
layerId = "CACD10EA-8E27-4203-9979-86A2B0F7ED74";
shapes = (
{
closed = 1;
nodes = (
(78,191,o),
(49,151,o),
(49,92,cs),
(49,30,o),
(80,-7,o),
(132,-7,cs),
(182,-7,o),
(212,32,o),
(212,90,cs),
(212,143,o),
(169,191,o),
(120,191,cs)
);
},
{
closed = 1;
nodes = (
(150,147,o),
(164,126,o),
(164,92,cs),
(164,58,o),
(150,37,o),
(129,37,cs),
(108,37,o),
(94,58,o),
(94,92,cs),
(94,126,o),
(108,147,o),
(129,147,cs)
);
},
{
closed = 1;
nodes = (
(436,487,o),
(361,561,o),
(240,561,cs),
(125,561,o),
(52,496,o),
(52,392,cs),
(52,275,o),
(132,207,o),
(132,153,c),
(212,90,l),
(212,193,o),
(130,278,o),
(130,383,cs),
(130,453,o),
(171,495,o),
(240,495,cs),
(314,495,o),
(358,444,o),
(358,358,cs),
(358,-45,ls),
(358,-97,o),
(367,-142,o),
(381,-172,c),
(455,-154,l),
(441,-118,o),
(436,-85,o),
(436,-32,cs),
(436,367,ls)
);
}
);
width = 500;
},
{
anchors = (
{
name = bottom;
pos = (263,0);
},
{
name = bottomright;
pos = (332,0);
},
{
name = top;
pos = (285,608);
},
{
name = topright;
pos = (522,608);
},
{
name = yamakkan;
pos = (532,608);
}
);
layerId = "96C6A4AF-11F2-4EC9-996B-29C760E40A38";
shapes = (
{
closed = 1;
nodes = (
(72,202,o),
(35,158,o),
(35,96,cs),
(35,33,o),
(78,-10,o),
(152,-10,cs),
(232,-10,o),
(276,44,o),
(276,108,cs),
(276,164,o),
(207,202,o),
(127,202,cs)
);
},
{
closed = 1;
nodes = (
(162,142,o),
(177,125,o),
(177,96,cs),
(177,67,o),
(162,50,o),
(138,50,cs),
(114,50,o),
(99,67,o),
(99,96,cs),
(99,125,o),
(114,142,o),
(138,142,cs)
);
},
{
closed = 1;
nodes = (
(532,492,o),
(436,576,o),
(282,576,cs),
(137,576,o),
(38,501,o),
(38,391,cs),
(38,283,o),
(119,215,o),
(119,163,c),
(276,108,l),
(276,199,o),
(210,284,o),
(210,360,cs),
(210,404,o),
(238,430,o),
(283,430,cs),
(333,430,o),
(360,400,o),
(360,345,cs),
(360,-32,ls),
(360,-88,o),
(369,-140,o),
(387,-172,c),
(553,-145,l),
(537,-107,o),
(532,-65,o),
(532,-15,cs),
(532,357,ls)
);
}
);
width = 582;
}
);
metricLeft = "boBae-lao";
metricRight = "=boBae-lao@300";
subCategory = Spacing;
unicode = 3728;
},
{
glyphname = "dda-lao";
kernLeft = "gha-lao";
kernRight = "doDek-lao";
lastChange = "2023-01-11 12:21:41 +0000";
layers = (
{
anchors = (
{
name = bottom;
pos = (644,0);
},
{
name = bottomright;
pos = (833,0);
},
{
name = top;
pos = (676,608);
},
{
name = topright;
pos = (833,608);
},
{
name = yamakkan;
pos = (833,608);
}
);
layerId = "2CD50835-5B7E-4D2A-958C-2F579F79E971";
shapes = (
{
closed = 1;
nodes = (
(478,-8,o),
(545,53,o),
(545,153,cs),
(545,394,ls),
(545,481,o),
(594,533,o),
(676,533,cs),
(758,533,o),
(807,481,o),
(807,394,cs),
(807,0,l),
(833,0,l),
(833,397,ls),
(833,496,o),
(773,558,o),
(676,558,cs),
(579,558,o),
(519,496,o),
(519,397,cs),
(519,156,ls),
(519,70,o),
(461,17,o),
(367,17,cs),
(278,17,o),
(228,63,o),
(228,134,cs),
(228,269,o),
(402,314,o),
(402,451,cs),
(402,515,o),
(365,558,o),
(310,558,cs),
(254,558,o),
(216,521,o),
(216,468,c),
(224,501,l),
(216,501,l),
(224,468,l),
(224,521,o),
(188,558,o),
(135,558,cs),
(75,558,o),
(40,508,o),
(40,423,cs),
(40,337,o),
(77,304,o),
(124,304,cs),
(173,304,o),
(199,333,o),
(199,380,cs),
(199,427,o),
(173,456,o),
(124,456,cs),
(86,456,o),
(51,428,o),
(51,385,c),
(63,418,l),
(63,492,o),
(90,533,o),
(138,533,cs),
(178,533,o),
(204,506,o),
(209,460,c),
(231,460,l),
(236,506,o),
(265,533,o),
(304,533,cs),
(350,533,o),
(375,504,o),
(375,451,cs),
(375,321,o),
(201,276,o),
(201,134,cs),
(201,45,o),
(263,-8,o),
(367,-8,cs)
);
},
{
closed = 1;
nodes = (
(91,327,o),
(72,347,o),
(72,380,cs),
(72,413,o),
(91,433,o),
(124,433,cs),
(157,433,o),
(176,413,o),
(176,380,cs),
(176,347,o),
(157,327,o),
(124,327,cs)
);
}
);
width = 937;
},
{
anchors = (
{
name = bottom;
pos = (672,0);
},
{
name = bottomright;
pos = (886,0);
},
{
name = top;
pos = (701,608);
},
{
name = topright;
pos = (881,608);
},
{
name = yamakkan;
pos = (886,608);
}
);
hints = (
{
horizontal = 1;
origin = (0,75);
target = (0,22);
type = Stem;
},
{
horizontal = 1;
origin = (0,40);
target = (0,6);
type = Stem;
},
{
horizontal = 1;
origin = (0,10);
target = up;
type = BottomGhost;
},
{
origin = (0,19);
target = (0,2);
type = Stem;
},
{
origin = (0,10);
target = (0,11);
type = Stem;
},
{
horizontal = 1;
origin = (0,31);
target = (0,66);
type = Stem;
}
);
layerId = "6E668239-F79A-4803-9842-9160852853A7";
shapes = (
{
closed = 1;
nodes = (
(522,-10,o),
(602,55,o),
(602,157,cs),
(602,380,ls),
(602,449,o),
(639,490,o),
(701,490,cs),
(763,490,o),
(800,449,o),
(800,380,cs),
(800,0,l),
(886,0,l),
(886,396,ls),
(886,499,o),
(815,563,o),
(701,563,cs),
(587,563,o),
(516,499,o),
(516,396,cs),
(516,172,ls),
(516,104,o),
(472,63,o),
(398,63,cs),
(323,63,o),
(283,101,o),
(283,157,cs),
(283,267,o),
(425,315,o),
(425,446,cs),
(425,518,o),
(383,563,o),
(318,563,cs),
(257,563,o),
(215,522,o),
(215,459,c),
(237,513,l),
(215,513,l),
(237,459,l),
(237,522,o),
(194,563,o),
(134,563,cs),
(68,563,o),
(26,508,o),
(26,421,cs),
(26,332,o),
(65,288,o),
(125,288,cs),
(177,288,o),
(214,320,o),
(214,373,cs),
(214,428,o),
(176,457,o),
(129,457,cs),
(79,457,o),
(47,425,o),
(47,373,c),
(88,421,l),
(88,468,o),
(108,502,o),
(149,502,cs),
(177,502,o),
(199,484,o),
(204,448,c),
(247,448,l),
(252,484,o),
(274,502,o),
(300,502,cs),
(333,502,o),
(353,481,o),
(353,443,cs),
(353,335,o),
(196,284,o),
(196,145,cs),
(196,53,o),
(272,-10,o),
(396,-10,cs)
);
},
{
closed = 1;
nodes = (
(102,333,o),
(87,348,o),
(87,373,cs),
(87,399,o),
(102,415,o),
(126,415,cs),
(151,415,o),
(165,398,o),
(165,373,cs),
(165,347,o),
(151,333,o),
(126,333,cs)
);
}
);
width = 976;
},
{
anchors = (
{
name = bottom;
pos = (727,0);
},
{
name = bottomright;
pos = (965,0);
},
{
name = top;
pos = (737,608);
},
{
name = topright;
pos = (955,608);
},
{
name = yamakkan;
pos = (965,608);
}
);
layerId = "EC79AED6-C145-434E-AE62-F6F3D2AFA8D1";
shapes = (
{
closed = 1;
nodes = (
(578,-15,o),
(674,59,o),
(674,167,cs),
(674,370,ls),
(674,408,o),
(694,431,o),
(727,431,cs),
(759,431,o),
(779,408,o),
(779,370,cs),
(779,0,l),
(965,0,l),
(965,395,ls),
(965,508,o),
(878,577,o),
(737,577,cs),
(596,577,o),
(508,507,o),
(508,395,cs),
(508,197,ls),
(508,153,o),
(482,131,o),
(438,131,cs),
(394,131,o),
(372,151,o),
(372,192,cs),
(372,257,o),
(462,330,o),
(462,444,cs),
(462,528,o),
(414,578,o),
(336,578,cs),
(266,578,o),
(216,538,o),
(216,462,c),
(248,531,l),
(216,531,l),
(248,462,l),
(248,538,o),
(198,578,o),
(128,578,cs),
(50,578,o),
(2,519,o),
(2,420,cs),
(2,323,o),
(49,272,o),
(126,272,cs),
(186,272,o),
(226,303,o),
(226,357,cs),
(226,407,o),
(181,434,o),
(142,434,cs),
(88,434,o),
(56,404,o),
(56,357,c),
(127,420,l),
(127,443,o),
(134,467,o),
(165,467,cs),
(184,467,o),
(202,458,o),
(206,437,c),
(258,437,l),
(262,458,o),
(277,467,o),
(291,467,cs),
(305,467,o),
(320,459,o),
(320,437,cs),
(320,372,o),
(185,292,o),
(185,163,cs),
(185,57,o),
(280,-15,o),
(426,-15,cs)
);
},
{
closed = 1;
nodes = (
(113,319,o),
(99,333,o),
(99,356,cs),
(99,379,o),
(113,393,o),
(135,393,cs),
(157,393,o),
(171,379,o),
(171,356,cs),
(171,333,o),
(157,319,o),
(135,319,cs)
);
}
);
width = 1031;
},
{
anchors = (
{
name = bottom;
pos = (472,0);
},
{
name = bottomright;
pos = (595,0);
},
{
name = top;
pos = (482,608);
},
{
name = topright;
pos = (595,608);
},
{
name = yamakkan;
pos = (595,608);
}
);
layerId = "FFE3C573-8034-42D7-BBA7-2D1C8826F1F5";
shapes = (
{
closed = 1;
nodes = (
(343,-8,o),
(391,43,o),
(391,133,cs),
(391,412,ls),
(391,490,o),
(423,533,o),
(481,533,cs),
(539,533,o),
(571,490,o),
(571,412,cs),
(571,0,l),
(595,0,l),
(595,415,ls),
(595,504,o),
(553,556,o),
(481,556,cs),
(409,556,o),
(367,504,o),
(367,415,cs),
(367,135,ls),
(367,58,o),
(329,15,o),
(264,15,cs),
(204,15,o),
(166,62,o),
(166,133,cs),
(166,269,o),
(287,312,o),
(287,452,cs),
(287,521,o),
(260,556,o),
(221,556,cs),
(180,556,o),
(152,519,o),
(152,466,c),
(160,502,l),
(152,502,l),
(160,466,l),
(160,518,o),
(133,556,o),
(94,556,cs),
(50,556,o),
(24,512,o),
(24,421,cs),
(24,335,o),
(50,303,o),
(86,303,cs),
(122,303,o),
(143,334,o),
(143,379,cs),
(143,424,o),
(122,453,o),
(87,453,cs),
(59,453,o),
(35,426,o),
(35,383,c),
(46,416,l),
(46,496,o),
(62,533,o),
(95,533,cs),
(123,533,o),
(142,505,o),
(146,458,c),
(166,458,l),
(170,505,o),
(189,533,o),
(217,533,cs),
(245,533,o),
(263,508,o),
(263,452,cs),
(263,318,o),
(142,276,o),
(142,134,cs),
(142,50,o),
(187,-8,o),
(264,-8,cs)
);
},
{
closed = 1;
nodes = (
(63,324,o),
(51,344,o),
(51,379,cs),
(51,414,o),
(63,432,o),
(86,432,cs),
(109,432,o),
(123,414,o),
(123,379,cs),
(123,344,o),
(109,324,o),
(86,324,cs)
);
}
);
width = 665;
},
{
anchors = (
{
name = bottom;
pos = (509,0);
},
{
name = bottomright;
pos = (668,0);
},
{
name = top;
pos = (523,608);
},
{
name = topright;
pos = (663,608);
},
{
name = yamakkan;
pos = (668,608);
}
);
layerId = "CACD10EA-8E27-4203-9979-86A2B0F7ED74";
shapes = (
{
closed = 1;
nodes = (
(398,-10,o),
(458,50,o),
(458,146,cs),
(458,401,ls),
(458,463,o),
(481,495,o),
(524,495,cs),
(567,495,o),
(590,463,o),
(590,401,cs),
(590,0,l),
(668,0,l),
(668,412,ls),
(668,505,o),
(614,561,o),
(524,561,cs),
(434,561,o),
(380,505,o),
(380,412,cs),
(380,160,ls),
(380,96,o),
(356,56,o),
(300,56,cs),
(250,56,o),
(223,95,o),
(223,153,cs),
(223,267,o),
(323,314,o),
(323,446,cs),
(323,517,o),
(289,561,o),
(239,561,cs),
(193,561,o),
(161,521,o),
(161,460,c),
(178,513,l),
(161,513,l),
(178,460,l),
(178,522,o),
(144,561,o),
(99,561,cs),
(48,561,o),
(16,507,o),
(16,420,cs),
(16,331,o),
(47,290,o),
(94,290,cs),
(136,290,o),
(164,321,o),
(164,373,cs),
(164,427,o),
(136,458,o),
(99,458,cs),
(59,458,o),
(39,424,o),
(39,374,c),
(72,420,l),
(72,470,o),
(84,505,o),
(113,505,cs),
(134,505,o),
(148,486,o),
(151,449,c),
(187,449,l),
(190,485,o),
(203,505,o),
(222,505,cs),
(244,505,o),
(258,484,o),
(258,443,cs),
(258,332,o),
(144,283,o),
(144,143,cs),
(144,52,o),
(203,-10,o),
(297,-10,cs)
);
},
{
closed = 1;
nodes = (
(76,330,o),
(66,347,o),
(66,374,cs),
(66,401,o),
(76,418,o),
(95,418,cs),
(114,418,o),
(124,401,o),
(124,374,cs),
(124,347,o),
(114,330,o),
(95,330,cs)
);
}
);
width = 732;
},
{
anchors = (
{
name = bottom;
pos = (592,0);
},
{
name = bottomright;
pos = (807,0);
},
{
name = top;
pos = (612,608);
},
{
name = topright;
pos = (797,608);
},
{
name = yamakkan;
pos = (807,608);
}
);
layerId = "96C6A4AF-11F2-4EC9-996B-29C760E40A38";
shapes = (
{
closed = 1;
nodes = (
(486,-15,o),
(567,54,o),
(567,165,cs),
(567,387,ls),
(567,414,o),
(580,430,o),
(601,430,cs),
(622,430,o),
(635,414,o),
(635,387,cs),
(635,0,l),
(807,0,l),
(807,396,ls),
(807,507,o),
(732,576,o),
(611,576,cs),
(491,576,o),
(415,507,o),
(415,396,cs),
(415,191,ls),
(415,152,o),
(398,131,o),
(367,131,cs),
(336,131,o),
(319,153,o),
(319,186,cs),
(319,257,o),
(386,328,o),
(386,444,cs),
(386,527,o),
(345,576,o),
(279,576,cs),
(220,576,o),
(179,536,o),
(179,462,c),
(205,528,l),
(179,528,l),
(205,462,l),
(205,536,o),
(163,576,o),
(104,576,cs),
(38,576,o),
(-3,517,o),
(-3,420,cs),
(-3,324,o),
(37,274,o),
(104,274,cs),
(156,274,o),
(189,306,o),
(189,359,cs),
(189,417,o),
(151,438,o),
(120,438,cs),
(73,438,o),
(47,408,o),
(47,359,c),
(112,420,l),
(112,445,o),
(115,469,o),
(139,469,cs),
(151,469,o),
(165,463,o),
(169,439,c),
(215,439,l),
(218,462,o),
(227,469,o),
(237,469,cs),
(248,469,o),
(256,462,o),
(256,438,cs),
(256,367,o),
(148,290,o),
(148,160,cs),
(148,53,o),
(229,-15,o),
(357,-15,cs)
);
},
{
closed = 1;
nodes = (
(93,320,o),
(81,333,o),
(81,358,cs),
(81,382,o),
(93,396,o),
(110,396,cs),
(127,396,o),
(139,382,o),
(139,358,cs),
(139,333,o),
(127,320,o),
(110,320,cs)
);
}
);
width = 857;
}
);
metricLeft = "gha-lao";
metricRight = "doDek-lao";
subCategory = Spacing;
unicode = 3729;
},
{
glyphname = "ddha-lao";
kernLeft = "doDek-lao";
kernRight = "noNok-lao";
lastChange = "2023-01-11 12:21:56 +0000";
layers = (
{
anchors = (
{
name = bottom;
pos = (694,0);
},
{
name = bottomright;
pos = (918,0);
},
{
name = top;
pos = (734,608);
},
{
name = topright;
pos = (918,608);
},
{
name = yamakkan;
pos = (918,608);
}
);
layerId = "2CD50835-5B7E-4D2A-958C-2F579F79E971";
shapes = (
{
closed = 1;
nodes = (
(852,-8,o),
(918,61,o),
(918,171,cs),
(918,550,l),
(892,550,l),
(892,176,ls),
(892,76,o),
(838,17,o),
(748,17,cs),
(668,17,o),
(612,58,o),
(571,117,c),
(564,75,l),
(589,75,l),
(567,92,l),
(599,39,o),
(663,-8,o),
(748,-8,cs)
);
},
{
closed = 1;
nodes = (
(104,78,ls),
(104,28,o),
(137,-5,o),
(186,-5,cs),
(236,-5,o),
(269,27,o),
(269,75,cs),
(269,122,o),
(237,155,o),
(190,155,cs),
(142,155,o),
(112,124,o),
(112,75,c),
(116,75,l),
(116,94,o),
(125,115,o),
(130,115,c),
(130,436,ls),
(130,498,o),
(161,533,o),
(218,533,cs),
(281,533,o),
(320,491,o),
(329,412,c),
(351,412,l),
(360,491,o),
(399,533,o),
(462,533,cs),
(519,533,o),
(550,498,o),
(550,436,cs),
(550,122,l),
(554,122,o),
(572,97,o),
(572,78,c),
(574,78,l),
(574,108,o),
(549,155,o),
(491,155,cs),
(444,155,o),
(411,122,o),
(411,75,cs),
(411,27,o),
(444,-5,o),
(492,-5,cs),
(544,-5,o),
(576,27,o),
(576,78,c),
(576,438,ls),
(576,514,o),
(535,558,o),
(464,558,cs),
(385,558,o),
(337,505,o),
(337,417,c),
(343,458,l),
(337,458,l),
(343,417,l),
(343,505,o),
(295,558,o),
(216,558,cs),
(145,558,o),
(104,514,o),
(104,438,cs)
);
},
{
closed = 1;
nodes = (
(223,132,o),
(244,110,o),
(244,75,cs),
(244,40,o),
(223,18,o),
(188,18,cs),
(153,18,o),
(132,40,o),
(132,75,cs),
(132,110,o),
(153,132,o),
(188,132,cs)
);
},
{
closed = 1;
nodes = (
(457,18,o),
(436,40,o),
(436,75,cs),
(436,110,o),
(457,132,o),
(492,132,cs),
(516,132,o),
(537,123,o),
(550,106,c),
(550,98,o),
(550,92,o),
(550,85,cs),
(550,39,o),
(526,18,o),
(492,18,cs)
);
}
);
width = 1022;
},
{
anchors = (
{
name = bottom;
pos = (720,0);
},
{
name = bottomright;
pos = (953,0);
},
{
name = top;
pos = (745,608);
},
{
name = topright;
pos = (958,608);
},
{
name = yamakkan;
pos = (958,608);
}
);
hints = (
{
horizontal = 1;
origin = (1,60);
target = (1,20);
type = Stem;
},
{
horizontal = 1;
origin = (0,17);
target = (0,8);
type = Stem;
},
{
horizontal = 1;
origin = (0,4);
target = down;
type = TopGhost;
},
{
origin = (1,31);
target = (1,47);
type = Stem;
},
{
origin = (0,5);
target = (0,2);
type = Stem;
},
{
origin = (1,0);
target = (1,16);
type = Stem;
},
{
horizontal = 1;
origin = (1,3);
target = (2,5);
type = Stem;
}
);
layerId = "6E668239-F79A-4803-9842-9160852853A7";
shapes = (
{
closed = 1;
nodes = (
(893,-10,o),
(958,62,o),
(958,177,cs),
(958,553,l),
(872,553,l),
(872,186,ls),
(872,108,o),
(834,63,o),
(770,63,cs),
(716,63,o),
(660,89,o),
(609,151,c),
(596,66,l),
(634,66,l),
(605,80,l),
(638,36,o),
(703,-10,o),
(787,-10,cs)
);
},
{
closed = 1;
nodes = (
(90,93,ls),
(90,32,o),
(130,-7,o),
(194,-7,cs),
(257,-7,o),
(298,32,o),
(298,93,cs),
(298,151,o),
(259,191,o),
(202,191,cs),
(135,191,o),
(96,155,o),
(96,92,c),
(109,92,l),
(109,124,o),
(147,165,o),
(176,165,c),
(176,417,ls),
(176,464,o),
(200,490,o),
(242,490,cs),
(292,490,o),
(317,458,o),
(323,389,c),
(385,389,l),
(391,458,o),
(417,490,o),
(466,490,cs),
(508,490,o),
(532,464,o),
(532,417,cs),
(532,166,l),
(562,166,o),
(610,129,o),
(610,94,c),
(615,94,l),
(615,140,o),
(571,191,o),
(512,191,cs),
(449,191,o),
(410,151,o),
(410,93,cs),
(410,32,o),
(451,-7,o),
(513,-7,cs),
(578,-7,o),
(618,31,o),
(618,102,c),
(618,427,ls),
(618,510,o),
(565,563,o),
(483,563,cs),
(396,563,o),
(341,501,o),
(341,403,c),
(367,482,l),
(341,482,l),
(367,403,l),
(367,501,o),
(312,563,o),
(225,563,cs),
(143,563,o),
(90,510,o),
(90,427,cs)
);
},
{
closed = 1;
nodes = (
(225,143,o),
(244,124,o),
(244,92,cs),
(244,60,o),
(225,41,o),
(194,41,cs),
(163,41,o),
(144,60,o),
(144,92,cs),
(144,124,o),
(163,143,o),
(194,143,cs)
);
},
{
closed = 1;
nodes = (
(483,41,o),
(464,60,o),
(464,92,cs),
(464,124,o),
(483,143,o),
(514,143,cs),
(535,143,o),
(552,136,o),
(561,130,c),
(563,119,o),
(564,110,o),
(564,92,cs),
(564,60,o),
(546,41,o),
(514,41,cs)
);
}
);
width = 1048;
},
{
anchors = (
{
name = bottom;
pos = (726,0);
},
{
name = bottomright;
pos = (1000,0);
},
{
name = top;
pos = (748,608);
},
{
name = topright;
pos = (1010,608);
},
{
name = yamakkan;
pos = (1010,608);
}
);
layerId = "EC79AED6-C145-434E-AE62-F6F3D2AFA8D1";
shapes = (
{
closed = 1;
nodes = (
(937,-15,o),
(1010,65,o),
(1010,199,cs),
(1010,563,l),
(824,563,l),
(824,218,ls),
(824,162,o),
(797,131,o),
(748,131,cs),
(717,131,o),
(686,144,o),
(661,171,c),
(621,55,l),
(668,55,l),
(642,73,l),
(678,23,o),
(732,-15,o),
(815,-15,cs)
);
},
{
closed = 1;
nodes = (
(66,139,ls),
(66,47,o),
(124,-10,o),
(218,-10,cs),
(292,-10,o),
(343,33,o),
(343,96,cs),
(343,160,o),
(300,204,o),
(237,204,cs),
(160,204,o),
(85,174,o),
(85,96,c),
(110,96,l),
(110,143,o),
(174,182,o),
(252,182,c),
(252,403,ls),
(252,425,o),
(263,438,o),
(281,438,cs),
(305,438,o),
(318,417,o),
(323,367,c),
(415,367,l),
(420,418,o),
(432,438,o),
(456,438,cs),
(475,438,o),
(486,425,o),
(486,403,cs),
(486,182,l),
(564,182,o),
(626,148,o),
(626,105,c),
(661,105,l),
(661,165,o),
(587,204,o),
(504,204,cs),
(439,204,o),
(395,160,o),
(395,96,cs),
(395,33,o),
(446,-10,o),
(520,-10,cs),
(616,-10,o),
(672,47,o),
(672,147,c),
(672,421,ls),
(672,517,o),
(612,578,o),
(518,578,cs),
(412,578,o),
(346,506,o),
(346,391,c),
(392,499,l),
(346,499,l),
(392,391,l),
(392,506,o),
(326,578,o),
(220,578,cs),
(126,578,o),
(66,517,o),
(66,421,cs)
);
},
{
closed = 1;
nodes = (
(254,142,o),
(272,125,o),
(272,97,cs),
(272,69,o),
(254,52,o),
(224,52,cs),
(194,52,o),
(176,69,o),
(176,97,cs),
(176,125,o),
(194,142,o),
(224,142,cs)
);
},
{
closed = 1;
nodes = (
(484,52,o),
(466,69,o),
(466,97,cs),
(466,125,o),
(484,142,o),
(513,142,cs),
(529,142,o),
(547,138,o),
(560,131,c),
(562,120,o),
(562,110,o),
(562,97,cs),
(562,69,o),
(543,52,o),
(514,52,cs)
);
}
);
width = 1076;
},
{
anchors = (
{
name = bottom;
pos = (505,0);
},
{
name = bottomright;
pos = (653,0);
},
{
name = top;
pos = (520,608);
},
{
name = topright;
pos = (653,608);
},
{
name = yamakkan;
pos = (653,608);
}
);
layerId = "FFE3C573-8034-42D7-BBA7-2D1C8826F1F5";
shapes = (
{
closed = 1;
nodes = (
(607,-8,o),
(653,56,o),
(653,161,cs),
(653,548,l),
(629,548,l),
(629,166,ls),
(629,70,o),
(593,15,o),
(531,15,cs),
(477,15,o),
(436,57,o),
(406,116,c),
(400,75,l),
(419,75,l),
(403,92,l),
(426,39,o),
(473,-8,o),
(532,-8,cs)
);
},
{
closed = 1;
nodes = (
(70,76,ls),
(70,27,o),
(94,-5,o),
(132,-5,cs),
(169,-5,o),
(193,26,o),
(193,75,cs),
(193,122,o),
(169,153,o),
(133,153,cs),
(97,153,o),
(78,121,o),
(78,75,c),
(81,75,l),
(81,93,o),
(88,114,o),
(94,114,c),
(94,449,ls),
(94,505,o),
(114,533,o),
(154,533,cs),
(197,533,o),
(224,490,o),
(230,411,c),
(250,411,l),
(256,490,o),
(283,533,o),
(326,533,cs),
(366,533,o),
(386,505,o),
(386,449,cs),
(386,121,l),
(394,121,o),
(404,96,o),
(404,78,c),
(408,78,l),
(408,107,o),
(389,153,o),
(347,153,cs),
(311,153,o),
(287,122,o),
(287,74,cs),
(287,26,o),
(312,-5,o),
(349,-5,cs),
(386,-5,o),
(410,28,o),
(410,77,c),
(410,451,ls),
(410,517,o),
(380,556,o),
(328,556,cs),
(271,556,o),
(236,502,o),
(236,415,c),
(244,468,l),
(236,468,l),
(244,415,l),
(244,502,o),
(209,556,o),
(152,556,cs),
(100,556,o),
(70,517,o),
(70,451,cs)
);
},
{
closed = 1;
nodes = (
(157,132,o),
(171,111,o),
(171,74,cs),
(171,37,o),
(157,16,o),
(132,16,cs),
(107,16,o),
(93,37,o),
(93,74,cs),
(93,111,o),
(107,132,o),
(132,132,cs)
);
},
{
closed = 1;
nodes = (
(323,16,o),
(309,37,o),
(309,74,cs),
(309,111,o),
(323,132,o),
(348,132,cs),
(365,132,o),
(379,122,o),
(388,105,c),
(388,97,o),
(388,90,o),
(388,84,cs),
(388,39,o),
(374,16,o),
(348,16,cs)
);
}
);
width = 723;
},
{
anchors = (
{
name = bottom;
pos = (536,0);
},
{
name = bottomright;
pos = (711,0);
},
{
name = top;
pos = (551,608);
},
{
name = topright;
pos = (716,608);
},
{
name = yamakkan;
pos = (716,608);
}
);
layerId = "CACD10EA-8E27-4203-9979-86A2B0F7ED74";
shapes = (
{
closed = 1;
nodes = (
(667,-10,o),
(716,56,o),
(716,168,cs),
(716,551,l),
(638,551,l),
(638,176,ls),
(638,99,o),
(611,56,o),
(562,56,cs),
(524,56,o),
(487,84,o),
(457,143,c),
(443,63,l),
(471,63,l),
(452,81,l),
(474,38,o),
(521,-10,o),
(584,-10,cs)
);
},
{
closed = 1;
nodes = (
(64,103,ls),
(64,32,o),
(92,-7,o),
(145,-7,cs),
(196,-7,o),
(227,30,o),
(227,92,cs),
(227,151,o),
(198,191,o),
(156,191,cs),
(107,191,o),
(71,153,o),
(71,89,c),
(82,89,l),
(82,119,o),
(113,157,o),
(142,157,c),
(142,429,ls),
(142,474,o),
(156,495,o),
(185,495,cs),
(218,495,o),
(235,464,o),
(240,392,c),
(288,392,l),
(293,463,o),
(310,495,o),
(343,495,cs),
(372,495,o),
(386,473,o),
(386,429,cs),
(386,159,l),
(416,159,o),
(450,123,o),
(450,91,c),
(460,91,l),
(460,137,o),
(424,191,o),
(373,191,cs),
(330,191,o),
(301,151,o),
(301,91,cs),
(301,30,o),
(331,-7,o),
(381,-7,cs),
(434,-7,o),
(464,31,o),
(464,98,c),
(464,438,ls),
(464,515,o),
(426,561,o),
(363,561,cs),
(296,561,o),
(254,500,o),
(254,404,c),
(275,484,l),
(254,484,l),
(275,404,l),
(275,500,o),
(232,561,o),
(165,561,cs),
(102,561,o),
(64,515,o),
(64,438,cs)
);
},
{
closed = 1;
nodes = (
(168,147,o),
(182,126,o),
(182,92,cs),
(182,58,o),
(168,37,o),
(147,37,cs),
(125,37,o),
(112,58,o),
(112,92,cs),
(112,126,o),
(125,147,o),
(147,147,cs)
);
},
{
closed = 1;
nodes = (
(360,37,o),
(346,59,o),
(346,91,cs),
(346,124,o),
(360,147,o),
(380,147,cs),
(397,147,o),
(406,139,o),
(414,132,c),
(415,122,o),
(416,112,o),
(416,91,cs),
(416,58,o),
(403,37,o),
(380,37,cs)
);
}
);
width = 780;
},
{
anchors = (
{
name = bottom;
pos = (609,0);
},
{
name = bottomright;
pos = (830,0);
},
{
name = top;
pos = (616,608);
},
{
name = topright;
pos = (840,608);
},
{
name = yamakkan;
pos = (840,608);
}
);
layerId = "96C6A4AF-11F2-4EC9-996B-29C760E40A38";
shapes = (
{
closed = 1;
nodes = (
(779,-15,o),
(840,63,o),
(840,193,cs),
(840,561,l),
(668,561,l),
(668,207,ls),
(668,155,o),
(651,131,o),
(614,131,cs),
(595,131,o),
(573,135,o),
(554,168,c),
(516,56,l),
(558,56,l),
(541,73,l),
(567,24,o),
(609,-15,o),
(677,-15,cs)
);
},
{
closed = 1;
nodes = (
(50,132,ls),
(50,45,o),
(100,-10,o),
(178,-10,cs),
(246,-10,o),
(291,33,o),
(291,96,cs),
(291,158,o),
(254,202,o),
(201,202,cs),
(135,202,o),
(67,171,o),
(67,95,c),
(90,95,l),
(90,140,o),
(149,179,o),
(222,179,c),
(222,405,ls),
(222,424,o),
(228,435,o),
(239,435,cs),
(256,435,o),
(261,421,o),
(265,370,c),
(349,370,l),
(352,421,o),
(357,435,o),
(374,435,cs),
(385,435,o),
(392,423,o),
(392,405,cs),
(392,179,l),
(464,179,o),
(521,145,o),
(521,103,c),
(544,103,l),
(544,161,o),
(486,202,o),
(414,202,cs),
(361,202,o),
(323,158,o),
(323,95,cs),
(323,33,o),
(368,-10,o),
(434,-10,cs),
(516,-10,o),
(564,45,o),
(564,140,c),
(564,427,ls),
(564,518,o),
(512,576,o),
(432,576,cs),
(344,576,o),
(285,507,o),
(285,403,c),
(328,506,l),
(285,506,l),
(328,403,l),
(328,507,o),
(270,576,o),
(181,576,cs),
(101,576,o),
(50,517,o),
(50,427,cs)
);
},
{
closed = 1;
nodes = (
(212,142,o),
(227,125,o),
(227,96,cs),
(227,67,o),
(212,50,o),
(188,50,cs),
(164,50,o),
(149,67,o),
(149,96,cs),
(149,125,o),
(164,142,o),
(188,142,cs)
);
},
{
closed = 1;
nodes = (
(402,50,o),
(387,68,o),
(387,96,cs),
(387,124,o),
(401,142,o),
(424,142,cs),
(437,142,o),
(453,137,o),
(463,130,c),
(465,119,o),
(465,109,o),
(465,96,cs),
(465,68,o),
(450,50,o),
(425,50,cs)
);
}
);
width = 890;
}
);
metricLeft = "doDek-lao";
metricRight = "doDek-lao";
subCategory = Spacing;
unicode = 3730;
},
{
glyphname = "nna-lao";
kernLeft = "doDek-lao";
kernRight = "doDek-lao";
lastChange = "2023-01-11 12:22:18 +0000";
layers = (
{
anchors = (
{
name = bottom;
pos = (543,0);
},
{
name = bottomright;
pos = (716,0);
},
{
name = top;
pos = (558,608);
},
{
name = topright;
pos = (716,608);
},
{
name = yamakkan;
pos = (716,608);
}
);
layerId = "2CD50835-5B7E-4D2A-958C-2F579F79E971";
shapes = (
{
closed = 1;
nodes = (
(104,78,ls),
(104,28,o),
(137,-5,o),
(186,-5,cs),
(236,-5,o),
(269,27,o),
(269,75,cs),
(269,122,o),
(237,155,o),
(190,155,cs),
(142,155,o),
(112,124,o),
(112,75,c),
(116,75,l),
(116,94,o),
(125,115,o),
(130,115,c),
(130,394,ls),
(130,481,o),
(181,533,o),
(265,533,cs),
(350,533,o),
(400,481,o),
(400,394,cs),
(400,0,l),
(426,0,l),
(426,394,ls),
(426,481,o),
(476,533,o),
(558,533,cs),
(641,533,o),
(690,481,o),
(690,394,cs),
(690,0,l),
(716,0,l),
(716,397,ls),
(716,496,o),
(656,558,o),
(559,558,cs),
(465,558,o),
(407,496,o),
(407,397,c),
(419,453,l),
(407,453,l),
(419,397,l),
(419,496,o),
(359,558,o),
(264,558,cs),
(166,558,o),
(104,496,o),
(104,397,cs)
);
},
{
closed = 1;
nodes = (
(223,132,o),
(244,110,o),
(244,75,cs),
(244,40,o),
(223,18,o),
(188,18,cs),
(153,18,o),
(132,40,o),
(132,75,cs),
(132,110,o),
(153,132,o),
(188,132,cs)
);
}
);
width = 820;
},
{
anchors = (
{
name = bottom;
pos = (574,0);
},
{
name = bottomright;
pos = (760,0);
},
{
name = top;
pos = (573,608);
},
{
name = topright;
pos = (755,608);
},
{
name = yamakkan;
pos = (760,608);
}
);
hints = (
{
horizontal = 1;
origin = (0,47);
target = (0,20);
type = Stem;
},
{
horizontal = 1;
origin = (0,24);
target = up;
type = BottomGhost;
},
{
origin = (0,0);
target = (0,16);
type = Stem;
},
{
origin = (0,24);
target = (0,25);
type = Stem;
},
{
origin = (0,33);
target = (0,34);
type = Stem;
},
{
horizontal = 1;
origin = (0,3);
target = (1,5);
type = Stem;
}
);
layerId = "6E668239-F79A-4803-9842-9160852853A7";
shapes = (
{
closed = 1;
nodes = (
(90,93,ls),
(90,32,o),
(130,-7,o),
(194,-7,cs),
(257,-7,o),
(298,32,o),
(298,93,cs),
(298,151,o),
(259,191,o),
(202,191,cs),
(135,191,o),
(96,155,o),
(96,92,c),
(109,92,l),
(109,124,o),
(147,165,o),
(176,165,c),
(176,380,ls),
(176,449,o),
(215,490,o),
(282,490,cs),
(348,490,o),
(387,449,o),
(387,380,cs),
(387,0,l),
(473,0,l),
(473,380,ls),
(473,449,o),
(511,490,o),
(573,490,cs),
(636,490,o),
(674,449,o),
(674,380,cs),
(674,0,l),
(760,0,l),
(760,396,ls),
(760,498,o),
(693,563,o),
(587,563,cs),
(480,563,o),
(413,498,o),
(413,396,c),
(448,480,l),
(413,480,l),
(448,396,l),
(448,498,o),
(378,563,o),
(269,563,cs),
(159,563,o),
(90,499,o),
(90,396,cs)
);
},
{
closed = 1;
nodes = (
(225,143,o),
(244,124,o),
(244,92,cs),
(244,60,o),
(225,41,o),
(194,41,cs),
(163,41,o),
(144,60,o),
(144,92,cs),
(144,124,o),
(163,143,o),
(194,143,cs)
);
}
);
width = 850;
},
{
anchors = (
{
name = bottom;
pos = (596,0);
},
{
name = bottomright;
pos = (839,0);
},
{
name = top;
pos = (600,608);
},
{
name = topright;
pos = (829,608);
},
{
name = yamakkan;
pos = (839,608);
}
);
layerId = "EC79AED6-C145-434E-AE62-F6F3D2AFA8D1";
shapes = (
{
closed = 1;
nodes = (
(66,139,ls),
(66,47,o),
(124,-10,o),
(218,-10,cs),
(292,-10,o),
(343,33,o),
(343,96,cs),
(343,160,o),
(300,204,o),
(237,204,cs),
(160,204,o),
(85,174,o),
(85,96,c),
(110,96,l),
(110,143,o),
(174,182,o),
(252,182,c),
(252,375,ls),
(252,415,o),
(276,438,o),
(316,438,cs),
(357,438,o),
(380,415,o),
(380,375,cs),
(380,0,l),
(546,0,l),
(546,375,ls),
(546,415,o),
(566,438,o),
(600,438,cs),
(633,438,o),
(653,415,o),
(653,375,cs),
(653,0,l),
(839,0,l),
(839,402,ls),
(839,510,o),
(761,578,o),
(637,578,cs),
(513,578,o),
(436,510,o),
(436,401,c),
(491,503,l),
(436,503,l),
(491,401,l),
(491,510,o),
(409,578,o),
(278,578,cs),
(148,578,o),
(66,509,o),
(66,400,cs)
);
},
{
closed = 1;
nodes = (
(254,142,o),
(272,125,o),
(272,97,cs),
(272,69,o),
(254,52,o),
(224,52,cs),
(194,52,o),
(176,69,o),
(176,97,cs),
(176,125,o),
(194,142,o),
(224,142,cs)
);
}
);
width = 905;
},
{
anchors = (
{
name = bottom;
pos = (394,0);
},
{
name = bottomright;
pos = (509,0);
},
{
name = top;
pos = (395,608);
},
{
name = topright;
pos = (509,608);
},
{
name = yamakkan;
pos = (509,608);
}
);
layerId = "FFE3C573-8034-42D7-BBA7-2D1C8826F1F5";
shapes = (
{
closed = 1;
nodes = (
(70,76,ls),
(70,27,o),
(94,-5,o),
(132,-5,cs),
(169,-5,o),
(193,26,o),
(193,75,cs),
(193,122,o),
(169,153,o),
(133,153,cs),
(97,153,o),
(78,121,o),
(78,75,c),
(81,75,l),
(81,93,o),
(88,114,o),
(94,114,c),
(94,420,ls),
(94,492,o),
(128,533,o),
(187,533,cs),
(246,533,o),
(280,492,o),
(280,420,cs),
(280,0,l),
(304,0,l),
(304,420,ls),
(304,491,o),
(338,533,o),
(395,533,cs),
(452,533,o),
(485,492,o),
(485,420,cs),
(485,0,l),
(509,0,l),
(509,423,ls),
(509,506,o),
(467,556,o),
(397,556,cs),
(328,556,o),
(287,507,o),
(287,423,c),
(297,475,l),
(287,475,l),
(297,423,l),
(297,506,o),
(255,556,o),
(185,556,cs),
(113,556,o),
(70,506,o),
(70,423,cs)
);
},
{
closed = 1;
nodes = (
(157,132,o),
(171,111,o),
(171,74,cs),
(171,37,o),
(157,16,o),
(132,16,cs),
(107,16,o),
(93,37,o),
(93,74,cs),
(93,111,o),
(107,132,o),
(132,132,cs)
);
}
);
width = 579;
},
{
anchors = (
{
name = bottom;
pos = (429,0);
},
{
name = bottomright;
pos = (576,0);
},
{
name = top;
pos = (431,608);
},
{
name = topright;
pos = (571,608);
},
{
name = yamakkan;
pos = (576,608);
}
);
layerId = "CACD10EA-8E27-4203-9979-86A2B0F7ED74";
shapes = (
{
closed = 1;
nodes = (
(64,103,ls),
(64,32,o),
(92,-7,o),
(145,-7,cs),
(196,-7,o),
(227,30,o),
(227,92,cs),
(227,151,o),
(198,191,o),
(156,191,cs),
(107,191,o),
(71,153,o),
(71,89,c),
(82,89,l),
(82,119,o),
(113,157,o),
(142,157,c),
(142,394,ls),
(142,461,o),
(166,495,o),
(214,495,cs),
(262,495,o),
(286,461,o),
(286,394,cs),
(286,0,l),
(364,0,l),
(364,394,ls),
(364,461,o),
(387,495,o),
(431,495,cs),
(475,495,o),
(498,461,o),
(498,394,cs),
(498,0,l),
(576,0,l),
(576,408,ls),
(576,504,o),
(527,561,o),
(443,561,cs),
(359,561,o),
(311,505,o),
(311,408,c),
(338,488,l),
(311,488,l),
(338,408,l),
(338,504,o),
(287,561,o),
(201,561,cs),
(114,561,o),
(64,505,o),
(64,408,cs)
);
},
{
closed = 1;
nodes = (
(168,147,o),
(182,126,o),
(182,92,cs),
(182,58,o),
(168,37,o),
(147,37,cs),
(125,37,o),
(112,58,o),
(112,92,cs),
(112,126,o),
(125,147,o),
(147,147,cs)
);
}
);
width = 640;
},
{
anchors = (
{
name = bottom;
pos = (497,0);
},
{
name = bottomright;
pos = (704,0);
},
{
name = top;
pos = (497,608);
},
{
name = topright;
pos = (694,608);
},
{
name = yamakkan;
pos = (704,608);
}
);
layerId = "96C6A4AF-11F2-4EC9-996B-29C760E40A38";
shapes = (
{
closed = 1;
nodes = (
(50,132,ls),
(50,45,o),
(100,-10,o),
(178,-10,cs),
(246,-10,o),
(291,33,o),
(291,96,cs),
(291,158,o),
(254,202,o),
(201,202,cs),
(135,202,o),
(67,171,o),
(67,95,c),
(90,95,l),
(90,140,o),
(149,179,o),
(222,179,c),
(222,385,ls),
(222,417,o),
(238,435,o),
(266,435,cs),
(294,435,o),
(310,417,o),
(310,385,cs),
(310,0,l),
(462,0,l),
(462,385,ls),
(462,419,o),
(473,435,o),
(497,435,cs),
(521,435,o),
(532,419,o),
(532,385,cs),
(532,0,l),
(704,0,l),
(704,406,ls),
(704,510,o),
(638,576,o),
(533,576,cs),
(428,576,o),
(362,511,o),
(362,405,c),
(412,505,l),
(362,505,l),
(412,405,l),
(412,510,o),
(342,576,o),
(230,576,cs),
(120,576,o),
(50,510,o),
(50,404,cs)
);
},
{
closed = 1;
nodes = (
(212,142,o),
(227,125,o),
(227,96,cs),
(227,67,o),
(212,50,o),
(188,50,cs),
(164,50,o),
(149,67,o),
(149,96,cs),
(149,125,o),
(164,142,o),
(188,142,cs)
);
}
);
width = 754;
}
);
metricLeft = "doDek-lao";
metricRight = "doDek-lao";
subCategory = Spacing;
unicode = 3731;
},
{
glyphname = "doDek-lao";
kernLeft = "doDek-lao";
kernRight = "doDek-lao";
lastChange = "2023-01-11 12:22:29 +0000";
layers = (
{
anchors = (
{
name = bottom;
pos = (332,0);
},
{
name = bottomright;
pos = (560,0);
},
{
name = top;
pos = (332,608);
},
{
name = topright;
pos = (560,608);
},
{
name = yamakkan;
pos = (560,608);
}
);
layerId = "2CD50835-5B7E-4D2A-958C-2F579F79E971";
shapes = (
{
closed = 1;
nodes = (
(104,78,ls),
(104,28,o),
(137,-5,o),
(186,-5,cs),
(236,-5,o),
(269,27,o),
(269,75,cs),
(269,122,o),
(237,155,o),
(190,155,cs),
(142,155,o),
(112,124,o),
(112,75,c),
(116,75,l),
(116,94,o),
(125,115,o),
(130,115,c),
(130,364,ls),
(130,471,o),
(205,533,o),
(332,533,cs),
(459,533,o),
(534,471,o),
(534,364,cs),
(534,0,l),
(560,0,l),
(560,369,ls),
(560,485,o),
(472,558,o),
(332,558,cs),
(193,558,o),
(104,484,o),
(104,369,cs)
);
},
{
closed = 1;
nodes = (
(223,132,o),
(244,110,o),
(244,75,cs),
(244,40,o),
(223,18,o),
(188,18,cs),
(153,18,o),
(132,40,o),
(132,75,cs),
(132,110,o),
(153,132,o),
(188,132,cs)
);
}
);
width = 664;
},
{
anchors = (
{
name = bottom;
pos = (342,0);
},
{
name = bottomright;
pos = (594,0);
},
{
name = top;
pos = (342,608);
},
{
name = topright;
pos = (589,608);
},
{
name = yamakkan;
pos = (594,608);
}
);
hints = (
{
horizontal = 1;
origin = (0,29);
target = (0,20);
type = Stem;
},
{
horizontal = 1;
origin = (0,24);
target = up;
type = BottomGhost;
},
{
origin = (0,0);
target = (0,16);
type = Stem;
},
{
origin = (0,24);
target = (0,25);
type = Stem;
},
{
horizontal = 1;
origin = (0,3);
target = (1,5);
type = Stem;
}
);
layerId = "6E668239-F79A-4803-9842-9160852853A7";
shapes = (
{
closed = 1;
nodes = (
(90,93,ls),
(90,32,o),
(130,-7,o),
(194,-7,cs),
(257,-7,o),
(298,32,o),
(298,93,cs),
(298,151,o),
(259,191,o),
(202,191,cs),
(135,191,o),
(96,155,o),
(96,92,c),
(109,92,l),
(109,124,o),
(147,165,o),
(176,165,c),
(176,349,ls),
(176,440,o),
(235,490,o),
(342,490,cs),
(449,490,o),
(508,440,o),
(508,349,cs),
(508,0,l),
(594,0,l),
(594,358,ls),
(594,485,o),
(498,563,o),
(342,563,cs),
(186,563,o),
(90,485,o),
(90,358,cs)
);
},
{
closed = 1;
nodes = (
(225,143,o),
(244,124,o),
(244,92,cs),
(244,60,o),
(225,41,o),
(194,41,cs),
(163,41,o),
(144,60,o),
(144,92,cs),
(144,124,o),
(163,143,o),
(194,143,cs)
);
}
);
width = 684;
},
{
anchors = (
{
name = bottom;
pos = (357,0);
},
{
name = bottomright;
pos = (648,0);
},
{
name = top;
pos = (355,608);
},
{
name = topright;
pos = (638,608);
},
{
name = yamakkan;
pos = (648,608);
}
);
layerId = "EC79AED6-C145-434E-AE62-F6F3D2AFA8D1";
shapes = (
{
closed = 1;
nodes = (
(66,139,ls),
(66,47,o),
(124,-10,o),
(218,-10,cs),
(292,-10,o),
(343,33,o),
(343,96,cs),
(343,160,o),
(300,204,o),
(237,204,cs),
(160,204,o),
(85,174,o),
(85,96,c),
(110,96,l),
(110,143,o),
(174,182,o),
(252,182,c),
(252,330,ls),
(252,394,o),
(290,432,o),
(355,432,cs),
(422,432,o),
(462,394,o),
(462,330,cs),
(462,0,l),
(648,0,l),
(648,349,ls),
(648,491,o),
(536,578,o),
(355,578,cs),
(176,578,o),
(66,491,o),
(66,349,cs)
);
},
{
closed = 1;
nodes = (
(254,142,o),
(272,125,o),
(272,97,cs),
(272,69,o),
(254,52,o),
(224,52,cs),
(194,52,o),
(176,69,o),
(176,97,cs),
(176,125,o),
(194,142,o),
(224,142,cs)
);
}
);
width = 714;
},
{
anchors = (
{
name = bottom;
pos = (234,0);
},
{
name = bottomright;
pos = (398,0);
},
{
name = top;
pos = (234,608);
},
{
name = topright;
pos = (398,608);
},
{
name = yamakkan;
pos = (398,608);
}
);
layerId = "FFE3C573-8034-42D7-BBA7-2D1C8826F1F5";
shapes = (
{
closed = 1;
nodes = (
(70,76,ls),
(70,27,o),
(94,-5,o),
(132,-5,cs),
(169,-5,o),
(193,26,o),
(193,75,cs),
(193,122,o),
(169,153,o),
(133,153,cs),
(97,153,o),
(78,121,o),
(78,75,c),
(81,75,l),
(81,93,o),
(88,114,o),
(94,114,c),
(94,377,ls),
(94,478,o),
(144,533,o),
(234,533,cs),
(324,533,o),
(374,478,o),
(374,377,cs),
(374,0,l),
(398,0,l),
(398,382,ls),
(398,490,o),
(336,556,o),
(234,556,cs),
(132,556,o),
(70,490,o),
(70,382,cs)
);
},
{
closed = 1;
nodes = (
(157,132,o),
(171,111,o),
(171,74,cs),
(171,37,o),
(157,16,o),
(132,16,cs),
(107,16,o),
(93,37,o),
(93,74,cs),
(93,111,o),
(107,132,o),
(132,132,cs)
);
}
);
width = 468;
},
{
anchors = (
{
name = bottom;
pos = (255,0);
},
{
name = bottomright;
pos = (448,0);
},
{
name = top;
pos = (255,608);
},
{
name = topright;
pos = (443,608);
},
{
name = yamakkan;
pos = (448,608);
}
);
layerId = "CACD10EA-8E27-4203-9979-86A2B0F7ED74";
shapes = (
{
closed = 1;
nodes = (
(64,103,ls),
(64,32,o),
(92,-7,o),
(145,-7,cs),
(196,-7,o),
(227,30,o),
(227,92,cs),
(227,151,o),
(198,191,o),
(156,191,cs),
(107,191,o),
(71,153,o),
(71,89,c),
(82,89,l),
(82,119,o),
(113,157,o),
(142,157,c),
(142,358,ls),
(142,445,o),
(183,495,o),
(256,495,cs),
(329,495,o),
(370,445,o),
(370,358,cs),
(370,0,l),
(448,0,l),
(448,367,ls),
(448,487,o),
(374,561,o),
(256,561,cs),
(138,561,o),
(64,487,o),
(64,367,cs)
);
},
{
closed = 1;
nodes = (
(168,147,o),
(182,126,o),
(182,92,cs),
(182,58,o),
(168,37,o),
(147,37,cs),
(125,37,o),
(112,58,o),
(112,92,cs),
(112,126,o),
(125,147,o),
(147,147,cs)
);
}
);
width = 512;
},
{
anchors = (
{
name = bottom;
pos = (294,0);
},
{
name = bottomright;
pos = (544,0);
},
{
name = top;
pos = (294,608);
},
{
name = topright;
pos = (534,608);
},
{
name = yamakkan;
pos = (544,608);
}
);
layerId = "96C6A4AF-11F2-4EC9-996B-29C760E40A38";
shapes = (
{
closed = 1;
nodes = (
(50,132,ls),
(50,45,o),
(100,-10,o),
(178,-10,cs),
(246,-10,o),
(291,33,o),
(291,96,cs),
(291,158,o),
(254,202,o),
(201,202,cs),
(135,202,o),
(67,171,o),
(67,95,c),
(90,95,l),
(90,140,o),
(149,179,o),
(222,179,c),
(222,341,ls),
(222,397,o),
(250,430,o),
(297,430,cs),
(344,430,o),
(372,397,o),
(372,341,cs),
(372,0,l),
(544,0,l),
(544,364,ls),
(544,495,o),
(449,576,o),
(297,576,cs),
(145,576,o),
(50,495,o),
(50,364,cs)
);
},
{
closed = 1;
nodes = (
(212,142,o),
(227,125,o),
(227,96,cs),
(227,67,o),
(212,50,o),
(188,50,cs),
(164,50,o),
(149,67,o),
(149,96,cs),
(149,125,o),
(164,142,o),
(188,142,cs)
);
}
);
width = 594;
}
);
metricRight = "=|";
subCategory = Spacing;
unicode = 3732;
},
{
glyphname = "toTa-lao";
kernLeft = "doDek-lao";
kernRight = "doDek-lao";
lastChange = "2023-01-11 12:22:43 +0000";
layers = (
{
anchors = (
{
name = bottom;
pos = (340,0);
},
{
name = bottomright;
pos = (576,0);
},
{
name = top;
pos = (340,608);
},
{
name = topright;
pos = (576,608);
},
{
name = yamakkan;
pos = (576,608);
}
);
layerId = "2CD50835-5B7E-4D2A-958C-2F579F79E971";
shapes = (
{
closed = 1;
nodes = (
(104,78,ls),
(104,28,o),
(137,-5,o),
(186,-5,cs),
(236,-5,o),
(269,27,o),
(269,75,cs),
(269,122,o),
(237,155,o),
(190,155,cs),
(142,155,o),
(112,124,o),
(112,75,c),
(116,75,l),
(116,94,o),
(125,115,o),
(130,115,c),
(130,436,ls),
(130,498,o),
(161,533,o),
(218,533,cs),
(281,533,o),
(320,491,o),
(329,412,c),
(351,412,l),
(360,491,o),
(399,533,o),
(462,533,cs),
(519,533,o),
(550,498,o),
(550,436,cs),
(550,0,l),
(576,0,l),
(576,438,ls),
(576,514,o),
(535,558,o),
(464,558,cs),
(385,558,o),
(337,505,o),
(337,417,c),
(343,459,l),
(337,459,l),
(343,417,l),
(343,505,o),
(295,558,o),
(216,558,cs),
(145,558,o),
(104,514,o),
(104,438,cs)
);
},
{
closed = 1;
nodes = (
(223,132,o),
(244,110,o),
(244,75,cs),
(244,40,o),
(223,18,o),
(188,18,cs),
(153,18,o),
(132,40,o),
(132,75,cs),
(132,110,o),
(153,132,o),
(188,132,cs)
);
}
);
width = 680;
},
{
anchors = (
{
name = bottom;
pos = (354,0);
},
{
name = bottomright;
pos = (618,0);
},
{
name = top;
pos = (354,608);
},
{
name = topright;
pos = (613,608);
},
{
name = yamakkan;
pos = (618,608);
}
);
hints = (
{
horizontal = 1;
origin = (0,45);
target = (0,20);
type = Stem;
},
{
horizontal = 1;
origin = (0,31);
target = up;
type = BottomGhost;
},
{
origin = (0,0);
target = (0,16);
type = Stem;
},
{
origin = (0,31);
target = (0,32);
type = Stem;
},
{
horizontal = 1;
origin = (0,3);
target = (1,5);
type = Stem;
}
);
layerId = "6E668239-F79A-4803-9842-9160852853A7";
shapes = (
{
closed = 1;
nodes = (
(90,93,ls),
(90,32,o),
(130,-7,o),
(194,-7,cs),
(257,-7,o),
(298,32,o),
(298,93,cs),
(298,151,o),
(259,191,o),
(202,191,cs),
(135,191,o),
(96,155,o),
(96,92,c),
(109,92,l),
(109,124,o),
(147,165,o),
(176,165,c),
(176,417,ls),
(176,464,o),
(200,490,o),
(242,490,cs),
(292,490,o),
(317,458,o),
(323,389,c),
(385,389,l),
(391,458,o),
(417,490,o),
(466,490,cs),
(508,490,o),
(532,464,o),
(532,417,cs),
(532,0,l),
(618,0,l),
(618,427,ls),
(618,510,o),
(565,563,o),
(483,563,cs),
(396,563,o),
(341,501,o),
(341,403,c),
(367,482,l),
(341,482,l),
(367,403,l),
(367,501,o),
(312,563,o),
(225,563,cs),
(143,563,o),
(90,510,o),
(90,427,cs)
);
},
{
closed = 1;
nodes = (
(225,143,o),
(244,124,o),
(244,92,cs),
(244,60,o),
(225,41,o),
(194,41,cs),
(163,41,o),
(144,60,o),
(144,92,cs),
(144,124,o),
(163,143,o),
(194,143,cs)
);
}
);
width = 708;
},
{
anchors = (
{
name = bottom;
pos = (369,0);
},
{
name = bottomright;
pos = (672,0);
},
{
name = top;
pos = (369,608);
},
{
name = topright;
pos = (662,608);
},
{
name = yamakkan;
pos = (672,608);
}
);
layerId = "EC79AED6-C145-434E-AE62-F6F3D2AFA8D1";
shapes = (
{
closed = 1;
nodes = (
(66,139,ls),
(66,47,o),
(124,-10,o),
(218,-10,cs),
(292,-10,o),
(343,33,o),
(343,96,cs),
(343,160,o),
(300,204,o),
(237,204,cs),
(160,204,o),
(85,174,o),
(85,96,c),
(110,96,l),
(110,143,o),
(174,182,o),
(252,182,c),
(252,403,ls),
(252,425,o),
(263,438,o),
(281,438,cs),
(305,438,o),
(318,417,o),
(323,367,c),
(415,367,l),
(420,418,o),
(432,438,o),
(456,438,cs),
(475,438,o),
(486,425,o),
(486,403,cs),
(486,0,l),
(672,0,l),
(672,421,ls),
(672,517,o),
(612,578,o),
(518,578,cs),
(412,578,o),
(346,506,o),
(346,391,c),
(392,499,l),
(346,499,l),
(392,391,l),
(392,506,o),
(326,578,o),
(220,578,cs),
(126,578,o),
(66,517,o),
(66,421,cs)
);
},
{
closed = 1;
nodes = (
(254,142,o),
(272,125,o),
(272,97,cs),
(272,69,o),
(254,52,o),
(224,52,cs),
(194,52,o),
(176,69,o),
(176,97,cs),
(176,125,o),
(194,142,o),
(224,142,cs)
);
}
);
width = 738;
},
{
anchors = (
{
name = bottom;
pos = (240,0);
},
{
name = bottomright;
pos = (410,0);
},
{
name = top;
pos = (240,608);
},
{
name = topright;
pos = (410,608);
},
{
name = yamakkan;
pos = (410,608);
}
);
layerId = "FFE3C573-8034-42D7-BBA7-2D1C8826F1F5";
shapes = (
{
closed = 1;
nodes = (
(70,76,ls),
(70,27,o),
(94,-5,o),
(132,-5,cs),
(169,-5,o),
(193,26,o),
(193,75,cs),
(193,122,o),
(169,153,o),
(133,153,cs),
(97,153,o),
(78,121,o),
(78,75,c),
(81,75,l),
(81,93,o),
(88,114,o),
(94,114,c),
(94,449,ls),
(94,505,o),
(114,533,o),
(154,533,cs),
(197,533,o),
(224,490,o),
(230,411,c),
(250,411,l),
(256,490,o),
(283,533,o),
(326,533,cs),
(366,533,o),
(386,505,o),
(386,449,cs),
(386,0,l),
(410,0,l),
(410,451,ls),
(410,517,o),
(380,556,o),
(328,556,cs),
(271,556,o),
(236,502,o),
(236,415,c),
(244,468,l),
(236,468,l),
(244,415,l),
(244,502,o),
(209,556,o),
(152,556,cs),
(100,556,o),
(70,517,o),
(70,451,cs)
);
},
{
closed = 1;
nodes = (
(157,132,o),
(171,111,o),
(171,74,cs),
(171,37,o),
(157,16,o),
(132,16,cs),
(107,16,o),
(93,37,o),
(93,74,cs),
(93,111,o),
(107,132,o),
(132,132,cs)
);
}
);
width = 480;
},
{
anchors = (
{
name = bottom;
pos = (264,0);
},
{
name = bottomright;
pos = (464,0);
},
{
name = top;
pos = (264,608);
},
{
name = topright;
pos = (459,608);
},
{
name = yamakkan;
pos = (464,608);
}
);
layerId = "CACD10EA-8E27-4203-9979-86A2B0F7ED74";
shapes = (
{
closed = 1;
nodes = (
(64,103,ls),
(64,32,o),
(92,-7,o),
(145,-7,cs),
(196,-7,o),
(227,30,o),
(227,92,cs),
(227,151,o),
(198,191,o),
(156,191,cs),
(107,191,o),
(71,153,o),
(71,89,c),
(82,89,l),
(82,119,o),
(113,157,o),
(142,157,c),
(142,429,ls),
(142,474,o),
(156,495,o),
(185,495,cs),
(218,495,o),
(235,464,o),
(240,392,c),
(288,392,l),
(293,463,o),
(310,495,o),
(343,495,cs),
(372,495,o),
(386,473,o),
(386,429,cs),
(386,0,l),
(464,0,l),
(464,438,ls),
(464,515,o),
(426,561,o),
(363,561,cs),
(296,561,o),
(254,500,o),
(254,404,c),
(275,484,l),
(254,484,l),
(275,404,l),
(275,500,o),
(232,561,o),
(165,561,cs),
(102,561,o),
(64,515,o),
(64,438,cs)
);
},
{
closed = 1;
nodes = (
(168,147,o),
(182,126,o),
(182,92,cs),
(182,58,o),
(168,37,o),
(147,37,cs),
(125,37,o),
(112,58,o),
(112,92,cs),
(112,126,o),
(125,147,o),
(147,147,cs)
);
}
);
width = 528;
},
{
anchors = (
{
name = bottom;
pos = (307,0);
},
{
name = bottomright;
pos = (564,0);
},
{
name = top;
pos = (307,608);
},
{
name = topright;
pos = (554,608);
},
{
name = yamakkan;
pos = (564,608);
}
);
layerId = "96C6A4AF-11F2-4EC9-996B-29C760E40A38";
shapes = (
{
closed = 1;
nodes = (
(50,132,ls),
(50,45,o),
(100,-10,o),
(178,-10,cs),
(246,-10,o),
(291,33,o),
(291,96,cs),
(291,158,o),
(254,202,o),
(201,202,cs),
(135,202,o),
(67,171,o),
(67,95,c),
(90,95,l),
(90,140,o),
(149,179,o),
(222,179,c),
(222,405,ls),
(222,424,o),
(228,435,o),
(239,435,cs),
(256,435,o),
(261,421,o),
(265,370,c),
(349,370,l),
(352,421,o),
(357,435,o),
(374,435,cs),
(385,435,o),
(392,423,o),
(392,405,cs),
(392,0,l),
(564,0,l),
(564,427,ls),
(564,518,o),
(512,576,o),
(432,576,cs),
(342,576,o),
(285,509,o),
(285,403,c),
(328,506,l),
(285,506,l),
(328,403,l),
(328,509,o),
(271,576,o),
(181,576,cs),
(101,576,o),
(50,517,o),
(50,427,cs)
);
},
{
closed = 1;
nodes = (
(212,142,o),
(227,125,o),
(227,96,cs),
(227,67,o),
(212,50,o),
(188,50,cs),
(164,50,o),
(149,67,o),
(149,96,cs),
(149,125,o),
(164,142,o),
(188,142,cs)
);
}
);
width = 614;
}
);
metricLeft = "doDek-lao";
metricRight = "doDek-lao";
subCategory = Spacing;
unicode = 3733;
},
{
glyphname = "thoThong-lao";
kernLeft = "thoThong-lao";
kernRight = "doDek-lao";
lastChange = "2023-01-11 12:22:57 +0000";
layers = (
{
anchors = (
{
name = bottom;
pos = (386,0);
},
{
name = bottomright;
pos = (488,0);
},
{
name = top;
pos = (370,608);
},
{
name = topright;
pos = (596,608);
},
{
name = yamakkan;
pos = (596,608);
}
);
layerId = "2CD50835-5B7E-4D2A-958C-2F579F79E971";
shapes = (
{
closed = 1;
nodes = (
(176,78,ls),
(176,28,o),
(209,-5,o),
(258,-5,cs),
(308,-5,o),
(341,27,o),
(341,75,cs),
(341,122,o),
(309,155,o),
(262,155,cs),
(214,155,o),
(184,124,o),
(184,75,c),
(188,75,l),
(188,94,o),
(197,115,o),
(202,115,c),
(202,472,ls),
(202,523,o),
(170,555,o),
(118,555,cs),
(70,555,o),
(37,523,o),
(37,475,cs),
(37,428,o),
(70,395,o),
(117,395,cs),
(175,395,o),
(200,442,o),
(200,472,c),
(198,472,l),
(198,453,o),
(184,428,o),
(176,428,c)
);
},
{
closed = 1;
nodes = (
(570,-33,ls),
(570,-90,o),
(578,-139,o),
(599,-171,c),
(623,-162,l),
(601,-126,o),
(596,-82,o),
(596,-30,cs),
(596,379,ls),
(596,489,o),
(521,558,o),
(402,558,cs),
(304,558,o),
(230,511,o),
(193,458,c),
(215,475,l),
(190,475,l),
(197,433,l),
(245,491,o),
(310,533,o),
(402,533,cs),
(507,533,o),
(570,474,o),
(570,374,cs)
);
},
{
closed = 1;
nodes = (
(295,132,o),
(316,110,o),
(316,75,cs),
(316,40,o),
(295,18,o),
(260,18,cs),
(225,18,o),
(204,40,o),
(204,75,cs),
(204,110,o),
(225,132,o),
(260,132,cs)
);
},
{
closed = 1;
nodes = (
(83,418,o),
(62,440,o),
(62,475,cs),
(62,510,o),
(83,532,o),
(118,532,cs),
(155,532,o),
(176,508,o),
(176,465,cs),
(176,458,o),
(176,452,o),
(176,444,c),
(163,427,o),
(142,418,o),
(118,418,cs)
);
}
);
width = 700;
},
{
anchors = (
{
name = bottom;
pos = (374,0);
},
{
name = bottomright;
pos = (469,0);
},
{
name = top;
pos = (360,608);
},
{
name = topright;
pos = (615,608);
},
{
name = yamakkan;
pos = (620,608);
}
);
hints = (
{
horizontal = 1;
origin = (1,11);
target = (1,20);
type = Stem;
},
{
origin = (0,0);
target = (0,16);
type = Stem;
},
{
origin = (1,0);
target = (1,7);
type = Stem;
},
{
horizontal = 1;
origin = (0,3);
target = (2,5);
type = Stem;
},
{
horizontal = 1;
origin = (0,20);
target = (3,5);
type = Stem;
}
);
layerId = "6E668239-F79A-4803-9842-9160852853A7";
shapes = (
{
closed = 1;
nodes = (
(146,93,ls),
(146,32,o),
(186,-7,o),
(250,-7,cs),
(313,-7,o),
(354,32,o),
(354,93,cs),
(354,151,o),
(315,191,o),
(258,191,cs),
(191,191,o),
(152,155,o),
(152,92,c),
(165,92,l),
(165,124,o),
(203,165,o),
(232,165,c),
(232,451,ls),
(232,522,o),
(192,560,o),
(127,560,cs),
(65,560,o),
(24,521,o),
(24,460,cs),
(24,401,o),
(64,362,o),
(126,362,cs),
(185,362,o),
(229,413,o),
(229,459,c),
(224,459,l),
(224,424,o),
(176,387,o),
(146,387,c)
);
},
{
closed = 1;
nodes = (
(534,-35,ls),
(534,-87,o),
(544,-142,o),
(564,-172,c),
(645,-154,l),
(626,-118,o),
(620,-75,o),
(620,-22,cs),
(620,376,ls),
(620,491,o),
(542,563,o),
(416,563,cs),
(324,563,o),
(255,517,o),
(219,473,c),
(248,487,l),
(210,487,l),
(223,402,l),
(280,464,o),
(340,490,o),
(399,490,cs),
(484,490,o),
(534,445,o),
(534,367,cs)
);
},
{
closed = 1;
nodes = (
(281,143,o),
(300,124,o),
(300,92,cs),
(300,60,o),
(281,41,o),
(250,41,cs),
(219,41,o),
(200,60,o),
(200,92,cs),
(200,124,o),
(219,143,o),
(250,143,cs)
);
},
{
closed = 1;
nodes = (
(97,410,o),
(78,429,o),
(78,461,cs),
(78,493,o),
(97,512,o),
(128,512,cs),
(160,512,o),
(178,493,o),
(178,461,cs),
(178,443,o),
(177,434,o),
(175,423,c),
(166,417,o),
(149,410,o),
(128,410,cs)
);
}
);
width = 710;
},
{
anchors = (
{
name = bottom;
pos = (351,0);
},
{
name = bottomright;
pos = (449,0);
},
{
name = top;
pos = (371,608);
},
{
name = topright;
pos = (655,608);
},
{
name = yamakkan;
pos = (665,608);
}
);
layerId = "EC79AED6-C145-434E-AE62-F6F3D2AFA8D1";
shapes = (
{
closed = 1;
nodes = (
(102,139,ls),
(102,47,o),
(160,-10,o),
(254,-10,cs),
(328,-10,o),
(379,33,o),
(379,96,cs),
(379,160,o),
(336,204,o),
(273,204,cs),
(196,204,o),
(121,174,o),
(121,96,c),
(146,96,l),
(146,143,o),
(210,182,o),
(288,182,c),
(288,416,ls),
(288,516,o),
(232,573,o),
(136,573,cs),
(62,573,o),
(11,530,o),
(11,467,cs),
(11,403,o),
(55,359,o),
(120,359,cs),
(203,359,o),
(277,398,o),
(277,458,c),
(242,458,l),
(242,415,o),
(180,381,o),
(102,381,c)
);
},
{
closed = 1;
nodes = (
(479,-32,ls),
(479,-88,o),
(490,-140,o),
(510,-172,c),
(688,-145,l),
(671,-107,o),
(665,-65,o),
(665,-15,cs),
(665,365,ls),
(665,498,o),
(585,578,o),
(451,578,cs),
(359,578,o),
(297,541,o),
(257,490,c),
(284,508,l),
(236,508,l),
(277,392,l),
(307,419,o),
(347,432,o),
(385,432,cs),
(445,432,o),
(479,401,o),
(479,345,cs)
);
},
{
closed = 1;
nodes = (
(290,142,o),
(308,125,o),
(308,97,cs),
(308,69,o),
(290,52,o),
(260,52,cs),
(230,52,o),
(212,69,o),
(212,97,cs),
(212,125,o),
(230,142,o),
(260,142,cs)
);
},
{
closed = 1;
nodes = (
(100,421,o),
(82,438,o),
(82,466,cs),
(82,494,o),
(100,511,o),
(130,511,cs),
(159,511,o),
(178,494,o),
(178,466,cs),
(178,453,o),
(178,443,o),
(176,432,c),
(163,425,o),
(145,421,o),
(129,421,cs)
);
}
);
width = 731;
},
{
anchors = (
{
name = bottom;
pos = (273,0);
},
{
name = bottomright;
pos = (329,0);
},
{
name = top;
pos = (273,608);
},
{
name = topright;
pos = (425,608);
},
{
name = yamakkan;
pos = (425,608);
}
);
layerId = "FFE3C573-8034-42D7-BBA7-2D1C8826F1F5";
shapes = (
{
closed = 1;
nodes = (
(122,76,ls),
(122,27,o),
(146,-5,o),
(184,-5,cs),
(221,-5,o),
(245,26,o),
(245,75,cs),
(245,122,o),
(221,153,o),
(185,153,cs),
(149,153,o),
(130,121,o),
(130,75,c),
(133,75,l),
(133,93,o),
(140,114,o),
(146,114,c),
(146,471,ls),
(146,520,o),
(122,553,o),
(85,553,cs),
(48,553,o),
(23,522,o),
(23,474,cs),
(23,426,o),
(47,395,o),
(83,395,cs),
(125,395,o),
(144,441,o),
(144,470,c),
(140,470,l),
(140,452,o),
(130,427,o),
(122,427,c)
);
},
{
closed = 1;
nodes = (
(401,-43,ls),
(401,-100,o),
(408,-139,o),
(424,-171,c),
(447,-162,l),
(430,-126,o),
(425,-92,o),
(425,-40,cs),
(425,402,ls),
(425,498,o),
(372,556,o),
(286,556,cs),
(219,556,o),
(165,509,o),
(139,456,c),
(155,473,l),
(136,473,l),
(142,432,l),
(177,490,o),
(223,533,o),
(285,533,cs),
(359,533,o),
(401,483,o),
(401,397,cs)
);
},
{
closed = 1;
nodes = (
(209,132,o),
(223,111,o),
(223,74,cs),
(223,37,o),
(209,16,o),
(184,16,cs),
(159,16,o),
(145,37,o),
(145,74,cs),
(145,111,o),
(159,132,o),
(184,132,cs)
);
},
{
closed = 1;
nodes = (
(59,416,o),
(45,437,o),
(45,474,cs),
(45,511,o),
(59,532,o),
(84,532,cs),
(110,532,o),
(124,509,o),
(124,464,cs),
(124,458,o),
(124,451,o),
(124,443,c),
(115,426,o),
(101,416,o),
(84,416,cs)
);
}
);
width = 495;
},
{
anchors = (
{
name = bottom;
pos = (273,0);
},
{
name = bottomright;
pos = (333,0);
},
{
name = top;
pos = (281,608);
},
{
name = topright;
pos = (460,608);
},
{
name = yamakkan;
pos = (465,608);
}
);
layerId = "CACD10EA-8E27-4203-9979-86A2B0F7ED74";
shapes = (
{
closed = 1;
nodes = (
(102,103,ls),
(102,32,o),
(130,-7,o),
(183,-7,cs),
(234,-7,o),
(265,30,o),
(265,92,cs),
(265,151,o),
(236,191,o),
(194,191,cs),
(145,191,o),
(109,153,o),
(109,89,c),
(120,89,l),
(120,119,o),
(151,157,o),
(180,157,c),
(180,453,ls),
(180,520,o),
(150,558,o),
(97,558,cs),
(47,558,o),
(17,521,o),
(17,460,cs),
(17,400,o),
(46,360,o),
(89,360,cs),
(140,360,o),
(176,414,o),
(176,460,c),
(166,460,l),
(166,428,o),
(132,392,o),
(102,392,c)
);
},
{
closed = 1;
nodes = (
(387,-45,ls),
(387,-97,o),
(396,-142,o),
(410,-172,c),
(484,-154,l),
(470,-118,o),
(465,-85,o),
(465,-32,cs),
(465,383,ls),
(465,495,o),
(409,561,o),
(314,561,cs),
(243,561,o),
(194,515,o),
(168,470,c),
(187,488,l),
(159,488,l),
(173,408,l),
(203,462,o),
(249,495,o),
(292,495,cs),
(353,495,o),
(387,452,o),
(387,375,cs)
);
},
{
closed = 1;
nodes = (
(206,147,o),
(220,126,o),
(220,92,cs),
(220,58,o),
(206,37,o),
(185,37,cs),
(163,37,o),
(150,58,o),
(150,92,cs),
(150,126,o),
(163,147,o),
(185,147,cs)
);
},
{
closed = 1;
nodes = (
(76,404,o),
(62,427,o),
(62,460,cs),
(62,492,o),
(76,514,o),
(96,514,cs),
(119,514,o),
(132,494,o),
(132,460,cs),
(132,439,o),
(131,429,o),
(130,419,c),
(122,412,o),
(113,404,o),
(96,404,cs)
);
}
);
width = 529;
},
{
anchors = (
{
name = bottom;
pos = (284,0);
},
{
name = bottomright;
pos = (354,0);
},
{
name = top;
pos = (314,608);
},
{
name = topright;
pos = (544,608);
},
{
name = yamakkan;
pos = (554,608);
}
);
layerId = "96C6A4AF-11F2-4EC9-996B-29C760E40A38";
shapes = (
{
closed = 1;
nodes = (
(75,132,ls),
(75,45,o),
(125,-10,o),
(203,-10,cs),
(271,-10,o),
(316,33,o),
(316,96,cs),
(316,158,o),
(279,202,o),
(226,202,cs),
(160,202,o),
(92,171,o),
(92,95,c),
(115,95,l),
(115,140,o),
(174,179,o),
(247,179,c),
(247,421,ls),
(247,516,o),
(199,571,o),
(117,571,cs),
(51,571,o),
(6,528,o),
(6,466,cs),
(6,403,o),
(44,359,o),
(97,359,cs),
(169,359,o),
(227,400,o),
(227,458,c),
(204,458,l),
(204,416,o),
(147,382,o),
(75,382,c)
);
},
{
closed = 1;
nodes = (
(382,-32,ls),
(382,-88,o),
(391,-140,o),
(409,-172,c),
(575,-145,l),
(559,-107,o),
(554,-65,o),
(554,-15,cs),
(554,368,ls),
(554,498,o),
(487,576,o),
(376,576,cs),
(302,576,o),
(253,538,o),
(224,488,c),
(241,505,l),
(199,505,l),
(237,393,l),
(259,418,o),
(289,430,o),
(314,430,cs),
(358,430,o),
(382,403,o),
(382,354,cs)
);
},
{
closed = 1;
nodes = (
(237,142,o),
(252,125,o),
(252,96,cs),
(252,67,o),
(237,50,o),
(213,50,cs),
(189,50,o),
(174,67,o),
(174,96,cs),
(174,125,o),
(189,142,o),
(213,142,cs)
);
},
{
closed = 1;
nodes = (
(84,419,o),
(70,437,o),
(70,465,cs),
(70,493,o),
(85,511,o),
(108,511,cs),
(133,511,o),
(148,493,o),
(148,465,cs),
(148,452,o),
(148,442,o),
(146,431,c),
(136,424,o),
(120,419,o),
(107,419,cs)
);
}
);
width = 604;
}
);
metricRight = "=doDek-lao@300";
subCategory = Spacing;
unicode = 3734;
},
{
glyphname = "thoThung-lao";
kernLeft = "boBae-lao";
kernRight = "doDek-lao";
lastChange = "2023-01-11 12:23:10 +0000";
layers = (
{
anchors = (
{
name = bottom;
pos = (526,0);
},
{
name = bottomright;
pos = (718,0);
},
{
name = top;
pos = (561,608);
},
{
name = topright;
pos = (718,608);
},
{
name = yamakkan;
pos = (718,608);
}
);
layerId = "2CD50835-5B7E-4D2A-958C-2F579F79E971";
shapes = (
{
closed = 1;
nodes = (
(363,-8,o),
(430,54,o),
(430,153,cs),
(430,394,ls),
(430,481,o),
(479,533,o),
(561,533,cs),
(643,533,o),
(692,481,o),
(692,394,cs),
(692,0,l),
(718,0,l),
(718,397,ls),
(718,496,o),
(658,558,o),
(561,558,cs),
(464,558,o),
(404,496,o),
(404,397,cs),
(404,156,ls),
(404,69,o),
(349,17,o),
(256,17,cs),
(168,17,o),
(115,64,o),
(115,142,cs),
(115,260,o),
(250,372,o),
(250,472,c),
(215,431,l),
(215,379,o),
(88,261,o),
(88,142,cs),
(88,50,o),
(153,-8,o),
(256,-8,cs)
);
},
{
closed = 1;
nodes = (
(224,395,o),
(250,454,o),
(250,472,cs),
(250,522,o),
(219,555,o),
(166,555,cs),
(118,555,o),
(85,522,o),
(85,475,cs),
(85,428,o),
(118,395,o),
(165,395,cs)
);
},
{
closed = 1;
nodes = (
(131,418,o),
(110,440,o),
(110,475,cs),
(110,510,o),
(131,532,o),
(166,532,cs),
(201,532,o),
(222,510,o),
(222,475,cs),
(222,440,o),
(201,418,o),
(166,418,cs)
);
}
);
width = 822;
},
{
anchors = (
{
name = bottom;
pos = (543,0);
},
{
name = bottomright;
pos = (753,0);
},
{
name = top;
pos = (568,608);
},
{
name = topright;
pos = (748,608);
},
{
name = yamakkan;
pos = (753,608);
}
);
hints = (
{
horizontal = 1;
origin = (0,35);
target = (0,22);
type = Stem;
},
{
horizontal = 1;
origin = (0,15);
target = (0,6);
type = Stem;
},
{
horizontal = 1;
origin = (0,10);
target = up;
type = BottomGhost;
},
{
origin = (0,19);
target = (0,2);
type = Stem;
},
{
origin = (0,10);
target = (0,11);
type = Stem;
},
{
horizontal = 1;
origin = (1,5);
target = (2,5);
type = Stem;
}
);
layerId = "6E668239-F79A-4803-9842-9160852853A7";
shapes = (
{
closed = 1;
nodes = (
(393,-10,o),
(469,54,o),
(469,157,cs),
(469,380,ls),
(469,449,o),
(506,490,o),
(568,490,cs),
(630,490,o),
(667,448,o),
(667,380,cs),
(667,0,l),
(753,0,l),
(753,396,ls),
(753,499,o),
(682,563,o),
(568,563,cs),
(454,563,o),
(383,499,o),
(383,396,cs),
(383,172,ls),
(383,104,o),
(341,63,o),
(271,63,cs),
(202,63,o),
(160,103,o),
(160,171,cs),
(160,276,o),
(278,357,o),
(278,460,c),
(180,393,l),
(180,351,o),
(73,277,o),
(73,159,cs),
(73,55,o),
(150,-10,o),
(271,-10,cs)
);
},
{
closed = 1;
nodes = (
(237,362,o),
(278,408,o),
(278,460,cs),
(278,521,o),
(238,560,o),
(176,560,cs),
(111,560,o),
(70,521,o),
(70,459,cs),
(70,402,o),
(109,362,o),
(166,362,cs)
);
},
{
closed = 1;
nodes = (
(143,410,o),
(124,429,o),
(124,461,cs),
(124,493,o),
(143,512,o),
(174,512,cs),
(205,512,o),
(224,493,o),
(224,461,cs),
(224,429,o),
(205,410,o),
(174,410,cs)
);
}
);
width = 843;
},
{
anchors = (
{
name = bottom;
pos = (588,0);
},
{
name = bottomright;
pos = (832,0);
},
{
name = top;
pos = (594,608);
},
{
name = topright;
pos = (822,608);
},
{
name = yamakkan;
pos = (832,608);
}
);
layerId = "EC79AED6-C145-434E-AE62-F6F3D2AFA8D1";
shapes = (
{
closed = 1;
nodes = (
(446,-15,o),
(541,55,o),
(541,167,cs),
(541,371,ls),
(541,409,o),
(561,432,o),
(594,432,cs),
(626,432,o),
(646,409,o),
(646,371,cs),
(646,0,l),
(832,0,l),
(832,396,ls),
(832,509,o),
(745,578,o),
(604,578,cs),
(462,578,o),
(375,509,o),
(375,396,cs),
(375,197,ls),
(375,155,o),
(349,131,o),
(306,131,cs),
(263,131,o),
(236,156,o),
(236,199,cs),
(236,276,o),
(325,363,o),
(325,452,c),
(154,399,l),
(154,357,o),
(51,273,o),
(51,162,cs),
(51,53,o),
(145,-15,o),
(295,-15,cs)
);
},
{
closed = 1;
nodes = (
(249,359,o),
(325,396,o),
(325,452,cs),
(325,522,o),
(273,573,o),
(182,573,cs),
(95,573,o),
(48,530,o),
(48,467,cs),
(48,403,o),
(91,359,o),
(155,359,cs)
);
},
{
closed = 1;
nodes = (
(137,421,o),
(119,438,o),
(119,466,cs),
(119,494,o),
(137,511,o),
(167,511,cs),
(197,511,o),
(215,494,o),
(215,466,cs),
(215,438,o),
(197,421,o),
(167,421,cs)
);
}
);
width = 898;
},
{
anchors = (
{
name = bottom;
pos = (387,0);
},
{
name = bottomright;
pos = (513,0);
},
{
name = top;
pos = (399,608);
},
{
name = topright;
pos = (513,608);
},
{
name = yamakkan;
pos = (513,608);
}
);
layerId = "FFE3C573-8034-42D7-BBA7-2D1C8826F1F5";
shapes = (
{
closed = 1;
nodes = (
(261,-8,o),
(309,43,o),
(309,133,cs),
(309,422,ls),
(309,494,o),
(341,533,o),
(399,533,cs),
(457,533,o),
(489,494,o),
(489,422,cs),
(489,0,l),
(513,0,l),
(513,425,ls),
(513,508,o),
(471,556,o),
(399,556,cs),
(327,556,o),
(285,509,o),
(285,425,cs),
(285,135,ls),
(285,58,o),
(247,15,o),
(183,15,cs),
(122,15,o),
(84,62,o),
(84,138,cs),
(84,259,o),
(180,370,o),
(180,470,c),
(149,430,l),
(149,365,o),
(60,260,o),
(60,139,cs),
(60,50,o),
(105,-8,o),
(183,-8,cs)
);
},
{
closed = 1;
nodes = (
(160,395,o),
(180,446,o),
(180,470,cs),
(180,521,o),
(156,553,o),
(119,553,cs),
(81,553,o),
(57,521,o),
(57,473,cs),
(57,426,o),
(81,395,o),
(117,395,cs)
);
},
{
closed = 1;
nodes = (
(93,416,o),
(79,437,o),
(79,474,cs),
(79,511,o),
(93,532,o),
(118,532,cs),
(143,532,o),
(157,511,o),
(157,474,cs),
(157,437,o),
(143,416,o),
(118,416,cs)
);
}
);
width = 583;
},
{
anchors = (
{
name = bottom;
pos = (399,0);
},
{
name = bottomright;
pos = (570,0);
},
{
name = top;
pos = (425,608);
},
{
name = topright;
pos = (565,608);
},
{
name = yamakkan;
pos = (570,608);
}
);
layerId = "CACD10EA-8E27-4203-9979-86A2B0F7ED74";
shapes = (
{
closed = 1;
nodes = (
(302,-10,o),
(360,50,o),
(360,146,cs),
(360,401,ls),
(360,463,o),
(383,495,o),
(426,495,cs),
(469,495,o),
(492,462,o),
(492,401,cs),
(492,0,l),
(570,0,l),
(570,412,ls),
(570,505,o),
(516,561,o),
(427,561,cs),
(337,561,o),
(282,504,o),
(282,412,cs),
(282,160,ls),
(282,96,o),
(260,56,o),
(206,56,cs),
(157,56,o),
(130,95,o),
(130,158,cs),
(130,271,o),
(212,356,o),
(212,461,c),
(132,398,l),
(132,343,o),
(52,272,o),
(52,151,cs),
(52,53,o),
(109,-10,o),
(204,-10,cs)
);
},
{
closed = 1;
nodes = (
(169,360,o),
(212,408,o),
(212,461,cs),
(212,519,o),
(182,558,o),
(132,558,cs),
(80,558,o),
(49,521,o),
(49,459,cs),
(49,400,o),
(78,360,o),
(120,360,cs)
);
},
{
closed = 1;
nodes = (
(108,404,o),
(94,425,o),
(94,459,cs),
(94,493,o),
(108,514,o),
(129,514,cs),
(150,514,o),
(164,493,o),
(164,459,cs),
(164,425,o),
(150,404,o),
(129,404,cs)
);
}
);
width = 634;
},
{
anchors = (
{
name = bottom;
pos = (481,0);
},
{
name = bottomright;
pos = (697,0);
},
{
name = top;
pos = (491,608);
},
{
name = topright;
pos = (687,608);
},
{
name = yamakkan;
pos = (697,608);
}
);
layerId = "96C6A4AF-11F2-4EC9-996B-29C760E40A38";
shapes = (
{
closed = 1;
nodes = (
(376,-15,o),
(457,54,o),
(457,165,cs),
(457,387,ls),
(457,414,o),
(470,430,o),
(491,430,cs),
(512,430,o),
(525,414,o),
(525,387,cs),
(525,0,l),
(697,0,l),
(697,397,ls),
(697,507,o),
(622,576,o),
(501,576,cs),
(381,576,o),
(305,507,o),
(305,397,cs),
(305,191,ls),
(305,152,o),
(288,131,o),
(257,131,cs),
(226,131,o),
(209,153,o),
(209,194,cs),
(209,275,o),
(276,362,o),
(276,453,c),
(119,398,l),
(119,346,o),
(38,273,o),
(38,161,cs),
(38,53,o),
(119,-15,o),
(248,-15,cs)
);
},
{
closed = 1;
nodes = (
(207,359,o),
(276,397,o),
(276,453,cs),
(276,517,o),
(232,571,o),
(152,571,cs),
(78,571,o),
(35,528,o),
(35,465,cs),
(35,403,o),
(72,359,o),
(127,359,cs)
);
},
{
closed = 1;
nodes = (
(114,419,o),
(99,436,o),
(99,465,cs),
(99,494,o),
(114,511,o),
(138,511,cs),
(162,511,o),
(177,494,o),
(177,465,cs),
(177,436,o),
(162,419,o),
(138,419,cs)
);
}
);
width = 747;
}
);
metricLeft = "boBae-lao";
metricRight = "doDek-lao";
subCategory = Spacing;
unicode = 3735;
},
{
glyphname = "dha-lao";
kernLeft = "khoKhai-lao";
kernRight = "hoHeuan-lao";
lastChange = "2023-01-11 12:23:23 +0000";
layers = (
{
anchors = (
{
name = bottom;
pos = (296,0);
},
{
name = bottomright;
pos = (546,0);
},
{
name = top;
pos = (317,608);
},
{
name = topright;
pos = (514,608);
},
{
name = yamakkan;
pos = (546,608);
}
);
layerId = "2CD50835-5B7E-4D2A-958C-2F579F79E971";
shapes = (
{
closed = 1;
nodes = (
(249,-8,o),
(297,30,o),
(309,89,c),
(301,71,l),
(309,71,l),
(301,89,l),
(316,30,o),
(363,-8,o),
(423,-8,cs),
(500,-8,o),
(546,47,o),
(546,132,cs),
(546,226,o),
(492,279,o),
(414,303,cs),
(336,327,o),
(249,329,o),
(181,349,cs),
(113,369,o),
(94,405,o),
(94,443,cs),
(94,501,o),
(137,533,o),
(189,533,cs),
(267,533,o),
(344,451,o),
(435,451,cs),
(490,451,o),
(531,477,o),
(548,550,c),
(522,558,l),
(507,495,o),
(474,476,o),
(433,476,cs),
(349,476,o),
(276,558,o),
(187,558,cs),
(120,558,o),
(68,514,o),
(68,443,cs),
(68,388,o),
(99,348,o),
(171,327,cs),
(243,306,o),
(330,303,o),
(404,281,cs),
(478,259,o),
(520,210,o),
(520,132,cs),
(520,61,o),
(485,17,o),
(423,17,cs),
(366,17,o),
(325,56,o),
(317,117,c),
(295,117,l),
(287,56,o),
(246,17,o),
(190,17,cs),
(130,17,o),
(89,53,o),
(89,134,c),
(81,173,l),
(81,112,o),
(123,89,o),
(158,89,cs),
(209,89,o),
(238,119,o),
(238,169,cs),
(238,218,o),
(207,249,o),
(158,249,cs),
(101,249,o),
(65,208,o),
(65,134,cs),
(65,52,o),
(113,-8,o),
(190,-8,cs)
);
},
{
closed = 1;
nodes = (
(122,112,o),
(101,133,o),
(101,169,cs),
(101,205,o),
(122,226,o),
(157,226,cs),
(192,226,o),
(213,205,o),
(213,169,cs),
(213,133,o),
(192,112,o),
(157,112,cs)
);
}
);
width = 609;
},
{
anchors = (
{
name = bottom;
pos = (303,0);
},
{
name = bottomright;
pos = (570,0);
},
{
name = top;
pos = (322,608);
},
{
name = topright;
pos = (570,608);
},
{
name = yamakkan;
pos = (575,608);
}
);
hints = (
{
horizontal = 1;
origin = (0,77);
target = (0,58);
type = Stem;
},
{
horizontal = 1;
origin = (0,36);
target = (0,23);
type = Stem;
}
);
layerId = "6E668239-F79A-4803-9842-9160852853A7";
shapes = (
{
closed = 1;
nodes = (
(263,-10,o),
(317,38,o),
(318,107,c),
(299,58,l),
(318,58,l),
(299,107,l),
(300,38,o),
(363,-10,o),
(430,-10,cs),
(511,-10,o),
(575,49,o),
(575,145,cs),
(575,232,o),
(521,293,o),
(443,319,cs),
(365,345,o),
(277,348,o),
(213,362,cs),
(149,376,o),
(135,405,o),
(135,433,cs),
(135,468,o),
(157,493,o),
(202,493,cs),
(276,493,o),
(345,423,o),
(440,423,cs),
(500,423,o),
(555,454,o),
(577,538,c),
(497,563,l),
(483,511,o),
(461,494,o),
(427,494,cs),
(359,494,o),
(287,563,o),
(192,563,cs),
(109,563,o),
(51,512,o),
(51,434,cs),
(51,368,o),
(91,326,o),
(158,306,cs),
(225,286,o),
(315,284,o),
(387,264,cs),
(459,244,o),
(489,206,o),
(489,149,cs),
(489,90,o),
(456,62,o),
(413,62,cs),
(375,62,o),
(336,87,o),
(331,138,c),
(288,138,l),
(283,87,o),
(241,62,o),
(192,62,cs),
(137,62,o),
(91,102,o),
(91,142,c),
(60,173,l),
(60,115,o),
(108,79,o),
(165,79,cs),
(220,79,o),
(257,113,o),
(257,173,cs),
(257,233,o),
(217,266,o),
(157,266,cs),
(89,266,o),
(48,216,o),
(48,142,cs),
(48,57,o),
(96,-10,o),
(189,-10,cs)
);
},
{
closed = 1;
nodes = (
(125,121,o),
(106,141,o),
(106,173,cs),
(106,203,o),
(125,223,o),
(155,223,cs),
(185,223,o),
(204,204,o),
(204,173,cs),
(204,141,o),
(185,121,o),
(155,121,cs)
);
}
);
width = 618;
},
{
anchors = (
{
name = bottom;
pos = (340,0);
},
{
name = bottomright;
pos = (634,0);
},
{
name = top;
pos = (331,608);
},
{
name = topright;
pos = (634,608);
},
{
name = yamakkan;
pos = (644,608);
}
);
layerId = "EC79AED6-C145-434E-AE62-F6F3D2AFA8D1";
shapes = (
{
closed = 1;
nodes = (
(307,-15,o),
(353,63,o),
(357,139,c),
(317,60,l),
(357,60,l),
(317,139,l),
(321,63,o),
(376,-15,o),
(479,-15,cs),
(577,-15,o),
(644,54,o),
(644,162,cs),
(644,289,o),
(554,331,o),
(478,350,cs),
(402,369,o),
(324,382,o),
(280,393,cs),
(236,404,o),
(226,413,o),
(226,427,cs),
(226,442,o),
(237,451,o),
(256,451,cs),
(305,451,o),
(394,390,o),
(484,390,cs),
(557,390,o),
(630,426,o),
(653,519,c),
(485,578,l),
(478,555,o),
(459,531,o),
(420,531,cs),
(365,531,o),
(289,578,o),
(202,578,cs),
(111,578,o),
(46,522,o),
(46,437,cs),
(46,341,o),
(116,315,o),
(182,297,cs),
(248,279,o),
(314,273,o),
(383,253,cs),
(452,233,o),
(466,203,o),
(466,171,cs),
(466,141,o),
(454,121,o),
(424,121,cs),
(399,121,o),
(385,137,o),
(378,168,c),
(300,168,l),
(294,137,o),
(284,121,o),
(232,121,cs),
(152,121,o),
(123,131,o),
(116,143,c),
(70,176,l),
(70,115,o),
(127,85,o),
(176,85,cs),
(232,85,o),
(271,118,o),
(271,180,cs),
(271,239,o),
(223,275,o),
(163,275,cs),
(88,275,o),
(40,225,o),
(40,143,cs),
(40,42,o),
(108,-15,o),
(200,-15,cs)
);
},
{
closed = 1;
nodes = (
(139,131,o),
(121,149,o),
(121,176,cs),
(121,203,o),
(139,220,o),
(165,220,cs),
(191,220,o),
(207,203,o),
(207,176,cs),
(207,149,o),
(190,131,o),
(165,131,cs)
);
}
);
width = 673;
},
{
anchors = (
{
name = bottom;
pos = (211,0);
},
{
name = bottomright;
pos = (390,0);
},
{
name = top;
pos = (226,608);
},
{
name = topright;
pos = (370,608);
},
{
name = yamakkan;
pos = (391,608);
}
);
layerId = "FFE3C573-8034-42D7-BBA7-2D1C8826F1F5";
shapes = (
{
closed = 1;
nodes = (
(180,-8,o),
(215,32,o),
(221,88,c),
(214,65,l),
(221,65,l),
(214,88,l),
(221,32,o),
(257,-8,o),
(302,-8,cs),
(356,-8,o),
(391,44,o),
(391,132,cs),
(391,235,o),
(353,278,o),
(298,301,cs),
(243,324,o),
(172,332,o),
(128,350,cs),
(84,368,o),
(71,400,o),
(71,441,cs),
(71,499,o),
(101,533,o),
(142,533,cs),
(200,533,o),
(241,450,o),
(311,450,cs),
(349,450,o),
(379,476,o),
(392,548,c),
(368,556,l),
(358,492,o),
(335,473,o),
(307,473,cs),
(252,473,o),
(208,556,o),
(140,556,cs),
(87,556,o),
(47,512,o),
(47,441,cs),
(47,384,o),
(70,348,o),
(119,329,cs),
(168,310,o),
(236,302,o),
(287,281,cs),
(338,260,o),
(367,218,o),
(367,132,cs),
(367,57,o),
(342,15,o),
(300,15,cs),
(262,15,o),
(232,55,o),
(227,116,c),
(210,116,l),
(204,55,o),
(174,15,o),
(136,15,cs),
(94,15,o),
(65,59,o),
(65,152,c),
(56,173,l),
(56,112,o),
(87,89,o),
(114,89,cs),
(149,89,o),
(173,118,o),
(173,168,cs),
(173,218,o),
(149,247,o),
(112,247,cs),
(72,247,o),
(45,214,o),
(45,134,cs),
(45,52,o),
(80,-8,o),
(136,-8,cs)
);
},
{
closed = 1;
nodes = (
(87,110,o),
(73,131,o),
(73,168,cs),
(73,205,o),
(87,226,o),
(112,226,cs),
(137,226,o),
(151,205,o),
(151,168,cs),
(151,131,o),
(137,110,o),
(112,110,cs)
);
}
);
width = 434;
},
{
anchors = (
{
name = bottom;
pos = (231,0);
},
{
name = bottomright;
pos = (433,0);
},
{
name = top;
pos = (239,608);
},
{
name = topright;
pos = (428,608);
},
{
name = yamakkan;
pos = (439,608);
}
);
layerId = "CACD10EA-8E27-4203-9979-86A2B0F7ED74";
shapes = (
{
closed = 1;
nodes = (
(209,-10,o),
(248,39,o),
(248,104,c),
(230,55,l),
(248,55,l),
(230,104,l),
(230,39,o),
(276,-10,o),
(333,-10,cs),
(396,-10,o),
(439,47,o),
(439,141,cs),
(439,245,o),
(386,292,o),
(330,317,cs),
(274,342,o),
(211,345,o),
(167,360,cs),
(123,375,o),
(113,404,o),
(113,434,cs),
(113,472,o),
(131,498,o),
(164,498,cs),
(215,498,o),
(266,426,o),
(332,426,cs),
(384,426,o),
(425,460,o),
(440,539,c),
(369,561,l),
(360,510,o),
(344,490,o),
(322,490,cs),
(281,490,o),
(231,561,o),
(153,561,cs),
(83,561,o),
(39,511,o),
(39,434,cs),
(39,369,o),
(75,329,o),
(125,309,cs),
(175,289,o),
(233,288,o),
(287,267,cs),
(341,246,o),
(366,216,o),
(366,140,cs),
(366,85,o),
(346,55,o),
(314,55,cs),
(287,55,o),
(263,82,o),
(258,135,c),
(222,135,l),
(217,82,o),
(193,55,o),
(156,55,cs),
(109,55,o),
(78,96,o),
(78,145,c),
(55,161,l),
(55,106,o),
(92,75,o),
(128,75,cs),
(168,75,o),
(197,111,o),
(197,172,cs),
(197,230,o),
(165,267,o),
(120,267,cs),
(70,267,o),
(36,224,o),
(36,141,cs),
(36,57,o),
(79,-10,o),
(147,-10,cs)
);
},
{
closed = 1;
nodes = (
(99,114,o),
(86,135,o),
(86,169,cs),
(86,203,o),
(99,224,o),
(120,224,cs),
(141,224,o),
(154,203,o),
(154,169,cs),
(154,135,o),
(141,114,o),
(120,114,cs)
);
}
);
width = 469;
},
{
anchors = (
{
name = bottom;
pos = (285,0);
},
{
name = bottomright;
pos = (531,0);
},
{
name = top;
pos = (273,608);
},
{
name = topright;
pos = (535,608);
},
{
name = yamakkan;
pos = (536,608);
}
);
layerId = "96C6A4AF-11F2-4EC9-996B-29C760E40A38";
shapes = (
{
closed = 1;
nodes = (
(260,-15,o),
(299,60,o),
(299,134,c),
(262,53,l),
(299,53,l),
(262,134,l),
(262,62,o),
(308,-15,o),
(400,-15,cs),
(483,-15,o),
(536,53,o),
(536,158,cs),
(536,291,o),
(461,326,o),
(399,346,cs),
(337,366,o),
(271,378,o),
(240,389,cs),
(209,400,o),
(200,413,o),
(200,429,cs),
(200,444,o),
(209,452,o),
(225,452,cs),
(257,452,o),
(320,395,o),
(403,395,cs),
(465,395,o),
(529,430,o),
(549,522,c),
(393,576,l),
(389,549,o),
(374,526,o),
(343,526,cs),
(301,526,o),
(259,576,o),
(168,576,cs),
(90,576,o),
(35,520,o),
(35,437,cs),
(35,343,o),
(95,317,o),
(151,298,cs),
(207,279,o),
(259,272,o),
(311,253,cs),
(363,234,o),
(376,206,o),
(376,165,cs),
(376,134,o),
(369,112,o),
(348,112,cs),
(331,112,o),
(324,129,o),
(318,163,c),
(247,163,l),
(242,129,o),
(238,112,o),
(196,112,cs),
(129,112,o),
(112,119,o),
(99,137,c),
(57,162,l),
(57,110,o),
(106,83,o),
(147,83,cs),
(193,83,o),
(226,116,o),
(226,178,cs),
(226,237,o),
(185,273,o),
(130,273,cs),
(80,273,o),
(29,239,o),
(29,142,cs),
(29,43,o),
(89,-15,o),
(166,-15,cs)
);
},
{
closed = 1;
nodes = (
(113,128,o),
(100,145,o),
(100,174,cs),
(100,203,o),
(113,220,o),
(135,220,cs),
(157,220,o),
(170,203,o),
(170,174,cs),
(170,145,o),
(157,128,o),
(135,128,cs)
);
}
);
width = 560;
}
);
subCategory = Spacing;
unicode = 3736;
},
